<?xml version="1.0" encoding="utf-8"?>
<!-- Generator: Adobe Illustrator 23.0.3, SVG Export Plug-In . SVG Version: 6.00 Build 0)  -->
<svg version="1.1" id="f5797293-4767-4b98-be82-dd8b3477ccfb"
	 xmlns="http://www.w3.org/2000/svg" xmlns:xlink="http://www.w3.org/1999/xlink" x="0px" y="0px" viewBox="0 0 1077.3 784"
	 style="enable-background:new 0 0 1077.3 784;" xml:space="preserve">
<style type="text/css">
	.st0{opacity:0.1;fill:#3195FF;}
	.st1{fill:#CACACA;}
	.st2{fill:#FFFFFF;}
	.st3{fill:#3F3D56;}
	.st4{fill:#2F2E41;}
	.st5{fill:#3195FF;}
	.st6{fill:#E4E4E4;}
	.st7{fill:#FFB8B8;}
	.st8{fill:#78EBAD;}
	.st9{clip-path:url(#SVGID_2_);fill:#F2F2F2;}
	.st10{fill:#000333;}
	.st11{fill:#4C4C4C;}
</style>
<path class="st0" d="M1044.5,596.8c-18.8,38.9-51.5,68.6-88.8,91.2c-15.3,9.2-31.2,17.4-47.6,24.4c-10.7,4.7-21.6,8.9-32.7,12.7
	c-54.7,19.1-112.6,28.5-170.7,28.5c-9.5,0-19-0.2-28.4-0.7c-2.7-0.1-5.4-0.3-8.2-0.5c-14.3-1-28.6-2.5-42.9-4.6
	c-0.3,0-0.6-0.1-0.9-0.1c-29.8-4.4-59.1-11.3-87.8-20.6c-5.5-1.8-11.1-3.7-16.5-5.7c-1.5-0.5-3-1.1-4.4-1.6
	c-6.2-2.3-12.3-4.7-18.4-7.2c-5.1-2.1-10.2-4.3-15.3-6.6c-5-2.3-9.9-4.6-14.8-7c-8-3.9-16-8.1-23.9-12.4c-6.1-3.4-12.1-6.8-18-10.5
	c-14.7-9-28.8-18.7-42.5-29.1c-4.8-3.7-9.6-7.5-14.3-11.3c-3.3-2.7-6.5-5.4-9.7-8.1c-6.9-5.6-14-10.9-21.9-14.9
	c-2.4-1.2-4.8-2.3-7.3-3.2c-9.3-3.5-19.2-5.4-29.2-5.7c-17-0.7-34.5,2.5-51,7.2c-7.8,2.2-15.5,4.8-23.3,7.3
	c-3.2,1.1-6.3,2.1-9.5,3.2c-6.5,2.2-13.1,4.4-19.7,6.4c-2.2,0.7-4.4,1.3-6.6,1.9c-8.8,2.5-17.8,4.5-26.9,5.7
	c-20.3,2.6-40.9,0.8-60.5-5.3l-1.7-0.5c-2.8-0.9-5.6-1.8-8.3-2.9l-1.7-0.6c-2.7-1-5.3-2.1-7.8-3.3l-1.7-0.8
	c-2.5-1.2-4.9-2.3-7.2-3.6c-0.2-0.1-0.4-0.2-0.6-0.3c-0.9-0.5-1.8-1-2.7-1.5c-14.5-8.1-27.7-18.4-39.2-30.5c-0.3-0.3-0.6-0.7-1-1
	c-1.6-1.7-3.2-3.5-4.7-5.3c-0.6-0.7-1.1-1.3-1.7-2c-1.8-2.2-3.5-4.4-5.2-6.7c-0.3-0.3-0.5-0.7-0.7-1c-6.8-9.5-12.5-19.7-16.9-30.5
	c-0.1-0.3-0.3-0.7-0.4-1c-1.3-3.4-2.5-6.9-3.6-10.5c-0.5-1.5-0.9-3-1.3-4.5c-0.1-0.4-0.3-0.9-0.4-1.3c-5.5-21.7-6.1-44.3-6.1-66.8
	V448c0.2-36.3,0.7-73.3,6.1-109.1c0-0.2,0.1-0.5,0.1-0.7c1.8-12.1,4.2-24,7.3-35.8c3.2-12.4,7.3-24.5,12.3-36.3
	c12.3-29,30.3-55.4,50.2-79.9C116.4,124.7,182.2,73,259.2,53.7c83-20.8,175.1-0.9,242,52.4c19.7,15.7,37.5,34.2,59.4,46.7
	c0.7,0.4,1.5,0.9,2.3,1.3c2.9,1.6,5.8,3,8.9,4.3c4,1.7,8.1,3.1,12.3,4.3c13.3,3.6,27.2,3.9,40.4-0.5c1.1-0.4,2.2-0.8,3.2-1.2
	c2.3-0.9,4.4-1.7,6.5-2.5c14.3-5.3,25.2-7.9,42.6-7c41.2,2.3,81.7,10.8,120.4,25.2c1.6,0.6,3.1,1.2,4.7,1.8
	c100.7,38.6,187.3,115.1,232.3,213.5c1.2,2.6,2.4,5.2,3.5,7.9C1064.4,462.2,1074.1,535.7,1044.5,596.8z"/>
<polygon class="st1" points="63.6,512.6 63.6,513 63.5,513.2 "/>
<path class="st2" d="M240.9,572.8c-3.2,1.1-6.3,2.1-9.5,3.2v-3.2H240.9z"/>
<rect x="479.4" y="445.6" class="st2" width="30.1" height="30.1"/>
<rect x="527.9" y="445.6" class="st2" width="30.1" height="30.1"/>
<rect x="576.4" y="445.6" class="st2" width="30.1" height="30.1"/>
<rect x="480.2" y="514.2" class="st2" width="30.1" height="30.1"/>
<rect x="528.7" y="514.2" class="st2" width="30.1" height="30.1"/>
<rect x="577.2" y="514.2" class="st2" width="30.1" height="30.1"/>
<rect x="481" y="582.8" class="st2" width="30.1" height="30.1"/>
<rect x="529.6" y="582.8" class="st2" width="30.1" height="30.1"/>
<rect x="578.1" y="582.8" class="st2" width="30.1" height="30.1"/>
<path class="st2" d="M512,651.4V667c-5.1-2.1-10.2-4.3-15.3-6.6c-5-2.3-9.9-4.6-14.8-7v-2.1H512z"/>
<path class="st2" d="M560.5,651.4v30.1h-9.1c-5.5-1.8-11.1-3.7-16.5-5.7c-1.5-0.5-3-1.1-4.4-1.6v-22.8L560.5,651.4z"/>
<rect x="578.9" y="651.4" class="st2" width="30.1" height="30.1"/>
<rect x="732" y="582.8" class="st2" width="30.1" height="30.1"/>
<rect x="780.5" y="582.8" class="st2" width="30.1" height="30.1"/>
<rect x="732.8" y="651.4" class="st2" width="30.1" height="30.1"/>
<rect x="781.4" y="651.4" class="st2" width="30.1" height="30.1"/>
<rect x="829.9" y="651.4" class="st2" width="30.1" height="30.1"/>
<path class="st3" d="M714.6,717.2c0,0,10.7,38.1,55.6,36.4s64.3-37.1,64.3-37.1L714.6,717.2z"/>
<polygon class="st4" points="96.3,568.6 83.5,592.1 85.6,636.1 392.8,727.4 526.5,743.8 500.4,584.3 408.9,568.1 271.6,572.1 
	155.2,550.6 "/>
<path class="st3" d="M139.1,723.1h-7.9c-15.7,0.1-29.9-9-36.5-23.2c-12.2-26.7-8.6-63.6-8.5-64.1c2.8-31.9,20.3-52.7,43.5-51.8
	c25.7,1,47.6,89.8,48.5,93.6c1.5,6.4,1.1,13.1-1.2,19.2C171.1,712.7,156,723.2,139.1,723.1z"/>
<path class="st3" d="M462.4,784c-1.4,0-2.7-0.2-4-0.4c-20.8-3.3-38.6-16.8-47.3-36c-3.2-7-6.3-14.1-9.2-21.3
	c-11.6-28.6-1.9-78.7,13.9-98c13.9-17.1,27.9-17,49.2-16.8c2.2,0,4.4,0,6.8,0c23.6,0,48.5,86.7,56.7,115.2c0.7,2.3,1.2,4.1,1.6,5.5
	c1.3,4.3,1.1,9.5-0.5,15.4c-5,18.6-21.5,32.3-41,34.2C474.5,783.3,465.7,784,462.4,784z"/>
<path class="st3" d="M85.6,636.1c0,0-9-40.2,4.5-67.5l13.6-32.9l51.4,47.8l11.7,74.8l201.3,30.5c0,0-12.5-122.6,65.8-127.5
	s115.4,127.5,115.4,127.5l39.1,28.4l272.2-20.1c0,0,4.8,13.2-2.1,20.1s-337.3,28.4-337.3,28.4s-16.6-164.2-82.4-148.9
	s-46.1,130.8-46.1,130.8L157.6,686c0,0-7.6-111.5-46.4-111.5S85.6,636.1,85.6,636.1z"/>
<polygon class="st3" points="132,496.5 176.3,426.9 365.4,415.9 575.3,418.6 673,509.4 371,526.7 127.8,513.5 "/>
<path class="st5" d="M132,496.5c0,0-37.7,0.8-41.9,72.1c0,0,40.2-72.7,74.8,89.4l206.8,33.6c0,0-7.6-135.1,70.7-124.7
	s97,134.4,97,134.4s15.2,30.5,99.1,25.6s209.2-12.5,222.4-29.8c0,0,30.5-103.2-64.4-169.7l-123.3-18l-279.2,5.5L132,496.5z"/>
<path class="st1" d="M226.6,545H203c-2.7,0-4.9-2.2-4.9-4.8c0-2.7,2.2-4.9,4.8-4.9c0,0,0,0,0,0h23.6c2.7,0,4.8,2.2,4.8,4.9
	C231.4,542.9,229.2,545,226.6,545z"/>
<circle class="st2" cx="585" cy="680.5" r="15.2"/>
<path class="st2" d="M577.5,605.7c-10.4,0-22.9-4.5-34-13c-19.7-15.2-27.9-37.5-18.4-49.9c9.5-12.4,33.3-10.1,52.9,5.1
	c9.5,7.3,16.7,16.5,20.2,25.9c3.5,9.4,2.9,18-1.7,24C592.3,603.1,585.5,605.7,577.5,605.7z"/>
<path class="st2" d="M848.3,586.3c-7.7,0-21.5-7.8-35.1-20.4c-8.2-7.6-15-15.7-19.1-22.8c-4.2-7.3-5.1-12.7-2.7-15.4s8-2.1,15.6,1.5
	c7.5,3.5,16.1,9.7,24.3,17.2c17.3,16,26.8,32.7,21.8,38.2C851.7,585.9,850,586.5,848.3,586.3z"/>
<path class="st2" d="M204.5,496.4c-0.2,0-0.3,0-0.5,0l-50.1-4.7c-3-0.3-5.1-2.9-4.9-5.9c0.1-0.8,0.3-1.6,0.8-2.3l28.2-45.5
	c0.9-1.5,2.6-2.5,4.3-2.5l37.4-1.6c3-0.1,5.5,2.2,5.6,5.1c0,0.6,0,1.2-0.2,1.8l-15.5,51.8C209,494.9,206.9,496.4,204.5,496.4z"/>
<path class="st2" d="M336.5,507.1c-0.5,0-1,0-1.5-0.1l-86.6-8.5c-8.3-0.8-14.4-8.2-13.6-16.5c0.1-0.8,0.2-1.7,0.5-2.5l12.5-45.7
	c1.7-6.4,7.4-10.9,14.1-11.1l69.9-2.4c7.9-0.2,14.6,5.6,15.5,13.4l5.8,49.7c0.2,1.7,0.1,3.3-0.2,5l-1.5,6.9
	C349.8,502.2,343.6,507.1,336.5,507.1z"/>
<path class="st2" d="M404.1,509.5c-5.2,0-9.7-3.6-10.9-8.7l-15.3-66c-1.4-6,2.4-12.1,8.4-13.5c0.8-0.2,1.7-0.3,2.5-0.3H570
	c3,0,5.9,1.2,8.1,3.4l59.2,61c4.3,4.4,4.2,11.6-0.2,15.9c-2,2-4.7,3.1-7.6,3.2l-225,5C404.3,509.5,404.2,509.5,404.1,509.5z"/>
<path class="st5" d="M174.8,429.4l1.5-2.4c0,0,9-24.9,133-29.1s239.7-2.1,266,20.8l-214-0.7l-180.8,12.5L174.8,429.4z"/>
<path class="st6" d="M116.1,607c-13,0-23.6,21.7-23.6,48.5c0,26.8,10.5,48.5,23.6,48.5s23.6-21.7,23.6-48.5
	C139.6,628.7,129.1,607,116.1,607z M117.1,617.4c2.9,0,5.2,5.6,5.2,12.5s-2.3,12.5-5.2,12.5s-5.2-5.6-5.2-12.5
	S114.2,617.4,117.1,617.4z M120.2,655.5c0,2.3-1.6,4.2-3.5,4.2s-3.5-1.9-3.5-4.2s1.6-4.2,3.5-4.2S120.2,653.2,120.2,655.5
	L120.2,655.5z M102.1,658.2c-4.5,0.3-8.2-0.9-8.3-2.7s3.4-3.6,7.8-4c4.5-0.3,8.2,0.9,8.3,2.7S106.6,657.9,102.1,658.2L102.1,658.2z
	 M117.1,693.6c-2.9,0-5.2-5.6-5.2-12.5s2.3-12.5,5.2-12.5s5.2,5.6,5.2,12.5S120,693.6,117.1,693.6L117.1,693.6z M130.5,658.2
	c-4.5,0.3-8.2-0.9-8.3-2.7s3.4-3.6,7.8-4c4.5-0.3,8.2,0.9,8.3,2.7S135,657.9,130.5,658.2L130.5,658.2z"/>
<path class="st6" d="M445.1,639.6c-20.7,0-37.4,27.8-37.4,62c0,34.2,16.7,62,37.4,62c20.7,0,37.4-27.8,37.4-62
	S465.8,639.6,445.1,639.6z M422.8,706.2c-6,0.5-11.1-1.2-11.3-3.7s4.5-4.9,10.6-5.4s11.1,1.2,11.3,3.7
	C433.5,703.4,428.8,705.8,422.8,706.2L422.8,706.2z M445.1,753.5c-3.9,0-7-7.6-7-16.9s3.2-16.9,7-16.9c3.9,0,7,7.6,7,16.9
	S449,753.5,445.1,753.5L445.1,753.5z M439.6,701.9c0-3.7,2.5-6.7,5.5-6.7s5.5,3,5.5,6.7s-2.5,6.7-5.5,6.7S439.6,705.6,439.6,701.9
	L439.6,701.9z M445.1,684.1c-3.9,0-7-7.6-7-16.9s3.2-16.9,7-16.9c3.9,0,7,7.6,7,16.9S449,684.1,445.1,684.1L445.1,684.1z
	 M468.9,704.9c-6,0.5-11.1-1.2-11.3-3.7s4.5-4.9,10.6-5.4s11.1,1.2,11.3,3.7S474.9,704.4,468.9,704.9z"/>
<path class="st1" d="M314.2,515.6l8.3,19.4c0,0,13.9,5.5,22.9-13.2l-18.2-18.2L314.2,515.6z"/>
<path class="st1" d="M302.8,520.1c-14.9,0-27-8.1-27-18c0-9.9,12.1-18,27-18s27,8.1,27,18C329.8,512,317.7,520.1,302.8,520.1z"/>
<path class="st3" d="M823.7,583.5L668.8,588c0,0-33.9,9.5-37.4,36.7c0,0,4.8,22.2,17.3,22.2s203.4-10,203.4-10s12.5-19,2.1-32.6
	S823.7,583.5,823.7,583.5z"/>
<rect x="655.4" y="595.1" transform="matrix(0.9995 -3.304389e-02 3.304389e-02 0.9995 -19.2927 24.9865)" class="st6" width="181.7" height="2.1"/>
<rect x="646.1" y="603.2" transform="matrix(0.999 -4.525995e-02 4.525995e-02 0.999 -26.5844 34.3366)" class="st6" width="197.7" height="2.1"/>
<rect x="638.7" y="613.4" transform="matrix(0.9986 -5.362220e-02 5.362220e-02 0.9986 -31.8738 40.8188)" class="st6" width="212.1" height="2.1"/>
<g id="fa69add6-ae6a-462f-9f4a-a8964149f7d7">
	<path id="f4e602e9-d2b5-4192-9853-189e5cc927ef" class="st7" d="M115,561.6c-3.2-4.1-2.5-10,1.6-13.2c0.4-0.3,0.9-0.6,1.4-0.9
		l-2-21.4l12.7-4.4l2.4,30.3c2.1,4.8,0,10.4-4.8,12.5C122.3,566.3,117.6,565.1,115,561.6L115,561.6z"/>
	<path id="e2d38235-adb3-41cf-b4a9-63352e01515a" class="st8" d="M128.6,438.6c0,0,8.7-18.3,16.5-11.9s-10.6,60.7-10.6,60.7
		l-2.8,52.7l-14.8-1.5l-4.2-51.3L128.6,438.6z"/>
	<path id="eea0d059-1974-4b26-aac7-8a2396c42a8e" class="st7" d="M11.4,710l11,8.9l39.4-38.1l-16.2-13.1L11.4,710z"/>
	<path id="a9703c69-ade6-4e5d-bca9-6a3d314fecef" class="st4" d="M11.5,704.1l21.6,17.5l0,0c7.6,6.1,8.8,17.3,2.6,24.9l-0.4,0.4
		L0,718.3L11.5,704.1z"/>
	<path id="fb949616-149f-4f99-b6d4-35f2ecdeae65" class="st7" d="M163.7,734.6h14.1l6.7-54.4h-20.8L163.7,734.6z"/>
	<path id="b920e865-38ed-4b06-94ca-a4364bcce1a4" class="st4" d="M160.1,730h27.8c9.8,0,17.7,7.9,17.7,17.7v0.6h-45.5L160.1,730z"/>
	<path id="e64f2ddc-8714-4699-9f4e-cfc1a70d06b3" class="st4" d="M188.4,479.7c0,0,26.5,32.2,20.7,64.4s-10.4,56.4-10.4,56.4
		l-9.2,72.4c0,0,3.4,19.7-1.1,24.8c0,0,6.9,12-5.8,16.6s-19.5-1.6-19.5-1.6s-9.3-13.4-3.5-16.8l2.4-142.2L70,674
		c0,0-1.7,14.6-13.5,14.8l-14.1,10.5l-16.1-9.2l8.1-10.3c0,0-4.6-11.5,5.8-13.8l59.8-78.2l15-40.3c0,0,8.1-31.1,29.9-43.7v-13.5
		L188.4,479.7z"/>
	<path id="bce97f6a-e88b-4fe5-bf4a-3ce22a01c084" class="st8" d="M143,423.9L143,423.9c7.2-8.5,19.7-10.3,28.9-4.1l1,0.6l0,0
		c10.2,11.6,17.1,25.7,19.8,40.9l4.3,23.5L143,496.5l-12.7-43.7C127,441.4,132.3,429.2,143,423.9L143,423.9z"/>
	<path id="b697c87b-19ec-4b06-9e7e-37987317631c" class="st7" d="M231.8,566.6c-5.7-1.9-8.7-7.9-6.9-13.6c0.2-0.6,0.4-1.2,0.7-1.7
		l-15.6-19.1l9.3-12.3l21.6,27.3c5.1,3.2,6.6,9.9,3.4,14.9C241.8,566.3,236.6,568.2,231.8,566.6L231.8,566.6z"/>
	<path id="ff802918-ea99-4deb-b868-19882644d1b6" class="st8" d="M166,441.1c0,0-3.4-23,8.1-21.9s28.8,64.4,28.8,64.4l31.1,51.8
		l-15,8l-36.8-46L166,441.1z"/>
	<path id="b2ad01c3-7822-402f-83d4-81805929538c" class="st4" d="M187.1,407.5h-54.8c-2.3,0-4.2-1.9-4.2-4.2v-23.6
		c0-17.5,14.2-31.6,31.6-31.6s31.6,14.2,31.6,31.6l0,0v23.6C191.3,405.6,189.4,407.5,187.1,407.5z"/>
	<circle id="fe1c8106-5903-484b-8252-f0483d4636a1" class="st7" cx="166.2" cy="383.8" r="23.2"/>
	<path id="e2d5a9f4-7ffc-4596-9574-3d578968164c" class="st4" d="M198.8,382h-29.2l-0.3-4.8l-1.5,4.8h-4.5l-0.6-9.5l-3,9.5h-8.7
		v-0.5c0-13.8,9.8-25,21.8-25h4.1c12,0,21.8,11.2,21.8,25L198.8,382z"/>
	<path id="aa8282a4-b0b8-48ea-8496-97297549be2f" class="st4" d="M170.8,411.9c-0.4,0-0.7,0-1.1-0.1l-34.7-5.4v-36.2
		c0-7.7,6.2-13.9,13.9-13.9c0,0,0,0,0,0h24.3l-0.9,1c-13.2,13.4-3.2,35.2,3.8,46.9c1.1,1.7,0.9,4-0.5,5.5
		C174.5,411.2,172.7,411.9,170.8,411.9L170.8,411.9z"/>
</g>
<g>
	<defs>
		<rect id="SVGID_1_" x="353.1" y="95.8" width="647.7" height="194.2"/>
	</defs>
	<clipPath id="SVGID_2_">
		<use xlink:href="#SVGID_1_"  style="overflow:visible;"/>
	</clipPath>
	<path class="st9" d="M383.7,95.8h586.6c16.9,0,30.6,13.7,30.6,30.5v133.3c0,16.8-13.7,30.5-30.6,30.5H383.7
		c-16.9,0-30.6-13.7-30.6-30.5V126.3C353,109.3,366.8,95.8,383.7,95.8"/>
</g>
<g>
	<path class="st10" d="M386.9,148.6l-2.7,6.2h-4.8l11.8-27.3h4.8l11.8,27.3h-4.8l-2.7-6.2H386.9z M398.4,144.3l-4.9-11.3l-4.9,11.3
		H398.4z"/>
	<path class="st10" d="M416.8,148.5c1.2,1.5,2.9,2.2,5,2.2c2.1,0,3.7-0.7,5-2.2c1.2-1.5,1.8-3.4,1.8-5.9v-15.1h4.5v15.3
		c0,3.9-1.1,7-3.2,9.1c-2.1,2.1-4.8,3.2-8.1,3.2c-3.3,0-6-1.1-8.1-3.2c-2.1-2.1-3.2-5.2-3.2-9.1v-15.3h4.5v15.1
		C415,145.1,415.6,147.1,416.8,148.5z"/>
	<path class="st10" d="M450.3,131.7v23.1h-4.5v-23.1h-8.1v-4.2h20.7v4.2H450.3z"/>
	<path class="st10" d="M484.9,151c-2.7,2.7-6,4-10,4c-4,0-7.3-1.3-10-4c-2.7-2.7-4-6.1-4-10.1s1.3-7.4,4-10.1c2.7-2.7,6-4,10-4
		c4,0,7.3,1.3,10,4c2.7,2.7,4,6.1,4,10.1S487.6,148.3,484.9,151z M481.6,133.9c-1.8-1.9-4.1-2.9-6.7-2.9s-4.9,1-6.7,2.9
		c-1.8,1.9-2.7,4.3-2.7,7c0,2.8,0.9,5.1,2.7,7c1.8,1.9,4.1,2.9,6.7,2.9s4.9-1,6.7-2.9c1.8-1.9,2.7-4.3,2.7-7
		C484.4,138.2,483.4,135.8,481.6,133.9z"/>
	<path class="st10" d="M513.2,141.5h4.5v9.3c-2.5,2.8-6.1,4.3-10.8,4.3c-3.9,0-7.3-1.3-9.9-4c-2.7-2.7-4-6-4-10.1
		c0-4.1,1.4-7.5,4.1-10.2c2.7-2.7,6-4.1,9.8-4.1c3.8,0,7,1.1,9.6,3.4l-2.4,3.5c-1-0.9-2.1-1.5-3.2-1.9c-1.1-0.4-2.3-0.5-3.7-0.5
		c-2.7,0-5,0.9-6.8,2.7c-1.8,1.8-2.8,4.1-2.8,7s0.9,5.2,2.7,7c1.8,1.8,3.9,2.6,6.5,2.6c2.5,0,4.7-0.6,6.4-1.7V141.5z"/>
	<path class="st10" d="M527.1,148.6l-2.7,6.2h-4.8l11.8-27.3h4.8l11.8,27.3h-4.8l-2.7-6.2H527.1z M538.7,144.3l-4.9-11.3l-4.9,11.3
		H538.7z"/>
	<path class="st10" d="M573,136.3c0,4.5-1.9,7.4-5.8,8.5l7,9.9h-5.7l-6.4-9.2h-5.9v9.2h-4.5v-27.3h9.9c4.1,0,7,0.7,8.7,2.1
		C572.1,131,573,133.2,573,136.3z M567,140.2c0.9-0.8,1.4-2.1,1.4-3.9c0-1.8-0.5-3-1.4-3.7c-0.9-0.7-2.6-1-5-1h-5.7v9.8h5.6
		C564.4,141.4,566.1,141,567,140.2z"/>
	<path class="st10" d="M583.3,148.6l-2.7,6.2h-4.8l11.8-27.3h4.8l11.8,27.3h-4.8l-2.7-6.2H583.3z M594.8,144.3L590,133l-4.9,11.3
		H594.8z"/>
	<path class="st10" d="M626.4,141.5h4.5v9.3c-2.5,2.8-6.1,4.3-10.8,4.3c-3.9,0-7.3-1.3-9.9-4c-2.7-2.7-4-6-4-10.1
		c0-4.1,1.4-7.5,4.1-10.2c2.7-2.7,6-4.1,9.8-4.1c3.8,0,7,1.1,9.6,3.4l-2.4,3.5c-1-0.9-2.1-1.5-3.2-1.9c-1.1-0.4-2.3-0.5-3.7-0.5
		c-2.7,0-5,0.9-6.8,2.7c-1.8,1.8-2.8,4.1-2.8,7s0.9,5.2,2.7,7c1.8,1.8,3.9,2.6,6.5,2.6s4.7-0.6,6.4-1.7V141.5z"/>
	<path class="st10" d="M655.5,127.4v4.3h-14.3v7.2h12.8v4.1h-12.8v7.3H656v4.3h-19.2v-27.3H655.5z"/>
</g>
<g>
	<path class="st11" d="M388.1,195.5h-7.8v-18.2h6.9c1.2,0,2.2,0.1,3.1,0.4c0.9,0.3,1.5,0.7,1.9,1.2c0.8,0.9,1.2,2,1.2,3.2
		c0,1.4-0.4,2.5-1.3,3.2c-0.3,0.2-0.5,0.4-0.7,0.5c-0.1,0.1-0.3,0.2-0.6,0.3c1.1,0.2,2,0.8,2.6,1.5c0.7,0.8,1,1.7,1,2.9
		c0,1.3-0.4,2.4-1.3,3.4C392.2,194.9,390.5,195.5,388.1,195.5z M383.3,184.8h3.8c2.2,0,3.3-0.8,3.3-2.3c0-0.9-0.3-1.5-0.8-1.9
		c-0.5-0.4-1.3-0.6-2.4-0.6h-3.8V184.8z M383.3,192.7h4.7c1.1,0,1.9-0.2,2.5-0.5s0.9-1,0.9-2c0-1.6-1.3-2.4-3.8-2.4h-4.3V192.7z"/>
	<path class="st11" d="M409.2,193.6c-1.4,1.4-3.1,2.1-5.1,2.1s-3.7-0.7-5.1-2.1s-2-3.1-2-5.1c0-2,0.7-3.7,2-5.1s3.1-2.1,5.1-2.1
		s3.7,0.7,5.1,2.1s2,3.1,2,5.1C411.2,190.6,410.6,192.3,409.2,193.6z M401,191.8c0.8,0.8,1.8,1.3,3.1,1.3c1.2,0,2.3-0.4,3.1-1.3
		c0.8-0.8,1.2-1.9,1.2-3.3c0-1.3-0.4-2.4-1.2-3.3c-0.8-0.8-1.8-1.3-3.1-1.3c-1.2,0-2.3,0.4-3.1,1.3s-1.2,1.9-1.2,3.3
		C399.8,189.9,400.2,191,401,191.8z"/>
	<path class="st11" d="M417.3,188v7.5h-2.9v-13.9h2.9v2.5c0.5-0.9,1.1-1.5,1.9-2s1.7-0.7,2.6-0.7c1.5,0,2.8,0.5,3.7,1.4
		c0.9,1,1.4,2.3,1.4,4.1v8.5h-2.9v-7.6c0-2.6-1-3.8-3.1-3.8c-1,0-1.8,0.3-2.6,1C417.7,185.7,417.3,186.7,417.3,188z"/>
	<path class="st11" d="M430.9,196.2v-14.5h2.9v14.6c0,1.5-0.4,2.6-1.3,3.5s-1.9,1.3-3.1,1.3s-2.3-0.5-3.3-1.4l1.3-2.2
		c0.6,0.6,1.2,0.9,1.7,0.9c0.6,0,1-0.2,1.3-0.6S430.9,196.8,430.9,196.2z M431,178.9c-0.4-0.4-0.5-0.8-0.5-1.3s0.2-0.9,0.5-1.3
		c0.4-0.4,0.8-0.5,1.3-0.5c0.5,0,0.9,0.2,1.3,0.5c0.4,0.4,0.5,0.8,0.5,1.3s-0.2,0.9-0.5,1.3c-0.4,0.4-0.8,0.5-1.3,0.5
		C431.8,179.4,431.4,179.2,431,178.9z"/>
	<path class="st11" d="M449.2,193.6c-1.4,1.4-3.1,2.1-5.1,2.1s-3.7-0.7-5.1-2.1s-2-3.1-2-5.1c0-2,0.7-3.7,2-5.1s3.1-2.1,5.1-2.1
		s3.7,0.7,5.1,2.1s2,3.1,2,5.1C451.3,190.6,450.6,192.3,449.2,193.6z M441.1,191.8c0.8,0.8,1.8,1.3,3.1,1.3c1.2,0,2.3-0.4,3.1-1.3
		c0.8-0.8,1.2-1.9,1.2-3.3c0-1.3-0.4-2.4-1.2-3.3c-0.8-0.8-1.8-1.3-3.1-1.3c-1.2,0-2.3,0.4-3.1,1.3s-1.2,1.9-1.2,3.3
		C439.9,189.9,440.3,191,441.1,191.8z"/>
	<path class="st11" d="M464,189.1v-7.5h2.9v13.9H464V193c-0.5,0.9-1.1,1.5-1.9,2c-0.8,0.5-1.7,0.7-2.6,0.7c-1.5,0-2.8-0.5-3.7-1.4
		c-0.9-1-1.4-2.3-1.4-4.1v-8.5h2.9v7.6c0,2.6,1,3.8,3.1,3.8c1,0,1.8-0.3,2.6-1C463.6,191.4,464,190.4,464,189.1z"/>
	<path class="st11" d="M478.1,184.4c-1.4,0-2.5,0.5-3.2,1.4c-0.7,0.9-1.1,2.2-1.1,3.8v5.9H471v-13.9h2.9v2.8
		c0.5-0.9,1.1-1.6,1.9-2.1s1.6-0.8,2.5-0.9l0,2.9C478.2,184.4,478.1,184.4,478.1,184.4z"/>
	<path class="st11" d="M480.7,193.8c0-0.6,0.2-1,0.6-1.4c0.4-0.4,0.8-0.6,1.3-0.6s1,0.2,1.3,0.6c0.4,0.4,0.6,0.8,0.6,1.3
		s-0.2,1.2-0.7,1.9l-1.5,2.6h-1.5l0.9-2.7C481,195.2,480.7,194.6,480.7,193.8z"/>
	<path class="st11" d="M498.8,195.5l-5.5-13.9h3l4.1,10.5l4.1-10.5h3l-5.5,13.9H498.8z"/>
	<path class="st11" d="M520.9,193.6c-1.4,1.4-3.1,2.1-5.1,2.1s-3.7-0.7-5.1-2.1s-2-3.1-2-5.1c0-2,0.7-3.7,2-5.1s3.1-2.1,5.1-2.1
		s3.7,0.7,5.1,2.1s2,3.1,2,5.1C522.9,190.6,522.3,192.3,520.9,193.6z M512.7,191.8c0.8,0.8,1.8,1.3,3.1,1.3c1.2,0,2.3-0.4,3.1-1.3
		c0.8-0.8,1.2-1.9,1.2-3.3c0-1.3-0.4-2.4-1.2-3.3c-0.8-0.8-1.8-1.3-3.1-1.3c-1.2,0-2.3,0.4-3.1,1.3s-1.2,1.9-1.2,3.3
		C511.5,189.9,511.9,191,512.7,191.8z"/>
	<path class="st11" d="M535.7,189.1v-7.5h2.9v13.9h-2.9V193c-0.5,0.9-1.1,1.5-1.9,2c-0.8,0.5-1.7,0.7-2.6,0.7
		c-1.5,0-2.8-0.5-3.7-1.4c-0.9-1-1.4-2.3-1.4-4.1v-8.5h2.9v7.6c0,2.6,1,3.8,3.1,3.8c1,0,1.8-0.3,2.6-1
		C535.3,191.4,535.7,190.4,535.7,189.1z"/>
	<path class="st11" d="M552.3,191.4c0,1.3-0.5,2.4-1.4,3.2c-0.9,0.8-2.1,1.2-3.6,1.2c-1,0-2-0.2-3.1-0.5c-1.1-0.4-2-0.9-2.8-1.5
		l1.4-2.3c1.6,1.2,3.1,1.8,4.6,1.8c0.6,0,1.2-0.2,1.5-0.5c0.4-0.3,0.6-0.7,0.6-1.2c0-0.7-0.9-1.3-2.7-1.9c-0.1-0.1-0.2-0.1-0.3-0.1
		c-2.8-0.8-4.2-2.1-4.2-3.9c0-1.3,0.5-2.3,1.5-3.1s2.2-1.2,3.8-1.2s3,0.5,4.4,1.4l-1.1,2.2c-1.1-0.7-2.3-1.1-3.6-1.1
		c-0.7,0-1.2,0.1-1.7,0.4c-0.4,0.3-0.6,0.6-0.6,1.1c0,0.5,0.2,0.8,0.7,1c0.3,0.2,0.7,0.3,1.3,0.4s1,0.3,1.5,0.4
		c0.4,0.1,0.8,0.3,1.2,0.5c0.4,0.2,0.8,0.4,1.3,0.7C551.8,189.1,552.3,190,552.3,191.4z"/>
	<path class="st11" d="M573.5,195.5h-2.6v-1.9c-1.1,1.4-2.6,2.1-4.5,2.1c-1.4,0-2.6-0.4-3.5-1.2c-0.9-0.8-1.4-1.9-1.4-3.3
		c0-1.4,0.5-2.4,1.5-3.1c1-0.7,2.3-1,4-1h3.7v-0.5c0-1.8-1-2.8-3-2.8c-1.3,0-2.6,0.5-3.9,1.4l-1.3-1.8c1.6-1.3,3.5-2,5.6-2
		c1.6,0,2.9,0.4,3.9,1.2c1,0.8,1.5,2.1,1.5,3.9V195.5z M570.6,190.3v-1.2h-3.2c-2.1,0-3.1,0.7-3.1,2c0,0.7,0.3,1.2,0.8,1.6
		c0.5,0.4,1.2,0.5,2.1,0.5c0.9,0,1.7-0.3,2.4-0.8S570.6,191.2,570.6,190.3z"/>
	<path class="st11" d="M580.9,195.5l-5.5-13.9h3l4.1,10.5l4.1-10.5h3l-5.5,13.9H580.9z"/>
	<path class="st11" d="M604.5,189.8h-10.6c0.1,1,0.5,1.8,1.3,2.4c0.8,0.6,1.8,0.9,2.9,0.9c1.7,0,3-0.5,3.9-1.6l1.6,1.8
		c-1.5,1.5-3.4,2.3-5.7,2.3c-1.9,0-3.5-0.6-4.9-1.9c-1.3-1.3-2-3-2-5.2c0-2.2,0.7-3.9,2-5.2c1.4-1.3,3-1.9,4.8-1.9
		c1.8,0,3.4,0.6,4.7,1.7c1.3,1.1,1.9,2.7,1.9,4.7V189.8z M593.9,187.6h7.8c0-1.2-0.4-2.1-1.1-2.7c-0.7-0.6-1.6-0.9-2.6-0.9
		s-2,0.3-2.8,1C594.3,185.6,593.9,186.4,593.9,187.6z"/>
	<path class="st11" d="M607.2,184.2v-2.5h10.6v2.6l-7.6,8.7h8v2.5h-11.5v-2.8l7.4-8.5H607.2z"/>
	<path class="st11" d="M635.5,184.4c-1.4,0-2.5,0.5-3.2,1.4s-1.1,2.2-1.1,3.8v5.9h-2.9v-13.9h2.9v2.8c0.5-0.9,1.1-1.6,1.9-2.1
		c0.8-0.6,1.6-0.8,2.5-0.9l0,2.9C635.6,184.4,635.5,184.4,635.5,184.4z"/>
	<path class="st11" d="M651.1,189.8h-10.6c0.1,1,0.5,1.8,1.3,2.4c0.8,0.6,1.8,0.9,2.9,0.9c1.7,0,3-0.5,3.9-1.6l1.6,1.8
		c-1.5,1.5-3.4,2.3-5.7,2.3c-1.9,0-3.5-0.6-4.9-1.9c-1.3-1.3-2-3-2-5.2c0-2.2,0.7-3.9,2-5.2c1.4-1.3,3-1.9,4.8-1.9
		c1.8,0,3.4,0.6,4.7,1.7c1.3,1.1,1.9,2.7,1.9,4.7V189.8z M640.5,187.6h7.8c0-1.2-0.4-2.1-1.1-2.7c-0.7-0.6-1.6-0.9-2.6-0.9
		s-2,0.3-2.8,1C640.9,185.6,640.5,186.4,640.5,187.6z"/>
	<path class="st11" d="M657.1,188v7.5h-2.9v-13.9h2.9v2.5c0.5-0.9,1.1-1.5,1.9-2c0.8-0.5,1.7-0.7,2.6-0.7c1.5,0,2.8,0.5,3.7,1.4
		c0.9,1,1.4,2.3,1.4,4.1v8.5h-2.9v-7.6c0-2.6-1-3.8-3.1-3.8c-1,0-1.8,0.3-2.6,1C657.5,185.7,657.1,186.7,657.1,188z"/>
	<path class="st11" d="M671.7,193.7c-1.3-1.3-1.9-3.1-1.9-5.2s0.7-3.9,2-5.2c1.3-1.3,2.9-1.9,4.7-1.9s3.3,0.8,4.4,2.3v-7.6h2.9v19.3
		h-2.9v-2.1c-1.1,1.5-2.6,2.3-4.6,2.3C674.5,195.7,673,195.1,671.7,193.7z M672.7,188.6c0,1.3,0.4,2.4,1.2,3.2
		c0.8,0.8,1.8,1.3,2.9,1.3c1.1,0,2.1-0.4,2.9-1.3s1.2-1.9,1.2-3.2c0-1.3-0.4-2.4-1.2-3.3s-1.7-1.3-2.9-1.3s-2.1,0.4-2.9,1.3
		C673.1,186.2,672.7,187.3,672.7,188.6z"/>
	<path class="st11" d="M700.4,189.8h-10.6c0.1,1,0.5,1.8,1.3,2.4c0.8,0.6,1.8,0.9,2.9,0.9c1.7,0,3-0.5,3.9-1.6l1.6,1.8
		c-1.5,1.5-3.4,2.3-5.7,2.3c-1.9,0-3.5-0.6-4.9-1.9c-1.3-1.3-2-3-2-5.2c0-2.2,0.7-3.9,2-5.2c1.4-1.3,3-1.9,4.8-1.9
		c1.8,0,3.4,0.6,4.7,1.7c1.3,1.1,1.9,2.7,1.9,4.7V189.8z M689.8,187.6h7.8c0-1.2-0.4-2.1-1.1-2.7c-0.7-0.6-1.6-0.9-2.6-0.9
		s-2,0.3-2.8,1C690.2,185.6,689.8,186.4,689.8,187.6z"/>
	<path class="st11" d="M703.1,184.2v-2.5h10.6v2.6l-7.6,8.7h8v2.5h-11.5v-2.8l7.4-8.5H703.1z"/>
	<path class="st11" d="M716.7,189.1v-2.7h8.5v2.7H716.7z"/>
	<path class="st11" d="M732.6,195.5l-5.5-13.9h3l4.1,10.5l4.1-10.5h3l-5.5,13.9H732.6z"/>
	<path class="st11" d="M754.7,193.6c-1.4,1.4-3.1,2.1-5.1,2.1c-2,0-3.7-0.7-5.1-2.1s-2-3.1-2-5.1c0-2,0.7-3.7,2-5.1s3.1-2.1,5.1-2.1
		c2,0,3.7,0.7,5.1,2.1c1.4,1.4,2,3.1,2,5.1C756.8,190.6,756.1,192.3,754.7,193.6z M746.6,191.8c0.8,0.8,1.8,1.3,3.1,1.3
		c1.2,0,2.3-0.4,3.1-1.3c0.8-0.8,1.2-1.9,1.2-3.3c0-1.3-0.4-2.4-1.2-3.3s-1.8-1.3-3.1-1.3c-1.2,0-2.3,0.4-3.1,1.3
		c-0.8,0.8-1.2,1.9-1.2,3.3C745.4,189.9,745.8,191,746.6,191.8z"/>
	<path class="st11" d="M769.5,189.1v-7.5h2.9v13.9h-2.9V193c-0.5,0.9-1.1,1.5-1.9,2c-0.8,0.5-1.7,0.7-2.6,0.7
		c-1.5,0-2.8-0.5-3.7-1.4c-0.9-1-1.4-2.3-1.4-4.1v-8.5h2.9v7.6c0,2.6,1,3.8,3.1,3.8c1,0,1.8-0.3,2.6-1
		C769.1,191.4,769.5,190.4,769.5,189.1z"/>
	<path class="st11" d="M786.1,191.4c0,1.3-0.5,2.4-1.4,3.2c-0.9,0.8-2.1,1.2-3.6,1.2c-1,0-2-0.2-3.1-0.5c-1.1-0.4-2-0.9-2.8-1.5
		l1.4-2.3c1.6,1.2,3.1,1.8,4.6,1.8c0.6,0,1.2-0.2,1.5-0.5c0.4-0.3,0.6-0.7,0.6-1.2c0-0.7-0.9-1.3-2.7-1.9c-0.1-0.1-0.2-0.1-0.3-0.1
		c-2.8-0.8-4.2-2.1-4.2-3.9c0-1.3,0.5-2.3,1.5-3.1s2.2-1.2,3.8-1.2s3,0.5,4.4,1.4l-1.1,2.2c-1.1-0.7-2.3-1.1-3.6-1.1
		c-0.7,0-1.2,0.1-1.7,0.4c-0.4,0.3-0.6,0.6-0.6,1.1c0,0.5,0.2,0.8,0.7,1c0.3,0.2,0.7,0.3,1.3,0.4s1,0.3,1.5,0.4
		c0.4,0.1,0.8,0.3,1.2,0.5c0.4,0.2,0.8,0.4,1.3,0.7C785.7,189.1,786.1,190,786.1,191.4z"/>
	<path class="st11" d="M807.3,195.5h-2.6v-1.9c-1.1,1.4-2.6,2.1-4.5,2.1c-1.4,0-2.6-0.4-3.5-1.2c-0.9-0.8-1.4-1.9-1.4-3.3
		c0-1.4,0.5-2.4,1.5-3.1c1-0.7,2.3-1,4-1h3.7v-0.5c0-1.8-1-2.8-3-2.8c-1.3,0-2.6,0.5-3.9,1.4l-1.3-1.8c1.6-1.3,3.5-2,5.6-2
		c1.6,0,2.9,0.4,3.9,1.2c1,0.8,1.5,2.1,1.5,3.9V195.5z M804.5,190.3v-1.2h-3.2c-2.1,0-3.1,0.7-3.1,2c0,0.7,0.3,1.2,0.8,1.6
		c0.5,0.4,1.2,0.5,2.1,0.5c0.9,0,1.7-0.3,2.4-0.8S804.5,191.2,804.5,190.3z M804.1,179.9h-2.6l-3.1-2.5l3-1.3L804.1,179.9z"/>
	<path class="st11" d="M821.1,195.5h-2.9v-19.3h2.9V195.5z"/>
	<path class="st11" d="M825,180.2c-0.5-0.3-0.7-0.7-0.7-1.2s0.2-1,0.5-1.3c0.3-0.3,0.7-0.5,1.1-0.5c0.5,0,0.8,0.1,1.2,0.4
		c0.3,0.3,0.5,0.7,0.5,1.2c0,0.5-0.2,0.9-0.5,1.4l-1.5,2.2h-1.6L825,180.2z"/>
	<path class="st11" d="M841.2,195.5h-2.6v-1.9c-1.1,1.4-2.6,2.1-4.5,2.1c-1.4,0-2.6-0.4-3.5-1.2c-0.9-0.8-1.4-1.9-1.4-3.3
		c0-1.4,0.5-2.4,1.5-3.1c1-0.7,2.3-1,4-1h3.7v-0.5c0-1.8-1-2.8-3-2.8c-1.3,0-2.6,0.5-3.9,1.4l-1.3-1.8c1.6-1.3,3.5-2,5.6-2
		c1.6,0,2.9,0.4,3.9,1.2c1,0.8,1.5,2.1,1.5,3.9V195.5z M838.4,190.3v-1.2h-3.2c-2.1,0-3.1,0.7-3.1,2c0,0.7,0.3,1.2,0.8,1.6
		c0.5,0.4,1.2,0.5,2.1,0.5c0.9,0,1.7-0.3,2.4-0.8S838.4,191.2,838.4,190.3z"/>
	<path class="st11" d="M848.6,184v7c0,0.7,0.2,1.2,0.5,1.6c0.3,0.4,0.8,0.6,1.4,0.6s1.2-0.3,1.8-0.9l1.2,2.1c-1,0.9-2.1,1.4-3.3,1.4
		c-1.2,0-2.3-0.4-3.1-1.3c-0.9-0.9-1.3-2-1.3-3.5v-7H844v-2.3h1.7v-4.4h2.9v4.4h3.6v2.3H848.6z"/>
	<path class="st11" d="M868.3,189.8h-10.6c0.1,1,0.5,1.8,1.3,2.4c0.8,0.6,1.8,0.9,2.9,0.9c1.7,0,3-0.5,3.9-1.6l1.6,1.8
		c-1.5,1.5-3.4,2.3-5.7,2.3c-1.9,0-3.5-0.6-4.9-1.9c-1.3-1.3-2-3-2-5.2c0-2.2,0.7-3.9,2-5.2c1.4-1.3,3-1.9,4.8-1.9
		c1.8,0,3.4,0.6,4.7,1.7c1.3,1.1,1.9,2.7,1.9,4.7V189.8z M857.7,187.6h7.8c0-1.2-0.4-2.1-1.1-2.7c-0.7-0.6-1.6-0.9-2.6-0.9
		s-2,0.3-2.8,1C858.1,185.6,857.7,186.4,857.7,187.6z"/>
	<path class="st11" d="M874.3,195.5h-2.9v-19.3h2.9V195.5z"/>
	<path class="st11" d="M878.6,178.9c-0.4-0.4-0.5-0.8-0.5-1.3s0.2-0.9,0.5-1.3c0.4-0.4,0.8-0.5,1.3-0.5s0.9,0.2,1.3,0.5
		c0.4,0.4,0.5,0.8,0.5,1.3s-0.2,0.9-0.5,1.3s-0.8,0.5-1.3,0.5S879,179.2,878.6,178.9z M881.3,195.5h-2.9v-13.9h2.9V195.5z"/>
	<path class="st11" d="M898,189.8h-10.6c0.1,1,0.5,1.8,1.3,2.4c0.8,0.6,1.8,0.9,2.9,0.9c1.7,0,3-0.5,3.9-1.6l1.6,1.8
		c-1.5,1.5-3.4,2.3-5.7,2.3c-1.9,0-3.5-0.6-4.9-1.9c-1.3-1.3-2-3-2-5.2c0-2.2,0.7-3.9,2-5.2c1.4-1.3,3-1.9,4.8-1.9
		c1.8,0,3.4,0.6,4.7,1.7c1.3,1.1,1.9,2.7,1.9,4.7V189.8z M887.4,187.6h7.8c0-1.2-0.4-2.1-1.1-2.7c-0.7-0.6-1.6-0.9-2.6-0.9
		s-2,0.3-2.8,1C887.8,185.6,887.4,186.4,887.4,187.6z"/>
	<path class="st11" d="M908.3,184.4c-1.4,0-2.5,0.5-3.2,1.4s-1.1,2.2-1.1,3.8v5.9h-2.9v-13.9h2.9v2.8c0.5-0.9,1.1-1.6,1.9-2.1
		c0.8-0.6,1.6-0.8,2.5-0.9l0,2.9C908.4,184.4,908.3,184.4,908.3,184.4z"/>
	<path class="st11" d="M925.5,181.4c1.8,0,3.4,0.6,4.7,1.9c1.3,1.3,1.9,3,1.9,5.1c0,2.1-0.6,3.9-1.9,5.2c-1.3,1.3-2.8,2-4.5,2
		c-1.7,0-3.2-0.8-4.6-2.3v7.1h-2.9v-18.9h2.9v2.4C922.2,182.3,923.7,181.4,925.5,181.4z M921.1,188.6c0,1.3,0.4,2.4,1.2,3.2
		c0.8,0.8,1.7,1.3,2.9,1.3c1.1,0,2.1-0.4,2.9-1.3c0.8-0.8,1.2-1.9,1.2-3.2c0-1.3-0.4-2.4-1.2-3.3c-0.8-0.9-1.8-1.3-2.9-1.3
		s-2.1,0.4-2.9,1.3S921.1,187.3,921.1,188.6z"/>
	<path class="st11" d="M946.7,193.6c-1.4,1.4-3.1,2.1-5.1,2.1c-2,0-3.7-0.7-5.1-2.1s-2-3.1-2-5.1c0-2,0.7-3.7,2-5.1s3.1-2.1,5.1-2.1
		c2,0,3.7,0.7,5.1,2.1c1.4,1.4,2,3.1,2,5.1C948.7,190.6,948.1,192.3,946.7,193.6z M938.5,191.8c0.8,0.8,1.8,1.3,3.1,1.3
		c1.2,0,2.3-0.4,3.1-1.3c0.8-0.8,1.2-1.9,1.2-3.3c0-1.3-0.4-2.4-1.2-3.3s-1.8-1.3-3.1-1.3c-1.2,0-2.3,0.4-3.1,1.3
		c-0.8,0.8-1.2,1.9-1.2,3.3C937.3,189.9,937.7,191,938.5,191.8z"/>
	<path class="st11" d="M961.5,189.1v-7.5h2.9v13.9h-2.9V193c-0.5,0.9-1.1,1.5-1.9,2c-0.8,0.5-1.7,0.7-2.6,0.7
		c-1.5,0-2.8-0.5-3.7-1.4c-0.9-1-1.4-2.3-1.4-4.1v-8.5h2.9v7.6c0,2.6,1,3.8,3.1,3.8c1,0,1.8-0.3,2.6-1
		C961.1,191.4,961.5,190.4,961.5,189.1z"/>
	<path class="st11" d="M975.5,184.4c-1.4,0-2.5,0.5-3.2,1.4s-1.1,2.2-1.1,3.8v5.9h-2.9v-13.9h2.9v2.8c0.5-0.9,1.1-1.6,1.9-2.1
		c0.8-0.6,1.6-0.8,2.5-0.9l0,2.9C975.6,184.4,975.6,184.4,975.5,184.4z"/>
</g>
<g>
	<path class="st11" d="M383.5,226.8l-5.5-13.9h3l4.1,10.5l4.1-10.5h3l-5.5,13.9H383.5z"/>
	<path class="st11" d="M405.6,224.9c-1.4,1.4-3.1,2.1-5.1,2.1s-3.7-0.7-5.1-2.1s-2-3.1-2-5.1c0-2,0.7-3.7,2-5.1s3.1-2.1,5.1-2.1
		s3.7,0.7,5.1,2.1s2,3.1,2,5.1C407.6,221.9,406.9,223.5,405.6,224.9z M397.4,223.1c0.8,0.8,1.8,1.3,3.1,1.3c1.2,0,2.3-0.4,3.1-1.3
		c0.8-0.8,1.2-1.9,1.2-3.3c0-1.3-0.4-2.4-1.2-3.3c-0.8-0.8-1.8-1.3-3.1-1.3c-1.2,0-2.3,0.4-3.1,1.3s-1.2,1.9-1.2,3.3
		C396.2,221.2,396.6,222.3,397.4,223.1z"/>
	<path class="st11" d="M414.2,215.3v7c0,0.7,0.2,1.2,0.5,1.6c0.3,0.4,0.8,0.6,1.4,0.6s1.2-0.3,1.8-0.9l1.2,2.1
		c-1,0.9-2.1,1.4-3.3,1.4s-2.3-0.4-3.1-1.3c-0.9-0.9-1.3-2-1.3-3.5v-7h-1.7v-2.3h1.7v-4.4h2.9v4.4h3.6v2.3H414.2z"/>
	<path class="st11" d="M428.4,215.7c-1.4,0-2.5,0.5-3.2,1.4c-0.7,0.9-1.1,2.2-1.1,3.8v5.9h-2.9v-13.9h2.9v2.8
		c0.5-0.9,1.1-1.6,1.9-2.1s1.6-0.8,2.5-0.9l0,2.9C428.5,215.7,428.5,215.7,428.4,215.7z"/>
	<path class="st11" d="M444,221.1h-10.6c0.1,1,0.5,1.8,1.3,2.4c0.8,0.6,1.8,0.9,2.9,0.9c1.7,0,3-0.5,3.9-1.6l1.6,1.8
		c-1.5,1.5-3.4,2.3-5.7,2.3c-1.9,0-3.5-0.6-4.9-1.9c-1.3-1.3-2-3-2-5.2c0-2.2,0.7-3.9,2-5.2c1.4-1.3,3-1.9,4.8-1.9s3.4,0.6,4.7,1.7
		s1.9,2.7,1.9,4.7V221.1z M433.4,218.8h7.8c0-1.2-0.4-2.1-1.1-2.7c-0.7-0.6-1.6-0.9-2.6-0.9c-1,0-2,0.3-2.8,1
		C433.8,216.8,433.4,217.7,433.4,218.8z"/>
	<path class="st11" d="M465.1,226.8h-2.6v-1.9c-1.1,1.4-2.6,2.1-4.5,2.1c-1.4,0-2.6-0.4-3.5-1.2c-0.9-0.8-1.4-1.9-1.4-3.3
		c0-1.4,0.5-2.4,1.5-3.1c1-0.7,2.3-1,4-1h3.7v-0.5c0-1.8-1-2.8-3-2.8c-1.3,0-2.6,0.5-3.9,1.4l-1.3-1.8c1.6-1.3,3.5-2,5.6-2
		c1.6,0,2.9,0.4,3.9,1.2c1,0.8,1.5,2.1,1.5,3.9V226.8z M462.2,221.6v-1.2H459c-2.1,0-3.1,0.7-3.1,2c0,0.7,0.3,1.2,0.8,1.6
		c0.5,0.4,1.2,0.5,2.1,0.5s1.7-0.3,2.4-0.8C461.9,223.2,462.2,222.5,462.2,221.6z"/>
	<path class="st11" d="M478.5,220.4v-7.5h2.9v13.9h-2.9v-2.5c-0.5,0.9-1.1,1.5-1.9,2c-0.8,0.5-1.7,0.7-2.6,0.7
		c-1.5,0-2.8-0.5-3.7-1.4c-0.9-1-1.4-2.3-1.4-4.1v-8.5h2.9v7.6c0,2.6,1,3.8,3.1,3.8c1,0,1.8-0.3,2.6-1
		C478.2,222.7,478.5,221.7,478.5,220.4z"/>
	<path class="st11" d="M489,215.3v7c0,0.7,0.2,1.2,0.5,1.6c0.3,0.4,0.8,0.6,1.4,0.6s1.2-0.3,1.8-0.9l1.2,2.1c-1,0.9-2.1,1.4-3.3,1.4
		s-2.3-0.4-3.1-1.3c-0.9-0.9-1.3-2-1.3-3.5v-7h-1.7v-2.3h1.7v-4.4h2.9v4.4h3.6v2.3H489z"/>
	<path class="st11" d="M507.4,224.9c-1.4,1.4-3.1,2.1-5.1,2.1s-3.7-0.7-5.1-2.1s-2-3.1-2-5.1c0-2,0.7-3.7,2-5.1s3.1-2.1,5.1-2.1
		s3.7,0.7,5.1,2.1s2,3.1,2,5.1C509.4,221.9,508.8,223.5,507.4,224.9z M499.2,223.1c0.8,0.8,1.8,1.3,3.1,1.3c1.2,0,2.3-0.4,3.1-1.3
		c0.8-0.8,1.2-1.9,1.2-3.3c0-1.3-0.4-2.4-1.2-3.3c-0.8-0.8-1.8-1.3-3.1-1.3c-1.2,0-2.3,0.4-3.1,1.3s-1.2,1.9-1.2,3.3
		C498,221.2,498.4,222.3,499.2,223.1z"/>
	<path class="st11" d="M522.5,226.8h-2.9v-19.3h2.9V226.8z"/>
	<path class="st11" d="M539.2,221.1h-10.6c0.1,1,0.5,1.8,1.3,2.4c0.8,0.6,1.8,0.9,2.9,0.9c1.7,0,3-0.5,3.9-1.6l1.6,1.8
		c-1.5,1.5-3.4,2.3-5.7,2.3c-1.9,0-3.5-0.6-4.9-1.9c-1.3-1.3-2-3-2-5.2c0-2.2,0.7-3.9,2-5.2c1.4-1.3,3-1.9,4.8-1.9s3.4,0.6,4.7,1.7
		s1.9,2.7,1.9,4.7V221.1z M528.6,218.8h7.8c0-1.2-0.4-2.1-1.1-2.7c-0.7-0.6-1.6-0.9-2.6-0.9c-1,0-2,0.3-2.8,1
		C529,216.8,528.6,217.7,528.6,218.8z"/>
	<path class="st11" d="M556.7,215.7c0.5-0.7,0.8-1.4,0.8-2.2s-0.3-1.4-0.8-1.9c-0.5-0.5-1.2-0.8-2.1-0.8c-1.5,0-2.7,0.8-3.6,2.3
		l-2.4-1.4c0.8-1.2,1.6-2.1,2.6-2.7s2.2-0.9,3.6-0.9c1.5,0,2.8,0.5,3.9,1.4c1.1,1,1.7,2.3,1.7,3.9c0,0.9-0.2,1.8-0.7,2.7
		c-0.5,0.9-1.3,1.9-2.6,3.3l-4.2,4.4h8.1v2.9h-12.2v-2.6l5.4-5.6C555.4,217.4,556.2,216.4,556.7,215.7z"/>
	<path class="st11" d="M571.3,211c-1.6,0-2.7,0.5-3.5,1.6c-0.7,1.1-1.1,2.6-1.1,4.4c0.4-0.5,1-0.9,1.8-1.4c0.8-0.4,1.7-0.6,2.6-0.6
		c1.6,0,2.9,0.5,4,1.6c1.1,1.1,1.6,2.5,1.6,4.3c0,1.8-0.6,3.2-1.7,4.3c-1.2,1.1-2.6,1.6-4.4,1.6c-2.9,0-4.8-1.3-5.9-3.9
		c-0.6-1.5-0.9-3.2-0.9-5.1c0-1.9,0.2-3.4,0.6-4.7c0.4-1.3,0.9-2.2,1.6-3c1.3-1.4,3-2.1,4.9-2.1c1.9,0,3.7,0.6,5.2,1.9l-1.5,2.3
		c-0.4-0.3-0.9-0.7-1.6-0.9S571.8,211,571.3,211z M570.8,217.8c-1,0-1.9,0.3-2.6,0.9c-0.7,0.6-1,1.3-1,2.3s0.3,1.7,1,2.4
		c0.7,0.7,1.5,1,2.5,1c1,0,1.8-0.3,2.5-0.9c0.7-0.6,1-1.4,1-2.3s-0.3-1.7-0.9-2.4C572.6,218.1,571.8,217.8,570.8,217.8z"/>
	<path class="st11" d="M587.1,227.4v-14.5h2.9v14.6c0,1.5-0.4,2.6-1.3,3.5c-0.9,0.9-1.9,1.3-3.1,1.3s-2.3-0.5-3.3-1.4l1.3-2.2
		c0.6,0.6,1.2,0.9,1.7,0.9s1-0.2,1.3-0.6S587.1,228.1,587.1,227.4z M587.3,210.2c-0.4-0.4-0.5-0.8-0.5-1.3s0.2-0.9,0.5-1.3
		c0.4-0.4,0.8-0.5,1.3-0.5s0.9,0.2,1.3,0.5c0.4,0.4,0.5,0.8,0.5,1.3s-0.2,0.9-0.5,1.3s-0.8,0.5-1.3,0.5S587.6,210.5,587.3,210.2z"/>
	<path class="st11" d="M603.6,220.4v-7.5h2.9v13.9h-2.9v-2.5c-0.5,0.9-1.1,1.5-1.9,2c-0.8,0.5-1.7,0.7-2.6,0.7
		c-1.5,0-2.8-0.5-3.7-1.4c-0.9-1-1.4-2.3-1.4-4.1v-8.5h2.9v7.6c0,2.6,1,3.8,3.1,3.8c1,0,1.8-0.3,2.6-1
		C603.2,222.7,603.6,221.7,603.6,220.4z"/>
	<path class="st11" d="M610.7,210.2c-0.4-0.4-0.5-0.8-0.5-1.3s0.2-0.9,0.5-1.3c0.4-0.4,0.8-0.5,1.3-0.5s0.9,0.2,1.3,0.5
		c0.4,0.4,0.5,0.8,0.5,1.3s-0.2,0.9-0.5,1.3s-0.8,0.5-1.3,0.5S611.1,210.5,610.7,210.2z M613.4,226.8h-2.9v-13.9h2.9V226.8z"/>
	<path class="st11" d="M620.4,219.3v7.5h-2.9v-13.9h2.9v2.5c0.5-0.9,1.1-1.5,1.9-2c0.8-0.5,1.7-0.7,2.6-0.7c1.5,0,2.8,0.5,3.7,1.4
		c0.9,1,1.4,2.3,1.4,4.1v8.5h-2.9v-7.6c0-2.6-1-3.8-3.1-3.8c-1,0-1.8,0.3-2.6,1C620.8,217,620.4,218,620.4,219.3z"/>
	<path class="st11" d="M651.9,226.8h-2.6v-1.9c-1.1,1.4-2.6,2.1-4.5,2.1c-1.4,0-2.6-0.4-3.5-1.2c-0.9-0.8-1.4-1.9-1.4-3.3
		c0-1.4,0.5-2.4,1.5-3.1c1-0.7,2.3-1,4-1h3.7v-0.5c0-1.8-1-2.8-3-2.8c-1.3,0-2.6,0.5-3.9,1.4l-1.3-1.8c1.6-1.3,3.5-2,5.6-2
		c1.6,0,2.9,0.4,3.9,1.2c1,0.8,1.5,2.1,1.5,3.9V226.8z M649.1,221.6v-1.2h-3.2c-2.1,0-3.1,0.7-3.1,2c0,0.7,0.3,1.2,0.8,1.6
		c0.5,0.4,1.2,0.5,2.1,0.5c0.9,0,1.7-0.3,2.4-0.8S649.1,222.5,649.1,221.6z M648.7,211.1h-2.6l-3.1-2.5l3-1.3L648.7,211.1z"/>
	<path class="st11" d="M661.6,208.6h6.5v18.2h-2.9v-15.5h-3.6V208.6z"/>
	<path class="st11" d="M673.8,224.4c-1.2-1.7-1.8-4-1.8-6.9c0-2.9,0.6-5.2,1.8-6.9c1.2-1.7,3-2.6,5.5-2.6c2.4,0,4.2,0.9,5.5,2.6
		c1.2,1.7,1.8,4,1.8,6.9c0,2.9-0.6,5.2-1.8,6.9c-1.2,1.7-3,2.6-5.5,2.6C676.9,227,675.1,226.1,673.8,224.4z M676,212.6
		c-0.7,1.3-1.1,2.9-1.1,4.9c0,2,0.4,3.7,1.1,4.9c0.7,1.3,1.8,1.9,3.3,1.9s2.6-0.6,3.3-1.9c0.7-1.2,1-2.9,1-4.9c0-2.1-0.3-3.7-1-4.9
		c-0.7-1.2-1.8-1.9-3.3-1.9S676.7,211.4,676,212.6z"/>
	<path class="st11" d="M693,219.3v7.5h-2.9v-19.3h2.9v8c0.4-0.9,1-1.5,1.8-2c0.8-0.5,1.7-0.7,2.7-0.7c1.5,0,2.8,0.5,3.7,1.4
		c0.9,1,1.4,2.3,1.4,4.1v8.5h-2.9v-7.6c0-2.6-1-3.8-3.1-3.8c-1,0-1.8,0.3-2.6,1C693.3,217,693,218,693,219.3z"/>
	<path class="st11" d="M707.8,224.4c-1.2-1.7-1.8-4-1.8-6.9c0-2.9,0.6-5.2,1.8-6.9c1.2-1.7,3-2.6,5.5-2.6c2.4,0,4.2,0.9,5.5,2.6
		c1.2,1.7,1.8,4,1.8,6.9c0,2.9-0.6,5.2-1.8,6.9c-1.2,1.7-3,2.6-5.5,2.6C710.8,227,709,226.1,707.8,224.4z M710,212.6
		c-0.7,1.3-1.1,2.9-1.1,4.9c0,2,0.4,3.7,1.1,4.9c0.7,1.3,1.8,1.9,3.3,1.9s2.6-0.6,3.3-1.9c0.7-1.2,1-2.9,1-4.9c0-2.1-0.3-3.7-1-4.9
		c-0.7-1.2-1.8-1.9-3.3-1.9S710.7,211.4,710,212.6z"/>
	<path class="st11" d="M725.3,224.4c-1.2-1.7-1.8-4-1.8-6.9c0-2.9,0.6-5.2,1.8-6.9c1.2-1.7,3-2.6,5.5-2.6c2.4,0,4.2,0.9,5.5,2.6
		c1.2,1.7,1.8,4,1.8,6.9c0,2.9-0.6,5.2-1.8,6.9c-1.2,1.7-3,2.6-5.5,2.6C728.4,227,726.6,226.1,725.3,224.4z M727.5,212.6
		c-0.7,1.3-1.1,2.9-1.1,4.9c0,2,0.4,3.7,1.1,4.9c0.7,1.3,1.8,1.9,3.3,1.9s2.6-0.6,3.3-1.9c0.7-1.2,1-2.9,1-4.9c0-2.1-0.3-3.7-1-4.9
		c-0.7-1.2-1.8-1.9-3.3-1.9S728.2,211.4,727.5,212.6z"/>
	<path class="st11" d="M741.5,226.4c-0.4-0.4-0.5-0.8-0.5-1.4c0-0.5,0.2-1,0.5-1.4c0.4-0.4,0.8-0.6,1.3-0.6s1,0.2,1.4,0.6
		c0.4,0.4,0.6,0.8,0.6,1.4c0,0.5-0.2,1-0.6,1.4c-0.4,0.4-0.8,0.6-1.4,0.6S741.9,226.8,741.5,226.4z"/>
	<path class="st11" d="M761.3,211c-0.9,0-1.6,0.2-2.2,0.5c-0.6,0.4-0.8,0.9-0.8,1.7c0,0.7,0.3,1.3,0.8,1.7s1.8,0.8,3.6,1.3
		c1.8,0.5,3.2,1.1,4.1,1.9c0.9,0.8,1.4,2,1.4,3.6c0,1.6-0.6,2.9-1.8,3.9c-1.2,1-2.7,1.5-4.6,1.5c-2.8,0-5.3-1-7.4-2.9l1.9-2.3
		c1.8,1.6,3.7,2.4,5.6,2.4c1,0,1.7-0.2,2.3-0.6c0.6-0.4,0.9-1,0.9-1.7c0-0.7-0.3-1.3-0.8-1.6c-0.5-0.4-1.5-0.7-2.8-1.1
		s-2.3-0.6-3-0.9c-0.7-0.3-1.3-0.6-1.8-1.1c-1.1-0.8-1.6-2.1-1.6-3.8s0.6-3,1.8-3.9c1.2-0.9,2.7-1.4,4.4-1.4c1.1,0,2.3,0.2,3.4,0.6
		c1.1,0.4,2.1,0.9,2.9,1.6l-1.6,2.3c-0.5-0.5-1.2-0.9-2.1-1.2C763,211.1,762.1,211,761.3,211z"/>
	<path class="st11" d="M771.7,210.2c-0.4-0.4-0.5-0.8-0.5-1.3s0.2-0.9,0.5-1.3c0.4-0.4,0.8-0.5,1.3-0.5s0.9,0.2,1.3,0.5
		c0.4,0.4,0.5,0.8,0.5,1.3s-0.2,0.9-0.5,1.3s-0.8,0.5-1.3,0.5S772.1,210.5,771.7,210.2z M774.4,226.8h-2.9v-13.9h2.9V226.8z"/>
	<path class="st11" d="M789.1,226.8l-5.5-13.9h3l4.1,10.5l4.1-10.5h3l-5.5,13.9H789.1z"/>
	<path class="st11" d="M811.2,224.9c-1.4,1.4-3.1,2.1-5.1,2.1c-2,0-3.7-0.7-5.1-2.1s-2-3.1-2-5.1c0-2,0.7-3.7,2-5.1s3.1-2.1,5.1-2.1
		c2,0,3.7,0.7,5.1,2.1c1.4,1.4,2,3.1,2,5.1C813.2,221.9,812.5,223.5,811.2,224.9z M803,223.1c0.8,0.8,1.8,1.3,3.1,1.3
		c1.2,0,2.3-0.4,3.1-1.3c0.8-0.8,1.2-1.9,1.2-3.3c0-1.3-0.4-2.4-1.2-3.3s-1.8-1.3-3.1-1.3c-1.2,0-2.3,0.4-3.1,1.3
		c-0.8,0.8-1.2,1.9-1.2,3.3C801.8,221.2,802.2,222.3,803,223.1z"/>
	<path class="st11" d="M825.9,220.4v-7.5h2.9v13.9h-2.9v-2.5c-0.5,0.9-1.1,1.5-1.9,2c-0.8,0.5-1.7,0.7-2.6,0.7
		c-1.5,0-2.8-0.5-3.7-1.4c-0.9-1-1.4-2.3-1.4-4.1v-8.5h2.9v7.6c0,2.6,1,3.8,3.1,3.8c1,0,1.8-0.3,2.6-1
		C825.6,222.7,825.9,221.7,825.9,220.4z"/>
	<path class="st11" d="M842.6,222.6c0,1.3-0.5,2.4-1.4,3.2c-0.9,0.8-2.1,1.2-3.6,1.2c-1,0-2-0.2-3.1-0.5c-1.1-0.4-2-0.9-2.8-1.5
		l1.4-2.3c1.6,1.2,3.1,1.8,4.6,1.8c0.6,0,1.2-0.2,1.5-0.5c0.4-0.3,0.6-0.7,0.6-1.2c0-0.7-0.9-1.3-2.7-1.9c-0.1-0.1-0.2-0.1-0.3-0.1
		c-2.8-0.8-4.2-2.1-4.2-3.9c0-1.3,0.5-2.3,1.5-3.1s2.2-1.2,3.8-1.2s3,0.5,4.4,1.4l-1.1,2.2c-1.1-0.7-2.3-1.1-3.6-1.1
		c-0.7,0-1.2,0.1-1.7,0.4c-0.4,0.3-0.6,0.6-0.6,1.1c0,0.5,0.2,0.8,0.7,1c0.3,0.2,0.7,0.3,1.3,0.4s1,0.3,1.5,0.4
		c0.4,0.1,0.8,0.3,1.2,0.5c0.4,0.2,0.8,0.4,1.3,0.7C842.1,220.3,842.6,221.3,842.6,222.6z"/>
	<path class="st11" d="M862.4,222.6c0,1.3-0.5,2.4-1.4,3.2c-0.9,0.8-2.1,1.2-3.6,1.2c-1,0-2-0.2-3.1-0.5c-1.1-0.4-2-0.9-2.8-1.5
		l1.4-2.3c1.6,1.2,3.1,1.8,4.6,1.8c0.6,0,1.2-0.2,1.5-0.5c0.4-0.3,0.6-0.7,0.6-1.2c0-0.7-0.9-1.3-2.7-1.9c-0.1-0.1-0.2-0.1-0.3-0.1
		c-2.8-0.8-4.2-2.1-4.2-3.9c0-1.3,0.5-2.3,1.5-3.1s2.2-1.2,3.8-1.2s3,0.5,4.4,1.4l-1.1,2.2c-1.1-0.7-2.3-1.1-3.6-1.1
		c-0.7,0-1.2,0.1-1.7,0.4c-0.4,0.3-0.6,0.6-0.6,1.1c0,0.5,0.2,0.8,0.7,1c0.3,0.2,0.7,0.3,1.3,0.4s1,0.3,1.5,0.4
		c0.4,0.1,0.8,0.3,1.2,0.5c0.4,0.2,0.8,0.4,1.3,0.7C862,220.3,862.4,221.3,862.4,222.6z"/>
	<path class="st11" d="M877,224.9c-1.4,1.4-3.1,2.1-5.1,2.1c-2,0-3.7-0.7-5.1-2.1s-2-3.1-2-5.1c0-2,0.7-3.7,2-5.1s3.1-2.1,5.1-2.1
		c2,0,3.7,0.7,5.1,2.1c1.4,1.4,2,3.1,2,5.1C879,221.9,878.4,223.5,877,224.9z M868.8,223.1c0.8,0.8,1.8,1.3,3.1,1.3
		c1.2,0,2.3-0.4,3.1-1.3c0.8-0.8,1.2-1.9,1.2-3.3c0-1.3-0.4-2.4-1.2-3.3s-1.8-1.3-3.1-1.3c-1.2,0-2.3,0.4-3.1,1.3
		c-0.8,0.8-1.2,1.9-1.2,3.3C867.6,221.2,868,222.3,868.8,223.1z"/>
	<path class="st11" d="M891.7,220.4v-7.5h2.9v13.9h-2.9v-2.5c-0.5,0.9-1.1,1.5-1.9,2c-0.8,0.5-1.7,0.7-2.6,0.7
		c-1.5,0-2.8-0.5-3.7-1.4c-0.9-1-1.4-2.3-1.4-4.1v-8.5h2.9v7.6c0,2.6,1,3.8,3.1,3.8c1,0,1.8-0.3,2.6-1
		C891.4,222.7,891.7,221.7,891.7,220.4z"/>
	<path class="st11" d="M901.6,219.3v7.5h-2.9v-19.3h2.9v8c0.4-0.9,1-1.5,1.8-2c0.8-0.5,1.7-0.7,2.7-0.7c1.5,0,2.8,0.5,3.7,1.4
		c0.9,1,1.4,2.3,1.4,4.1v8.5h-2.9v-7.6c0-2.6-1-3.8-3.1-3.8c-1,0-1.8,0.3-2.6,1C901.9,217,901.6,218,901.6,219.3z"/>
	<path class="st11" d="M926.2,226.8h-2.6v-1.9c-1.1,1.4-2.6,2.1-4.5,2.1c-1.4,0-2.6-0.4-3.5-1.2c-0.9-0.8-1.4-1.9-1.4-3.3
		c0-1.4,0.5-2.4,1.5-3.1c1-0.7,2.3-1,4-1h3.7v-0.5c0-1.8-1-2.8-3-2.8c-1.3,0-2.6,0.5-3.9,1.4l-1.3-1.8c1.6-1.3,3.5-2,5.6-2
		c1.6,0,2.9,0.4,3.9,1.2c1,0.8,1.5,2.1,1.5,3.9V226.8z M923.3,221.6v-1.2h-3.2c-2.1,0-3.1,0.7-3.1,2c0,0.7,0.3,1.2,0.8,1.6
		c0.5,0.4,1.2,0.5,2.1,0.5c0.9,0,1.7-0.3,2.4-0.8S923.3,222.5,923.3,221.6z"/>
	<path class="st11" d="M930.3,210.2c-0.4-0.4-0.5-0.8-0.5-1.3s0.2-0.9,0.5-1.3c0.4-0.4,0.8-0.5,1.3-0.5s0.9,0.2,1.3,0.5
		c0.4,0.4,0.5,0.8,0.5,1.3s-0.2,0.9-0.5,1.3s-0.8,0.5-1.3,0.5S930.7,210.5,930.3,210.2z M933,226.8h-2.9v-13.9h2.9V226.8z"/>
	<path class="st11" d="M940.6,215.3v7c0,0.7,0.2,1.2,0.5,1.6c0.3,0.4,0.8,0.6,1.4,0.6s1.2-0.3,1.8-0.9l1.2,2.1
		c-1,0.9-2.1,1.4-3.3,1.4c-1.2,0-2.3-0.4-3.1-1.3c-0.9-0.9-1.3-2-1.3-3.5v-7h-1.7v-2.3h1.7v-4.4h2.9v4.4h3.6v2.3H940.6z"/>
	<path class="st11" d="M960.4,221.1h-10.6c0.1,1,0.5,1.8,1.3,2.4c0.8,0.6,1.8,0.9,2.9,0.9c1.7,0,3-0.5,3.9-1.6l1.6,1.8
		c-1.5,1.5-3.4,2.3-5.7,2.3c-1.9,0-3.5-0.6-4.9-1.9c-1.3-1.3-2-3-2-5.2c0-2.2,0.7-3.9,2-5.2c1.4-1.3,3-1.9,4.8-1.9
		c1.8,0,3.4,0.6,4.7,1.7c1.3,1.1,1.9,2.7,1.9,4.7V221.1z M949.7,218.8h7.8c0-1.2-0.4-2.1-1.1-2.7c-0.7-0.6-1.6-0.9-2.6-0.9
		s-2,0.3-2.8,1C950.2,216.8,949.7,217.7,949.7,218.8z"/>
	<path class="st11" d="M963.1,215.5V213h10.6v2.6l-7.6,8.7h8v2.5h-11.5v-2.8l7.4-8.5H963.1z"/>
</g>
<g>
	<path class="st11" d="M382.7,250.6v7.5h-2.9v-13.9h2.9v2.5c0.4-0.9,1-1.5,1.8-2c0.8-0.5,1.7-0.7,2.7-0.7c2.1,0,3.6,0.9,4.4,2.7
		c1.3-1.8,3-2.7,5-2.7c1.5,0,2.8,0.5,3.7,1.4c0.9,1,1.4,2.3,1.4,4.1v8.5h-2.9v-7.6c0-2.6-1-3.8-3.1-3.8c-1,0-1.8,0.3-2.5,1
		c-0.7,0.6-1.1,1.6-1.1,2.8v7.7h-2.9v-7.6c0-1.3-0.2-2.3-0.7-2.9c-0.5-0.6-1.2-0.9-2.2-0.9c-1,0-1.8,0.3-2.6,1
		C383.1,248.3,382.7,249.3,382.7,250.6z"/>
	<path class="st11" d="M417,256.2c-1.4,1.4-3.1,2.1-5.1,2.1s-3.7-0.7-5.1-2.1s-2-3.1-2-5.1c0-2,0.7-3.7,2-5.1s3.1-2.1,5.1-2.1
		s3.7,0.7,5.1,2.1s2,3.1,2,5.1C419.1,253.1,418.4,254.8,417,256.2z M408.9,254.4c0.8,0.8,1.8,1.3,3.1,1.3c1.2,0,2.3-0.4,3.1-1.3
		c0.8-0.8,1.2-1.9,1.2-3.3c0-1.3-0.4-2.4-1.2-3.3c-0.8-0.8-1.8-1.3-3.1-1.3c-1.2,0-2.3,0.4-3.1,1.3s-1.2,1.9-1.2,3.3
		C407.7,252.5,408.1,253.6,408.9,254.4z"/>
	<path class="st11" d="M423.4,256.3c-1.3-1.3-1.9-3.1-1.9-5.2s0.7-3.9,2-5.2c1.3-1.3,2.9-1.9,4.7-1.9s3.3,0.8,4.4,2.3v-7.6h2.9v19.3
		h-2.9V256c-1.1,1.5-2.6,2.3-4.6,2.3C426.1,258.3,424.6,257.6,423.4,256.3z M424.3,251.2c0,1.3,0.4,2.4,1.2,3.2
		c0.8,0.8,1.8,1.3,2.9,1.3c1.1,0,2.1-0.4,2.9-1.3c0.8-0.8,1.2-1.9,1.2-3.2c0-1.3-0.4-2.4-1.2-3.3c-0.8-0.9-1.7-1.3-2.9-1.3
		s-2.1,0.4-2.9,1.3C424.7,248.8,424.3,249.9,424.3,251.2z"/>
	<path class="st11" d="M439.6,241.4c-0.4-0.4-0.5-0.8-0.5-1.3s0.2-0.9,0.5-1.3c0.4-0.4,0.8-0.5,1.3-0.5s0.9,0.2,1.3,0.5
		c0.4,0.4,0.5,0.8,0.5,1.3s-0.2,0.9-0.5,1.3c-0.4,0.4-0.8,0.5-1.3,0.5S440,241.8,439.6,241.4z M442.3,258.1h-2.9v-13.9h2.9V258.1z"
		/>
	<path class="st11" d="M449.9,243.1v1.1h3.6v2.3h-3.6v11.5h-2.9v-11.5h-1.7v-2.3h1.7v-1.1c0-1.5,0.4-2.6,1.3-3.5
		c0.9-0.9,1.9-1.3,3.1-1.3s2.3,0.5,3.3,1.4l-1.2,2.1c-0.6-0.6-1.1-0.9-1.8-0.9s-1.1,0.2-1.4,0.6
		C450.1,241.9,449.9,242.4,449.9,243.1z"/>
	<path class="st11" d="M456.4,241.4c-0.4-0.4-0.5-0.8-0.5-1.3s0.2-0.9,0.5-1.3c0.4-0.4,0.8-0.5,1.3-0.5s0.9,0.2,1.3,0.5
		c0.4,0.4,0.5,0.8,0.5,1.3s-0.2,0.9-0.5,1.3c-0.4,0.4-0.8,0.5-1.3,0.5S456.8,241.8,456.4,241.4z M459.1,258.1h-2.9v-13.9h2.9V258.1z
		"/>
	<path class="st11" d="M475.8,252.4h-10.6c0.1,1,0.5,1.8,1.3,2.4c0.8,0.6,1.8,0.9,2.9,0.9c1.7,0,3-0.5,3.9-1.6l1.6,1.8
		c-1.5,1.5-3.4,2.3-5.7,2.3c-1.9,0-3.5-0.6-4.9-1.9c-1.3-1.3-2-3-2-5.2c0-2.2,0.7-3.9,2-5.2c1.4-1.3,3-1.9,4.8-1.9s3.4,0.6,4.7,1.7
		s1.9,2.7,1.9,4.7V252.4z M465.2,250.1h7.8c0-1.2-0.4-2.1-1.1-2.7c-0.7-0.6-1.6-0.9-2.6-0.9c-1,0-2,0.3-2.8,1
		C465.6,248.1,465.2,249,465.2,250.1z"/>
	<path class="st11" d="M486.1,246.9c-1.4,0-2.5,0.5-3.2,1.4c-0.7,0.9-1.1,2.2-1.1,3.8v5.9H479v-13.9h2.9v2.8
		c0.5-0.9,1.1-1.6,1.9-2.1s1.6-0.8,2.5-0.9l0,2.9C486.2,246.9,486.1,246.9,486.1,246.9z"/>
	<path class="st11" d="M498.9,258.1H496v-19.3h2.9V258.1z"/>
	<path class="st11" d="M515.6,252.4H505c0.1,1,0.5,1.8,1.3,2.4c0.8,0.6,1.8,0.9,2.9,0.9c1.7,0,3-0.5,3.9-1.6l1.6,1.8
		c-1.5,1.5-3.4,2.3-5.7,2.3c-1.9,0-3.5-0.6-4.9-1.9c-1.3-1.3-2-3-2-5.2c0-2.2,0.7-3.9,2-5.2c1.4-1.3,3-1.9,4.8-1.9s3.4,0.6,4.7,1.7
		s1.9,2.7,1.9,4.7V252.4z M505,250.1h7.8c0-1.2-0.4-2.1-1.1-2.7c-0.7-0.6-1.6-0.9-2.6-0.9c-1,0-2,0.3-2.8,1
		C505.4,248.1,505,249,505,250.1z"/>
	<path class="st11" d="M532.9,246.9c-1.4,0-2.5,0.5-3.2,1.4c-0.7,0.9-1.1,2.2-1.1,3.8v5.9h-2.9v-13.9h2.9v2.8
		c0.5-0.9,1.1-1.6,1.9-2.1s1.6-0.8,2.5-0.9l0,2.9C533,246.9,532.9,246.9,532.9,246.9z"/>
	<path class="st11" d="M548.5,252.4h-10.6c0.1,1,0.5,1.8,1.4,2.4c0.8,0.6,1.8,0.9,2.9,0.9c1.7,0,3-0.5,3.9-1.6l1.6,1.8
		c-1.5,1.5-3.4,2.3-5.7,2.3c-1.9,0-3.5-0.6-4.9-1.9c-1.3-1.3-2-3-2-5.2c0-2.2,0.7-3.9,2-5.2c1.4-1.3,3-1.9,4.8-1.9
		c1.8,0,3.4,0.6,4.7,1.7c1.3,1.1,1.9,2.7,1.9,4.7V252.4z M537.8,250.1h7.8c0-1.2-0.4-2.1-1.1-2.7c-0.7-0.6-1.6-0.9-2.6-0.9
		c-1,0-2,0.3-2.8,1C538.3,248.1,537.8,249,537.8,250.1z"/>
	<path class="st11" d="M554.4,250.6v7.5h-2.9v-13.9h2.9v2.5c0.5-0.9,1.1-1.5,1.9-2c0.8-0.5,1.7-0.7,2.6-0.7c1.5,0,2.8,0.5,3.7,1.4
		c0.9,1,1.4,2.3,1.4,4.1v8.5h-2.9v-7.6c0-2.6-1-3.8-3.1-3.8c-1,0-1.8,0.3-2.6,1C554.8,248.3,554.4,249.3,554.4,250.6z"/>
	<path class="st11" d="M569.1,256.3c-1.3-1.3-1.9-3.1-1.9-5.2s0.7-3.9,2-5.2c1.3-1.3,2.9-1.9,4.7-1.9s3.3,0.8,4.4,2.3v-7.6h2.9v19.3
		h-2.9V256c-1.1,1.5-2.6,2.3-4.6,2.3C571.9,258.3,570.4,257.6,569.1,256.3z M570,251.2c0,1.3,0.4,2.4,1.2,3.2
		c0.8,0.8,1.8,1.3,2.9,1.3c1.1,0,2.1-0.4,2.9-1.3s1.2-1.9,1.2-3.2c0-1.3-0.4-2.4-1.2-3.3s-1.7-1.3-2.9-1.3s-2.1,0.4-2.9,1.3
		C570.4,248.8,570,249.9,570,251.2z"/>
	<path class="st11" d="M597.8,252.4h-10.6c0.1,1,0.5,1.8,1.3,2.4c0.8,0.6,1.8,0.9,2.9,0.9c1.7,0,3-0.5,3.9-1.6l1.6,1.8
		c-1.5,1.5-3.4,2.3-5.7,2.3c-1.9,0-3.5-0.6-4.9-1.9c-1.3-1.3-2-3-2-5.2c0-2.2,0.7-3.9,2-5.2c1.4-1.3,3-1.9,4.8-1.9
		c1.8,0,3.4,0.6,4.7,1.7c1.3,1.1,1.9,2.7,1.9,4.7V252.4z M587.2,250.1h7.8c0-1.2-0.4-2.1-1.1-2.7c-0.7-0.6-1.6-0.9-2.6-0.9
		s-2,0.3-2.8,1C587.6,248.1,587.2,249,587.2,250.1z"/>
	<path class="st11" d="M600.5,246.8v-2.5h10.6v2.6l-7.6,8.7h8v2.5H600v-2.8l7.4-8.5H600.5z"/>
	<path class="st11" d="M614,251.7v-2.7h8.5v2.7H614z"/>
	<path class="st11" d="M630,258.1l-5.5-13.9h3l4.1,10.5l4.1-10.5h3l-5.5,13.9H630z"/>
	<path class="st11" d="M652.1,256.2c-1.4,1.4-3.1,2.1-5.1,2.1c-2,0-3.7-0.7-5.1-2.1s-2-3.1-2-5.1c0-2,0.7-3.7,2-5.1s3.1-2.1,5.1-2.1
		c2,0,3.7,0.7,5.1,2.1c1.4,1.4,2,3.1,2,5.1C654.1,253.1,653.4,254.8,652.1,256.2z M643.9,254.4c0.8,0.8,1.8,1.3,3.1,1.3
		c1.2,0,2.3-0.4,3.1-1.3c0.8-0.8,1.2-1.9,1.2-3.3c0-1.3-0.4-2.4-1.2-3.3s-1.8-1.3-3.1-1.3c-1.2,0-2.3,0.4-3.1,1.3
		c-0.8,0.8-1.2,1.9-1.2,3.3C642.7,252.5,643.1,253.6,643.9,254.4z"/>
	<path class="st11" d="M666.8,251.7v-7.5h2.9v13.9h-2.9v-2.5c-0.5,0.9-1.1,1.5-1.9,2c-0.8,0.5-1.7,0.7-2.6,0.7
		c-1.5,0-2.8-0.5-3.7-1.4c-0.9-1-1.4-2.3-1.4-4.1v-8.5h2.9v7.6c0,2.6,1,3.8,3.1,3.8c1,0,1.8-0.3,2.6-1
		C666.5,254,666.8,253,666.8,251.7z"/>
	<path class="st11" d="M683.5,253.9c0,1.3-0.5,2.4-1.4,3.2c-0.9,0.8-2.1,1.2-3.6,1.2c-1,0-2-0.2-3.1-0.5c-1.1-0.4-2-0.9-2.8-1.5
		l1.4-2.3c1.6,1.2,3.1,1.8,4.6,1.8c0.6,0,1.2-0.2,1.5-0.5c0.4-0.3,0.6-0.7,0.6-1.2c0-0.7-0.9-1.3-2.7-1.9c-0.1-0.1-0.2-0.1-0.3-0.1
		c-2.8-0.8-4.2-2.1-4.2-3.9c0-1.3,0.5-2.3,1.5-3.1s2.2-1.2,3.8-1.2s3,0.5,4.4,1.4l-1.1,2.2c-1.1-0.7-2.3-1.1-3.6-1.1
		c-0.7,0-1.2,0.1-1.7,0.4c-0.4,0.3-0.6,0.6-0.6,1.1c0,0.5,0.2,0.8,0.7,1c0.3,0.2,0.7,0.3,1.3,0.4s1,0.3,1.5,0.4
		c0.4,0.1,0.8,0.3,1.2,0.5c0.4,0.2,0.8,0.4,1.3,0.7C683,251.6,683.5,252.6,683.5,253.9z"/>
	<path class="st11" d="M694,251.3c-0.4-0.4-0.5-0.8-0.5-1.4s0.2-1,0.5-1.4c0.4-0.4,0.8-0.6,1.3-0.6s1,0.2,1.3,0.6
		c0.4,0.4,0.6,0.8,0.6,1.4s-0.2,1-0.6,1.4c-0.4,0.4-0.8,0.6-1.3,0.6S694.3,251.7,694,251.3z M694,257.7c-0.4-0.4-0.5-0.8-0.5-1.4
		c0-0.5,0.2-1,0.5-1.4c0.4-0.4,0.8-0.6,1.3-0.6s1,0.2,1.3,0.6c0.4,0.4,0.6,0.8,0.6,1.4c0,0.5-0.2,1-0.6,1.4
		c-0.4,0.4-0.8,0.6-1.3,0.6S694.3,258.1,694,257.7z"/>
</g>
<g>
	<path class="st5" d="M709.3,255.7c-1.2-1.7-1.8-4-1.8-6.9c0-2.9,0.6-5.2,1.8-6.9c1.2-1.7,3-2.6,5.5-2.6c2.4,0,4.2,0.9,5.5,2.6
		c1.2,1.7,1.8,4,1.8,6.9c0,2.9-0.6,5.2-1.8,6.9c-1.2,1.7-3,2.6-5.5,2.6C712.4,258.3,710.5,257.4,709.3,255.7z M711.5,243.9
		c-0.7,1.3-1.1,2.9-1.1,4.9c0,2,0.4,3.7,1.1,4.9c0.7,1.3,1.8,1.9,3.3,1.9s2.6-0.6,3.3-1.9c0.7-1.2,1-2.9,1-4.9c0-2.1-0.3-3.7-1-4.9
		c-0.7-1.2-1.8-1.9-3.3-1.9S712.2,242.7,711.5,243.9z"/>
	<path class="st5" d="M732.1,250.7v-3.3h2.9v3.3h2.1v2.8H735v4.6h-2.9v-4.6h-7.6v-2.7l6.5-10.9h3.3l-6.4,10.8H732.1z"/>
	<path class="st5" d="M740.3,257.7c-0.4-0.4-0.5-0.8-0.5-1.4c0-0.5,0.2-1,0.5-1.4c0.4-0.4,0.8-0.6,1.3-0.6s1,0.2,1.4,0.6
		c0.4,0.4,0.6,0.8,0.6,1.4c0,0.5-0.2,1-0.6,1.4c-0.4,0.4-0.8,0.6-1.4,0.6S740.7,258.1,740.3,257.7z"/>
	<path class="st5" d="M752,255.5c1.6,0,2.7-0.5,3.5-1.6c0.7-1.1,1.1-2.6,1.1-4.4c-0.4,0.5-1,0.9-1.8,1.4c-0.8,0.4-1.7,0.6-2.6,0.6
		c-1.6,0-2.9-0.5-4-1.6s-1.6-2.5-1.6-4.3c0-1.8,0.6-3.2,1.7-4.3c1.2-1.1,2.6-1.6,4.4-1.6c2.9,0,4.8,1.3,5.9,3.9
		c0.6,1.5,0.9,3.2,0.9,5.1s-0.2,3.4-0.6,4.7c-0.4,1.3-0.9,2.2-1.6,3c-1.3,1.4-3,2.1-4.9,2.1c-1.9,0-3.7-0.6-5.2-1.9l1.5-2.3
		c0.4,0.3,0.9,0.7,1.6,0.9C750.9,255.4,751.5,255.5,752,255.5z M752.6,248.7c1,0,1.9-0.3,2.6-0.9c0.7-0.6,1-1.3,1-2.3
		c0-0.9-0.3-1.7-1-2.4s-1.5-1-2.5-1s-1.8,0.3-2.5,0.9s-1,1.4-1,2.3s0.3,1.7,0.9,2.4S751.5,248.7,752.6,248.7z"/>
	<path class="st5" d="M763,242.6v-2.7h10.4v2.4l-4.3,4.9c1.6,0.1,2.9,0.6,3.8,1.6c0.9,1,1.4,2.2,1.4,3.6c0,1.9-0.6,3.3-1.8,4.4
		c-1.2,1.1-2.8,1.6-4.8,1.6s-3.8-0.6-5.7-1.9l1.3-2.5c1.5,1,3,1.6,4.6,1.6c1,0,1.9-0.2,2.6-0.7c0.7-0.5,1-1.2,1-2.1
		s-0.4-1.7-1.1-2.2c-0.7-0.6-1.8-0.8-3.1-0.8c-0.7,0-1.3,0.1-1.9,0.3v-2.3l4.1-4.9H763z"/>
	<path class="st5" d="M778,257.7c-0.4-0.4-0.5-0.8-0.5-1.4c0-0.5,0.2-1,0.5-1.4c0.4-0.4,0.8-0.6,1.3-0.6s1,0.2,1.4,0.6
		c0.4,0.4,0.6,0.8,0.6,1.4c0,0.5-0.2,1-0.6,1.4c-0.4,0.4-0.8,0.6-1.4,0.6S778.3,258.1,778,257.7z"/>
	<path class="st5" d="M795.9,258.1l-4.4-6.9h-0.1l-4.4,6.9h-3.7l6.1-9.4l-5.7-8.9h3.7l4,6.2h0.1l4-6.2h3.7l-5.7,8.9l6.1,9.4H795.9z"
		/>
	<path class="st5" d="M813,258.1l-4.4-6.9h-0.1l-4.4,6.9h-3.7l6.1-9.4l-5.7-8.9h3.7l4,6.2h0.1l4-6.2h3.7l-5.7,8.9l6.1,9.4H813z"/>
	<path class="st5" d="M819.4,257.7c-0.4-0.4-0.5-0.8-0.5-1.4c0-0.5,0.2-1,0.5-1.4c0.4-0.4,0.8-0.6,1.3-0.6s1,0.2,1.4,0.6
		c0.4,0.4,0.6,0.8,0.6,1.4c0,0.5-0.2,1-0.6,1.4c-0.4,0.4-0.8,0.6-1.4,0.6S819.7,258.1,819.4,257.7z"/>
	<path class="st5" d="M837.3,258.1l-4.4-6.9h-0.1l-4.4,6.9h-3.7l6.1-9.4l-5.7-8.9h3.7l4,6.2h0.1l4-6.2h3.7l-5.7,8.9l6.1,9.4H837.3z"
		/>
	<path class="st5" d="M854.4,258.1l-4.4-6.9h-0.1l-4.4,6.9h-3.7l6.1-9.4l-5.7-8.9h3.7l4,6.2h0.1l4-6.2h3.7l-5.7,8.9l6.1,9.4H854.4z"
		/>
	<path class="st5" d="M860.8,257.7c-0.4-0.4-0.5-0.8-0.5-1.4c0-0.5,0.2-1,0.5-1.4c0.4-0.4,0.8-0.6,1.3-0.6s1,0.2,1.4,0.6
		c0.4,0.4,0.6,0.8,0.6,1.4c0,0.5-0.2,1-0.6,1.4c-0.4,0.4-0.8,0.6-1.4,0.6S861.2,258.1,860.8,257.7z"/>
	<path class="st5" d="M878.7,258.1l-4.4-6.9h-0.1l-4.4,6.9h-3.7l6.1-9.4l-5.7-8.9h3.7l4,6.2h0.1l4-6.2h3.7l-5.7,8.9l6.1,9.4H878.7z"
		/>
	<path class="st5" d="M895.8,258.1l-4.4-6.9h-0.1l-4.4,6.9h-3.7l6.1-9.4l-5.7-8.9h3.7l4,6.2h0.1l4-6.2h3.7l-5.7,8.9l6.1,9.4H895.8z"
		/>
</g>
</svg>
