<?xml version="1.0" encoding="utf-8"?>
<!-- Generator: Adobe Illustrator 23.0.3, SVG Export Plug-In . SVG Version: 6.00 Build 0)  -->
<svg version="1.1" id="Calque_1" xmlns="http://www.w3.org/2000/svg" xmlns:xlink="http://www.w3.org/1999/xlink" x="0px" y="0px"
	 viewBox="0 0 990.3 727" style="enable-background:new 0 0 990.3 727;" xml:space="preserve">
<style type="text/css">
	.st0{opacity:0.1;fill:#3195FF;enable-background:new    ;}
	.st1{fill:#8CD0F3;}
	.st2{opacity:0.1;fill:#8CD0F3;enable-background:new    ;}
	.st3{fill:#121C3F;}
	.st4{fill:#2856B8;}
	.st5{opacity:0.2;fill:#FFFFFF;enable-background:new    ;}
	.st6{opacity:0.5;fill:#18218A;enable-background:new    ;}
	.st7{fill:#182A7C;}
	.st8{fill:#3F8FFE;}
	.st9{opacity:0.2;fill:none;stroke:#FFFFFF;stroke-miterlimit:10;enable-background:new    ;}
	.st10{fill:#3195FF;}
	.st11{opacity:0.1;enable-background:new    ;}
	.st12{clip-path:url(#SVGID_2_);}
	.st13{opacity:0.1;clip-path:url(#SVGID_4_);enable-background:new    ;}
	.st14{clip-path:url(#SVGID_6_);fill:#6C63FF;}
	.st15{clip-path:url(#SVGID_8_);fill:#6C63FF;}
	.st16{clip-path:url(#SVGID_10_);fill:#6C63FF;}
	.st17{clip-path:url(#SVGID_12_);fill:#6C63FF;}
	.st18{clip-path:url(#SVGID_14_);fill:#6C63FF;}
	.st19{clip-path:url(#SVGID_16_);fill:#6C63FF;}
	.st20{filter:url(#Adobe_OpacityMaskFilter);}
	.st21{clip-path:url(#SVGID_18_);fill:url(#SVGID_20_);}
	.st22{clip-path:url(#SVGID_18_);mask:url(#SVGID_19_);fill:url(#SVGID_21_);}
	.st23{clip-path:url(#SVGID_23_);fill:#FFFFFF;}
	.st24{opacity:0.1;clip-path:url(#SVGID_23_);enable-background:new    ;}
	.st25{clip-path:url(#SVGID_25_);}
	.st26{clip-path:url(#SVGID_23_);fill:#512E4E;}
	.st27{clip-path:url(#SVGID_27_);}
	.st28{clip-path:url(#SVGID_23_);fill:#FBBEBE;}
	.st29{clip-path:url(#SVGID_29_);}
	.st30{clip-path:url(#SVGID_31_);}
	.st31{clip-path:url(#SVGID_23_);fill:#3195FF;}
	.st32{clip-path:url(#SVGID_33_);}
	.st33{clip-path:url(#SVGID_35_);}
	.st34{clip-path:url(#SVGID_37_);}
	.st35{clip-path:url(#SVGID_39_);}
	.st36{clip-path:url(#SVGID_41_);}
	.st37{clip-path:url(#SVGID_43_);}
	.st38{clip-path:url(#SVGID_45_);}
	.st39{clip-path:url(#SVGID_47_);}
	.st40{clip-path:url(#SVGID_49_);}
	.st41{clip-path:url(#SVGID_51_);}
	.st42{clip-path:url(#SVGID_53_);}
	.st43{clip-path:url(#SVGID_55_);}
	.st44{clip-path:url(#SVGID_57_);fill:#FBBEBE;}
	.st45{clip-path:url(#SVGID_59_);}
	.st46{clip-path:url(#SVGID_61_);}
	.st47{opacity:0.1;clip-path:url(#SVGID_23_);}
	.st48{clip-path:url(#SVGID_63_);}
	.st49{clip-path:url(#SVGID_65_);fill:#F2F2F2;}
	.st50{fill:#000333;}
	.st51{fill:#4C4C4C;}
</style>
<title>by_my_car</title>
<path class="st0" d="M58.1,318c20.8,47.1-5.8,101.3-37,142.2c-10.5,13.7-22,28-23.5,45.2c-1.8,21,12.5,40.3,29.4,52.9
	c30.8,23,72.8,30.1,109.4,18.5c31.6-10,58.3-32.7,90.2-41.8c53.4-15.3,110,10.1,155.7,41.6c32.3,22.3,67,49.5,106,44.7
	c27.5-3.4,50.8-22.6,66.6-45.3c7.6-11,14.3-23.2,25.4-30.6c6.6-4.4,14.4-6.7,22.1-8.4c70.9-15.2,146.1,21.8,216.1,2.8
	c47.3-12.8,84.9-50.2,108.3-93.2c23.4-43,34.4-91.5,43.5-139.7c6.5-34.2,11.8-71.1-3-102.5c-15.7-33.3-52.2-53.4-88.8-57.2
	s-73.3,6.7-107.1,21.4C729.3,187.1,688,212.9,642,213c-31.3,0.1-61.2-12-91.2-21.1c-50.2-15.3-102.2-22.9-154.1-30
	c-49.7-6.7-99.9-13-149.9-9c-35.4,2.8-66.6,16.3-100.9,22.6c-22.4,4.1-44.8,1-66.8,7.9c-27,8.4-54.8,28.1-56.3,58.9
	C21.4,271.6,47,293,58.1,318z"/>
<ellipse class="st0" cx="552.8" cy="588" rx="363.1" ry="37.8"/>
<path class="st1" d="M405.8,465c0,0,99.5-68.9,168.4-68.9c0,0,82.9-14,173,9.6S870.5,460,895.5,451l-105,3.3L405.8,465z"/>
<path class="st2" d="M405.8,465c0,0,99.5-68.9,168.4-68.9c0,0,82.9-14,173,9.6S870.5,460,895.5,451l-105,3.3L405.8,465z"/>
<polygon class="st3" points="875,570.4 267.9,570.4 284.5,498 387.8,468.3 875,482.1 "/>
<path class="st4" d="M906.9,525.2v23.1c0,0-18,14.2-19.7,25.3c0,0-25.8,7.1-33.2,7.1c-0.7,0-1.4,0-2.2,0.1c1.2-3.3,2.1-6.8,2.7-10.3
	c6.8-36.7-15.3-72.4-49.1-79.7s-66.8,16.5-73.6,53.2c-1.6,8.7-1.6,17.7,0,26.5c0.9,4.7,2.2,9.4,4,13.8h-35c0,0-0.3,0.1-0.8,0.4
	c-1.9,0.9-6.3,3.3-6.9,7.2H403l-5.9-0.1c1.3-2.3,2.4-4.7,3.4-7.1c1.9-4.5,3.2-9.3,4.1-14.1c6.8-36.7-15.1-72.5-49-79.9
	c-33.9-7.4-66.9,16.4-73.7,53.1c-0.8,4.4-1.2,8.9-1.2,13.4c0,4.5,0.4,8.9,1.2,13.3c1.4,7.4,3.9,14.5,7.4,21.1
	c-4.1-1.1-13.2-4.2-13.2-4.2s-38.5-4.4-48.3-13.8l1.5-1.1l6.3-4.7l-2.9-12c-0.3-0.5-0.6-1.1-0.8-1.6c-0.8-2-1.4-5.7,1.3-10.4
	c4.1-7.1,2-32.4,2-32.4s55.7-41.7,165.5-51c0,0,2.6,2.2,8,2.7c3.7,0.3,8.6-0.2,14.9-2.7c0,0,9,4.4,47.5-19.5
	c0,0,65.6-48.8,151.6-44.4c0,0,88.5-5.8,163.9,25.8c32.5,13.6,57.2,20.8,74.8,24.6c16.3,3.5,26.5,4.2,31.2,4.2h0.1
	c1.5,0,2.4,0,2.8,0h0.1c0,0,0,10.6,0.5,23v0.1c0.2,4.3,0.4,8.9,0.8,13.4v0.3c1,12.4,2.7,23.6,5.6,25.8L906.9,525.2z"/>
<path class="st1" d="M244,510.4c0,0,24.7-20.9,55.4-16.4c0,0-28,24-40.6,22.4l-2.1-2l-12.7,0.8C243.9,515.1,242,511.9,244,510.4z"/>
<path class="st5" d="M267.9,546.5v12.3c0,0-0.8,11.8-10.7,12.2l-28,1.5l6.3-4.7l-2.9-12c-0.3-0.5-0.6-1-0.8-1.6
	c2.5-2.5,8.5-6.8,20.8-7.7L267.9,546.5z"/>
<path class="st5" d="M398.3,494.8l21.5-0.9c0,0-8.7,7.4-14.8,8.1S398.3,494.8,398.3,494.8z"/>
<path class="st5" d="M443.5,565.5c0,0,194.5-29.3,241.5-20c0,0,13.8,1,19.1,7c5.2,6,0,2.1,0,2.1L443.5,565.5z"/>
<path class="st6" d="M552.4,483.3c0,0,2.5-5,6.5-5.1l25.9-1.4c0,0-0.4,3.9-5,5.3L552.4,483.3z"/>
<path class="st6" d="M702.3,474.9c0,0,2.5-5,6.5-5.1l25.9-1.5c0,0-0.4,3.9-5,5.3L702.3,474.9z"/>
<path class="st1" d="M613.9,406.4L594,462.9l-71.7,0.1h-18.5h-16.1h-13.9h-15.7c0,0,9.6-7.6,25-17.3c5.1-3.2,10.9-6.7,17.1-10.1
	c5.8-3.2,12-6.4,18.5-9.5c5.1-2.4,10.5-4.8,15.9-6.9C559.7,409.3,587.6,402.7,613.9,406.4z"/>
<path class="st1" d="M726.5,447.7c0,0-30,4.8-58.5,8.4c-10.9,1.4-21.6,2.5-30.4,3.2l-1.2,0.1c-3.4,0.2-6.5,0.4-9.2,0.5
	c-4.2,0.1-7.4-0.1-9-0.7l8.3-54c0,0,10.2,0.1,25.3,0.9l3.3,0.2c3.1,0.2,6.4,0.4,9.9,0.7c4.9,0.4,10.1,0.8,15.5,1.3
	c25.8,2.6,55.1,7.2,73.6,15.5C793.3,441.4,726.5,447.7,726.5,447.7z"/>
<path class="st1" d="M864.6,474.9v14.4c0,0-21.5,0.3-16.9-4.3c3-3.1,5.7-6.5,8.1-10.1L864.6,474.9z"/>
<path class="st1" d="M896.8,487.8l-17.5,1.5V472c0,0,8.1-12.3,16.2,1.3l0.5,0.8L896.8,487.8z"/>
<ellipse class="st7" cx="343.2" cy="557.1" rx="50" ry="54.1"/>
<path class="st8" d="M383.3,557.1c0,24.1-17.9,43.6-40.2,43.6s-40.3-19.4-40.3-43.5c0-24.1,17.9-43.6,40.2-43.6
	c19.1,0,35.5,14.4,39.4,34.7C383,551.1,383.3,554.1,383.3,557.1z"/>
<ellipse class="st6" cx="343.2" cy="557.1" rx="34.5" ry="37.4"/>
<path class="st8" d="M354.7,515.3v1.6L343.2,558l-9.2-43.4C340.9,512.9,348,513.1,354.7,515.3L354.7,515.3z"/>
<path class="st8" d="M354.6,598.9c-6.6,2.1-13.5,2.4-20.2,0.8l8.8-41.6L354.6,598.9z"/>
<path class="st8" d="M383.3,557.1c0,4.5-0.6,9-1.9,13.4h-0.2l-38-12.4l39.3-9.8C383.1,551.2,383.3,554.1,383.3,557.1z"/>
<path class="st8" d="M343.2,558l-38,12.4H305c-2.1-7.2-2.5-14.8-1.1-22.2L343.2,558z"/>
<ellipse class="st7" cx="343.2" cy="557.1" rx="4.4" ry="4.8"/>
<ellipse class="st7" cx="792.9" cy="557.1" rx="50" ry="54.1"/>
<path class="st8" d="M833,557.1c0,24.1-17.9,43.6-40.2,43.6c-22.2,0-40.3-19.4-40.3-43.5c0-24.1,17.9-43.6,40.2-43.6
	c19.1,0,35.5,14.4,39.4,34.7C832.7,551.1,833,554.1,833,557.1z"/>
<ellipse class="st6" cx="792.9" cy="557.1" rx="34.5" ry="37.4"/>
<path class="st8" d="M804.4,515.3v1.6L792.9,558l-9.2-43.4C790.6,512.9,797.7,513.1,804.4,515.3z"/>
<path class="st8" d="M804.3,598.9c-6.6,2.1-13.5,2.4-20.2,0.8l8.8-41.6L804.3,598.9z"/>
<path class="st8" d="M833,557.1c0,4.5-0.6,9-1.9,13.4h-0.2l-38-12.4l39.3-9.8C832.8,551.1,833,554.1,833,557.1z"/>
<path class="st8" d="M792.9,558l-38,12.4h-0.3c-2.1-7.2-2.5-14.8-1.1-22.2L792.9,558z"/>
<ellipse class="st7" cx="792.9" cy="557.1" rx="4.4" ry="4.8"/>
<path class="st5" d="M500.3,435.6L487.8,463h-13.9l9.3-17.3C488.3,442.5,494.1,439.1,500.3,435.6z"/>
<path class="st5" d="M534.8,419.2L522.3,463h-18.5l15-36.9C524,423.7,529.3,421.4,534.8,419.2z"/>
<path class="st5" d="M664.8,406.9l-27.2,52.3l-1.2,0.1c-3.4,0.2-6.5,0.4-9.2,0.5l24.5-53.7l3.3,0.2
	C658,406.4,661.4,406.7,664.8,406.9z"/>
<polygon class="st9" points="458.7,462.9 443.1,578.9 573,575.8 594.3,463.4 "/>
<path class="st6" d="M700,584.6c-1.9,0.9-6.3,3.3-6.9,7.2H403l-5.9-0.1c1.3-2.3,2.4-4.7,3.4-7.1L700,584.6z"/>
<path class="st10" d="M781.4,689c1.8-1.5,3.2-3.5,3.8-5.8c0.5-2.3-0.5-5-2.7-5.9c-2.5-0.9-5.1,0.8-7.1,2.5s-4.3,3.7-6.9,3.3
	c2.7-2.5,4-6.2,3.2-9.8c-0.1-0.7-0.4-1.4-0.9-2c-1.4-1.5-3.8-0.8-5.5,0.3c-5.2,3.7-6.7,10.7-6.7,17.1c-0.5-2.3-0.1-4.7-0.1-7
	c0-2.3-0.7-5-2.6-6.2c-1.2-0.7-2.6-1-4-1c-2.3-0.1-4.9,0.2-6.5,1.9c-2,2.1-1.5,5.7,0.3,8s4.3,3.8,6.8,5.4c1.9,1.2,3.6,2.7,4.8,4.6
	c0.1,0.3,0.3,0.5,0.4,0.8h14.7C775.6,693.6,778.6,691.5,781.4,689z"/>
<path class="st10" d="M846.4,720.8c1.8-1.5,3.2-3.5,3.8-5.8c0.5-2.3-0.5-5-2.7-5.9c-2.5-0.9-5.1,0.8-7.1,2.5s-4.3,3.7-6.9,3.3
	c2.7-2.5,4-6.2,3.2-9.8c-0.1-0.7-0.4-1.4-0.9-2c-1.4-1.5-3.8-0.8-5.5,0.3c-5.2,3.7-6.7,10.7-6.7,17.1c-0.5-2.3-0.1-4.7-0.1-7
	c0-2.3-0.7-5-2.6-6.2c-1.2-0.7-2.6-1-4-1c-2.3-0.1-4.9,0.2-6.5,1.9c-2,2.1-1.5,5.7,0.3,8s4.3,3.8,6.8,5.4c1.9,1.2,3.6,2.7,4.8,4.6
	c0.1,0.3,0.3,0.5,0.4,0.8h14.7C840.6,725.4,843.6,723.3,846.4,720.8z"/>
<path class="st11" d="M578.5,535.7h-0.3C578.2,535.7,588,532.9,578.5,535.7z"/>
<path class="st11" d="M659.2,589v1.6C659.1,590,659.1,589.5,659.2,589z"/>
<path class="st11" d="M686,614.5c-5.6,1.9-11.6,1.9-17.2,0.2l-1.4-4l17.1-4C684.5,606.6,685.1,609.9,686,614.5z"/>
<g>
	<defs>
		<rect id="SVGID_1_" x="44.4" y="137.9" width="178.4" height="484"/>
	</defs>
	<clipPath id="SVGID_2_">
		<use xlink:href="#SVGID_1_"  style="overflow:visible;"/>
	</clipPath>
	<g class="st12">
		<defs>
			<rect id="SVGID_3_" x="44.4" y="137.9" width="178.4" height="484"/>
		</defs>
		<clipPath id="SVGID_4_">
			<use xlink:href="#SVGID_3_"  style="overflow:visible;"/>
		</clipPath>
		<g class="st13">
			<g>
				<defs>
					<rect id="SVGID_5_" x="111.7" y="219" width="22.8" height="22.4"/>
				</defs>
				<clipPath id="SVGID_6_">
					<use xlink:href="#SVGID_5_"  style="overflow:visible;"/>
				</clipPath>
				<rect x="111.7" y="219" class="st14" width="22.8" height="22.4"/>
			</g>
		</g>
		<g class="st13">
			<g>
				<defs>
					<rect id="SVGID_7_" x="111.7" y="274.3" width="22.8" height="22.4"/>
				</defs>
				<clipPath id="SVGID_8_">
					<use xlink:href="#SVGID_7_"  style="overflow:visible;"/>
				</clipPath>
				<rect x="111.7" y="274.3" class="st15" width="22.8" height="22.4"/>
			</g>
		</g>
		<g class="st13">
			<g>
				<defs>
					<rect id="SVGID_9_" x="111.7" y="329.6" width="22.8" height="22.4"/>
				</defs>
				<clipPath id="SVGID_10_">
					<use xlink:href="#SVGID_9_"  style="overflow:visible;"/>
				</clipPath>
				<rect x="111.7" y="329.6" class="st16" width="22.8" height="22.4"/>
			</g>
		</g>
		<g class="st13">
			<g>
				<defs>
					<rect id="SVGID_11_" x="111.7" y="384.9" width="22.8" height="22.4"/>
				</defs>
				<clipPath id="SVGID_12_">
					<use xlink:href="#SVGID_11_"  style="overflow:visible;"/>
				</clipPath>
				<rect x="111.7" y="384.9" class="st17" width="22.8" height="22.4"/>
			</g>
		</g>
		<g class="st13">
			<g>
				<defs>
					<rect id="SVGID_13_" x="111.7" y="440.1" width="22.8" height="22.4"/>
				</defs>
				<clipPath id="SVGID_14_">
					<use xlink:href="#SVGID_13_"  style="overflow:visible;"/>
				</clipPath>
				<rect x="111.7" y="440.1" class="st18" width="22.8" height="22.4"/>
			</g>
		</g>
		<g class="st13">
			<g>
				<defs>
					<rect id="SVGID_15_" x="66.4" y="597.3" width="156.4" height="24.7"/>
				</defs>
				<clipPath id="SVGID_16_">
					<use xlink:href="#SVGID_15_"  style="overflow:visible;"/>
				</clipPath>
				<path class="st19" d="M144.6,597.3c43.2,0,78.2,5.5,78.2,12.3c0,6.8-35,12.3-78.2,12.3s-78.2-5.5-78.2-12.3
					C66.4,602.8,101.4,597.3,144.6,597.3"/>
			</g>
		</g>
	</g>
	<g class="st12">
		<defs>
			<path id="SVGID_17_" d="M78.4,308.8l1.2-1.1l0.1,3.3C79,309.7,78.4,308.8,78.4,308.8 M131.9,143.7c-2.2,0.6-4.4,1.7-6.6,2.2
				c-4.9,1.1-10.5-0.1-14.7,2.6c-2.3,1.6-3.7,4-5,6.4c-1.1,2-2.1,4-3.2,5.9c-1.8,3.3-3.5,6.6-4.3,10.2c-0.2,0.8-0.3,1.6-0.3,2.4v0.9
				v0.4c0,0.3,0,0.5,0,0.8c0,0.2,0,0.3,0.1,0.5c0.1,0.2,0.1,0.5,0.1,0.8s0.1,0.7,0.2,1c0,0.1,0.1,0.3,0.1,0.4c0,0.1,0.2,0.5,0.3,0.8
				c0.1,0.3,0.1,0.3,0.2,0.4c0.1,0.3,0.3,0.5,0.4,0.8c0.1,0.1,0.1,0.2,0.2,0.3c0.2,0.4,0.5,0.7,0.7,1c1.7,2.1,4.2,3.4,6.1,5.3v0.2
				v0.6c0.2,8.8,4.9,16.9,12.5,21.7c0,0.3,0,0.6,0.1,0.9c0.2,2.3,0.1,4.6-0.1,6.9c-0.7-0.8-1.6-1.2-2.6-1.1c-0.3,0-0.7,0-1,0.1
				l-0.1-0.1v0.1c-1.7,0.4-3.9,2.2-6,7.2c0,0-6.3,6.9-11,6.6c-4.8-0.3-16.8,7.2-16.8,7.2s-11.8,7.5-14.3,15.1
				c-1.4,4.3-3.1,8.5-5.1,12.6L47.1,294l-2.7,23.3c0,0,1.5,10.3,1.2,11.9c-0.3,1.6,6.1,15.8,6.1,15.8s21.2,36.3,29.8,38.2l0.6-0.4
				c0.4,0.2,0.8,0.3,1.2,0.4l1.8-1.2c0.1,1.4,0.1,2.7-0.1,4.1c-1.2,3.6,0.5,27,2.5,31.6c2.1,4.6,1.3,64.7,1.3,64.7l-0.3,5.3
				c0,0,0,0.2,0.1,0.5l-0.1,1.3l0.2,0.1c0.2,1.7,0.2,3.4-0.2,5.1c-0.7,2.3-1,8.9-1,8.9s-6,37.2-3.1,44.6c2.8,7.5,5.2,15.6,5.2,15.6
				s3,9.3,0.1,10.9c-2.8,1.6-10.9,4.3-9.2,8.2c1.5,3.6,7.2,13.2,8.1,14.6l-0.1,0.8l-1.2,12.4c0.2,1.6,0.6,3.2,1.3,4.7
				c1.3,2.7,3.8,5.5,8.5,5.2c0.8-0.1,1.7-0.1,2.6-0.3c8.7-1.1,19.3-4.9,19.3-4.9c-0.6-0.3-1.1-0.8-1.5-1.2c-0.9-0.8-1.3-1.9-1.3-3.1
				c0.1-2.3-4.2-13-5.3-15.6l-0.2-0.6c0,0,9.8-10,8.2-18.9c0,0-10.9-6.2-7.3-9.6c3.6-3.4,10-13.2,10-13.2s0.3-36.6,0-42
				c-0.3-3.8-0.1-7.6,0.5-11.4c0.1-0.6,0.3-1.1,0.4-1.7c5,0.7,10,1.1,15,1.1c1.8,0,3.7,0,5.6-0.1c0,0.5,0,1.1,0.1,1.7
				c0.4,9.1,1.2,25,1.8,30.9c0.9,8.5,5.8,31.3,5.8,31.3s-9.4,5.9,1.6,20.4c0,0,0,5.2-0.7,6c-0.8,2.5-1.4,5-1.9,7.6
				c-0.5,2.7-0.7,5.5,0.1,6.9c1.8,3.4,12.5,3.2,12.5,3.2c0.1,0,0.2,0,0.3,0c4.1-0.4,8.2,0.8,11.4,3.3c4.1,3.2,19.5,1.8,27.9,0.8
				c3.3-0.4,5.5-0.8,5.5-0.8c0.1-0.4,0.1-0.7,0.1-1.1c-0.1-2-1.7-6.4-12.6-10.4c0,0-10.3-6.8-10.1-12.6h-0.2h-1.2c0.7,0,1.3,0,1.3,0
				s-4-14.3-2.4-15.5c1.6-1.2-3.3-17.1-3.3-17.1s-2.8-26.7-3-28.6c0-1.6,0.3-3.2,0.7-4.7l-0.7-14.6c0,0-0.1-4.9,0-6.4
				c0-1.4-0.1-2.7-0.3-4.1c-0.1-0.5-0.1-1.1-0.2-1.7c3.9-1,6.4-1.8,6.4-1.8l-0.4-50.9c3.3-6.2,3.9-19.8,3.9-29.5
				c0-6.2-0.3-10.8-0.3-10.8l4.5-7.1c0,0,1-8.5-0.6-10.4c-0.7-0.8-0.4-1.7,0.2-2.4c0.3-0.3,0.6-0.5,1-0.7c0-0.1-0.1-0.1-0.1-0.2
				c0.3-0.3,0.6-0.5,1-0.7c0,0-1.6-2.4-0.2-3.4c1.3,0.9,2.5,1.6,3.4,2.1c-0.1,0.6-0.1,0.9-0.1,0.9l0.4-0.8c0.9,0.5,1.4,0.8,1.4,0.8
				s7-13.6,6.9-15.6c-0.2-2,4.8-10.5,4.8-10.5s0.6-4.5,3.3-6.3c2.7-1.9,2.1-15.4,2.1-15.4s0.7-7,2.5-9.9c1.8-2.9-1.6-6.8-1.6-6.8
				s-3.1-0.4-3.1-4.9c0-4.4-2.2-12.8-2.2-12.8s-1.9-14.5-4.6-16.8c-2.7-2.3-6.1-15.8-6.1-15.8s-0.6-7.3-1.8-8.9
				c-1.2-1.6-2.8-5.4-5.2-10.9c-2.4-5.5-12.3-9.3-12.3-9.3s-18-10.2-23.1-13.5c-0.5-0.3-0.9-0.6-1.3-1c-0.9-1.1-4.8-1.2-4.8-1.2
				c-0.4-2.5-0.8-5.4-0.9-8v-0.8c5.7-3.3,10-8.5,12.1-14.6c0.1-0.3,0.2-0.6,0.3-0.9c0.7-0.2,1.3-0.7,1.6-1.4c0.5-1,0.5-2.2,1-3.1
				c0.7-1.1,1.9-1.7,2.9-2.5c2.5-2.1,3.2-5.6,3.1-8.8c-0.1-2.6-0.5-5.2-0.3-7.8c0-0.2,0-0.4,0-0.7c0-0.4,0.1-0.8,0.2-1.1
				c0.4-1.9,1.2-3.7,1.7-5.6c0.5-1.9,0.5-4.1-0.6-5.7c-1.6-2.4-5-2.9-8-3.1c-3.4-0.3-6.4,0.1-8.6-2.7c-1-1.4-2.1-2.8-3.4-4
				c-0.4-0.4-4.8-3-4.8-3.2c-2.6-1.2-5.4-1.8-8.1-1.8C135.5,142.9,133.7,143.2,131.9,143.7"/>
		</defs>
		<clipPath id="SVGID_18_">
			<use xlink:href="#SVGID_17_"  style="overflow:visible;"/>
		</clipPath>
		<defs>
			<filter id="Adobe_OpacityMaskFilter" filterUnits="userSpaceOnUse" x="44.4" y="142.9" width="172.7" height="477.7">
				<feColorMatrix  type="matrix" values="1 0 0 0 0  0 1 0 0 0  0 0 1 0 0  0 0 0 1 0"/>
			</filter>
		</defs>
		<mask maskUnits="userSpaceOnUse" x="44.4" y="142.9" width="172.7" height="477.7" id="SVGID_19_">
			<g class="st20">
				
					<linearGradient id="SVGID_20_" gradientUnits="userSpaceOnUse" x1="189.2284" y1="760.7276" x2="190.0169" y2="760.7276" gradientTransform="matrix(0 -605.899 605.899 0 -460793.3438 115273.9453)">
					<stop  offset="0" style="stop-color:#404040"/>
					<stop  offset="0.54" style="stop-color:#1F1F1F"/>
					<stop  offset="1" style="stop-color:#1A1A1A"/>
				</linearGradient>
				<rect x="44.4" y="142.9" class="st21" width="172.7" height="477.7"/>
			</g>
		</mask>
		
			<linearGradient id="SVGID_21_" gradientUnits="userSpaceOnUse" x1="189.2284" y1="760.7276" x2="190.0169" y2="760.7276" gradientTransform="matrix(0 -605.899 605.899 0 -460793.3438 115273.9453)">
			<stop  offset="0" style="stop-color:#808080"/>
			<stop  offset="0.54" style="stop-color:#808080"/>
			<stop  offset="1" style="stop-color:#808080"/>
		</linearGradient>
		<rect x="44.4" y="142.9" class="st22" width="172.7" height="477.7"/>
	</g>
	<g class="st12">
		<defs>
			<rect id="SVGID_22_" x="44.4" y="137.9" width="178.4" height="484"/>
		</defs>
		<clipPath id="SVGID_23_">
			<use xlink:href="#SVGID_22_"  style="overflow:visible;"/>
		</clipPath>
		<path class="st23" d="M197.8,368.4l-1.7,7.2c0,0-13.9-7-16.4-15.8c-2.5-8.8,4.2-12.2,4.2-12.2l12.9,5.4L197.8,368.4z"/>
		<g class="st24">
			<g>
				<defs>
					<rect id="SVGID_24_" x="179.1" y="347.6" width="18.7" height="28"/>
				</defs>
				<clipPath id="SVGID_25_">
					<use xlink:href="#SVGID_24_"  style="overflow:visible;"/>
				</clipPath>
				<path class="st25" d="M197.8,368.4l-1.7,7.2c0,0-13.9-7-16.4-15.8c-2.5-8.8,4.2-12.2,4.2-12.2l12.9,5.4L197.8,368.4z"/>
			</g>
		</g>
		<path class="st26" d="M119.8,615.1c0,0-12.8,4.6-21.7,5.2c-4.7,0.3-7.2-2.5-8.4-5.2c-0.7-1.5-1.1-3.1-1.3-4.7l1.2-12.5l0.6-6.6
			l18.8-4.8l2.7,8l0.2,0.6c1.1,2.7,5.3,13.5,5.2,15.8c0,1.2,0.5,2.3,1.3,3.2C118.8,614.4,119.3,614.8,119.8,615.1"/>
		<path class="st26" d="M207.5,608.7c0,0.4,0,0.8-0.1,1.1c0,0-27.5,4.5-33.1,0c-3.2-2.7-7.4-3.9-11.5-3.3c0,0-10.6,0.3-12.4-3.2
			c-0.7-1.4-0.5-4.2-0.1-7c0.5-2.6,1.1-5.1,1.9-7.7l0.4-0.3l2.5-2l29.6-0.9h0.2c-0.1,5.9,10,12.8,10,12.8
			C205.8,602.3,207.4,606.7,207.5,608.7"/>
		<g class="st24">
			<g>
				<defs>
					<rect id="SVGID_26_" x="149.9" y="596.4" width="57.6" height="15.5"/>
				</defs>
				<clipPath id="SVGID_27_">
					<use xlink:href="#SVGID_26_"  style="overflow:visible;"/>
				</clipPath>
				<path class="st27" d="M207.5,608.7c0,0.4,0,0.8-0.1,1.1c0,0-27.5,4.5-33.1,0c-3.2-2.7-7.4-3.9-11.5-3.3c0,0-10.6,0.3-12.4-3.2
					c-0.7-1.4-0.5-4.2-0.1-7c4.1,0.4,10.6,1.4,13.1,3.8c3.8,3.6,10.3,7.3,14.3,7.5C180.9,607.9,199.6,608.5,207.5,608.7"/>
			</g>
		</g>
		<path class="st28" d="M138.9,241.7c-10.6-4-24.2-17.4-20.8-23.6c0.8-1.6,1.2-3.3,1.3-5c0.2-2.4,0.3-4.7,0.1-7.1
			c-0.2-3.9-0.7-7.7-1.4-11.5c0,0,33.1,0.7,31.2,5.5c-0.6,1.4-0.7,3.8-0.5,6.6c0.2,2.7,0.6,5.8,1,8.4c0.6,3.6,1.2,6.3,1.2,6.3
			s-2,2.8-3.2,2.9C146.5,224.3,154.1,247.4,138.9,241.7"/>
		<g class="st24">
			<g>
				<defs>
					<rect id="SVGID_28_" x="89.5" y="586.4" width="22.3" height="11.7"/>
				</defs>
				<clipPath id="SVGID_29_">
					<use xlink:href="#SVGID_28_"  style="overflow:visible;"/>
				</clipPath>
				<path class="st29" d="M111.8,595l-0.2,0.3c-9.9-11.7-21.8,2.9-21.8,2.9l-0.2-0.3l0.6-6.6l18.8-4.8l2.7,8L111.8,595z"/>
			</g>
		</g>
		<g class="st24">
			<g>
				<defs>
					<rect id="SVGID_30_" x="152.2" y="585.5" width="32.8" height="5.7"/>
				</defs>
				<clipPath id="SVGID_31_">
					<use xlink:href="#SVGID_30_"  style="overflow:visible;"/>
				</clipPath>
				<path class="st30" d="M185,586.4c0,0-7.2-0.1-11.1,3.2c-3.9,3.3-22.5,0.7-21.7,0c0.2-0.4,0.4-0.8,0.4-1.2l2.5-2l29.6-0.9
					C184.9,586.1,185,586.4,185,586.4"/>
			</g>
		</g>
		<path class="st31" d="M124.1,494.2c-0.5,1.3-0.9,2.7-1.2,4c-0.7,3.8-0.9,7.6-0.6,11.5c0.3,5.5,0,42.5,0,42.5s-6.3,9.9-9.9,13.3
			c-3.5,3.5,7.2,9.7,7.2,9.7c1.6,9-8.1,19.1-8.1,19.1c-9.9-11.7-21.8,2.9-21.8,2.9s-6.5-11-8.1-15c-1.6-3.9,6.3-6.7,9.2-8.3
			s-0.1-11-0.1-11s-2.4-8.3-5.2-15.8c-2.8-7.5,3.1-45.1,3.1-45.1s0.3-6.7,1-9c0.4-1.7,0.4-3.4,0.2-5.1c0-0.6-0.1-1-0.1-1.4
			c0-0.3-0.1-0.5-0.1-0.5l0.1-0.2l4-7.3C93.7,478.6,126,489.6,124.1,494.2"/>
		<path class="st31" d="M185,585.5c0,0-7.2-0.1-11.1,3.2s-22.5,0.7-21.7,0s0.7-6.1,0.7-6.1c-10.9-14.6-1.6-20.6-1.6-20.6
			s-4.9-23-5.8-31.6c-0.6-6-1.4-22.1-1.8-31.2c-0.2-3.9-0.3-6.7-0.3-6.7l8.8-1.7l1.1-0.2l21.5-4.2c0,0,0.6,3.9,1,7.2
			c0.2,1.4,0.3,2.8,0.3,4.2c-0.1,1.6,0,6.5,0,6.5l0.7,14.8c-0.5,1.6-0.7,3.2-0.7,4.8c0.2,1.9,3,28.8,3,28.8s4.9,16.1,3.2,17.2
			C180.9,571,185,585.5,185,585.5"/>
		<g class="st24">
			<g>
				<defs>
					<rect id="SVGID_32_" x="118.1" y="194.4" width="31.2" height="15.9"/>
				</defs>
				<clipPath id="SVGID_33_">
					<use xlink:href="#SVGID_32_"  style="overflow:visible;"/>
				</clipPath>
				<path class="st32" d="M149.2,199.9c-0.6,1.4-0.7,3.8-0.5,6.6c-9,5.3-20.4,5.1-29.2-0.5c-0.2-3.9-0.7-7.7-1.4-11.5
					C118.1,194.4,151.1,195.1,149.2,199.9"/>
			</g>
		</g>
		<path class="st28" d="M162,182.5c0.2,14.9-12,27.1-27.1,27.3c-15.2,0.2-27.6-11.7-27.8-26.6v-0.6c0-14.9,12.3-27,27.5-27
			S162,167.6,162,182.5L162,182.5z"/>
		<g class="st24">
			<g>
				<defs>
					<rect id="SVGID_34_" x="117.5" y="213" width="33.3" height="29.6"/>
				</defs>
				<clipPath id="SVGID_35_">
					<use xlink:href="#SVGID_34_"  style="overflow:visible;"/>
				</clipPath>
				<path class="st33" d="M138.9,241.7c-10.6-4-24.2-17.4-20.8-23.6c0.8-1.6,1.2-3.3,1.3-5l14.5,11.7l9,7.2l6.8-17
					c0.6,3.6,1.2,6.3,1.2,6.3s-2,2.8-3.2,2.9C146.5,224.3,154.1,247.4,138.9,241.7"/>
			</g>
		</g>
		<polygon class="st23" points="176.4,293.4 164.3,493.2 148.5,494.2 107.6,378.4 114.3,240.8 115.7,211.8 133.9,226.4 142.9,233.7 
			149.9,216.1 163,227.3 		"/>
		<g class="st24">
			<g>
				<defs>
					<rect id="SVGID_36_" x="89.5" y="478.7" width="34.7" height="19.5"/>
				</defs>
				<clipPath id="SVGID_37_">
					<use xlink:href="#SVGID_36_"  style="overflow:visible;"/>
				</clipPath>
				<path class="st34" d="M124.1,494.2c-0.5,1.3-0.9,2.7-1.2,4c-11.5-1.7-22.7-5.2-33.1-10.2l-0.2-0.1l0.1-1.3V486l4-7.3
					C93.6,478.7,126,489.6,124.1,494.2"/>
			</g>
		</g>
		<g class="st24">
			<g>
				<defs>
					<rect id="SVGID_38_" x="143.5" y="490.8" width="9.2" height="8.4"/>
				</defs>
				<clipPath id="SVGID_39_">
					<use xlink:href="#SVGID_38_"  style="overflow:visible;"/>
				</clipPath>
				<path class="st35" d="M152.6,498.3c-2.9,0.5-5.9,0.8-8.9,1c-0.2-3.9-0.3-6.7-0.3-6.7l8.9-1.8L152.6,498.3z"/>
			</g>
		</g>
		<g class="st24">
			<g>
				<defs>
					<rect id="SVGID_40_" x="153.5" y="486.4" width="22.5" height="9.6"/>
				</defs>
				<clipPath id="SVGID_41_">
					<use xlink:href="#SVGID_40_"  style="overflow:visible;"/>
				</clipPath>
				<path class="st36" d="M176.1,493.5c-5.7,1.5-14.5,3.1-22.4,2.1l-0.1-5l21.5-4.2C175.1,486.4,175.6,490.3,176.1,493.5"/>
			</g>
		</g>
		<g class="st24">
			<g>
				<defs>
					<rect id="SVGID_42_" x="49.4" y="211.7" width="104.1" height="286"/>
				</defs>
				<clipPath id="SVGID_43_">
					<use xlink:href="#SVGID_42_"  style="overflow:visible;"/>
				</clipPath>
				<path class="st37" d="M153.5,496.5c-32.9,5.5-63.1-10.3-63.1-10.3l0.3-5.4c0,0,0.7-60.7-1.3-65.4c-2.1-4.7-3.7-28.2-2.5-31.8
					c1.2-3.6-4.3-58-4.3-58l-0.9-22.1l-32.3-12.9l14.4-29.6c2-4.1,3.6-8.4,5-12.8c2.5-7.7,14.2-15.2,14.2-15.2s12-7.5,16.7-7.2
					c4.7,0.3,10.9-6.7,10.9-6.7c4.6-11.5,8.7-6.3,8.7-6.3c0,0.6,0,0-0.2,1.7c-1.6,12.6,26,52.3,26.4,53l2.7,62.8l2.7,79.4
					L153.5,496.5z"/>
			</g>
		</g>
		<path class="st31" d="M158.3,496.5c-34.7,5.5-66.5-10.3-66.5-10.3l0.3-5.4c0,0,0.8-60.7-1.4-65.4c-2.2-4.7-3.9-28.3-2.6-31.9
			c1.2-3.6-4.5-58-4.5-58l-0.9-22.1l-34.1-12.9l15.2-29.6c2.1-4.1,3.8-8.4,5.3-12.8c2.6-7.7,15-15.2,15-15.2s12.6-7.5,17.6-7.2
			c5,0.3,11.5-6.7,11.5-6.7c4.8-11.5,10.2-6.3,10.2-6.3c0,0.6-0.5,0.8-0.2,1.7c3.7,12.2,26.4,52.3,26.9,53l2.8,62.8l2.7,79.5
			L158.3,496.5z"/>
		<g class="st24">
			<g>
				<defs>
					<rect id="SVGID_44_" x="113.4" y="213.5" width="30.3" height="55.8"/>
				</defs>
				<clipPath id="SVGID_45_">
					<use xlink:href="#SVGID_44_"  style="overflow:visible;"/>
				</clipPath>
				<path class="st38" d="M143.8,269.3c-3.5-1.4-22.3-22.5-22.3-22.5v-4.8c-0.7-1.6-4.7-0.6-8,0.5l1.4-29.1l1.6,1.3
					C120,227,143.4,268.6,143.8,269.3"/>
			</g>
		</g>
		<path class="st31" d="M144.6,267.6c-3.5-1.5-22.3-22.5-22.3-22.5v-4.8c-0.7-1.6-4.7-0.6-8,0.5l1.4-29l1.6,1.3
			C120.9,225.3,144.3,266.9,144.6,267.6"/>
		<g class="st24">
			<g>
				<defs>
					<rect id="SVGID_46_" x="88.7" y="370.1" width="37.4" height="44.4"/>
				</defs>
				<clipPath id="SVGID_47_">
					<use xlink:href="#SVGID_46_"  style="overflow:visible;"/>
				</clipPath>
				<path class="st39" d="M90.5,372.4c0.4,0,22.9-2.3,22.9-2.3s13.6,26.2,12.7,32.6c-0.9,6.4-2.5,12-8,11c-5.5-1-29.4,0.8-29.4,0.8
					L90.5,372.4z"/>
			</g>
		</g>
		<path class="st31" d="M89.6,370.7c0.4,0,22.9-2.3,22.9-2.3s13.6,26.3,12.7,32.6c-0.9,6.3-2.5,12-8,11c-5.5-1-29.4,0.8-29.4,0.8
			L89.6,370.7z"/>
		<path class="st28" d="M106.5,358.4c0,0,20.6,10.9,21,14.2c0.4,3.3-10.5-1.5-12.8-2c-1.6-0.4-3.1-0.6-4.7-0.7l-15.7,0.4
			L106.5,358.4z"/>
		<path class="st23" d="M190.1,371.3c0,0,1.5,2.1,0,3.1c-1.5,1,0.1,3.4,0.1,3.4s-3.7,2.1-2.1,4c1.6,1.9,0.6,10.4,0.6,10.4l-4.4,7.1
			c0,0,0.3,4.6,0.3,10.7c0,9.6-0.6,23.2-3.8,29.4l0.4,50.7c0,0-15.5,5.5-28.5,3.8l-1.9-81.3c0,0,2.8-46.1,3.8-55
			c0.6-4.6,0.9-9.2,0.7-13.9c0,0-0.4-13.8-1.9-20.3c0,0-1.6-27.8-1.8-35.6c-0.1-3.7,0.1-14.4,0.4-24.7c0.2-11.2,0.5-21.7,0.5-21.7
			l-2.9-22.4c0,0,2.9-0.3,3.8,0.9c0.4,0.4,0.8,0.7,1.3,1c5.1,3.3,22.9,13.5,22.9,13.5s9.9,3.8,12.3,9.3c2.4,5.4,4,9.3,5.2,10.9
			c1.1,1.6,1.8,8.8,1.8,8.8s3.4,13.4,6.1,15.7c2.7,2.3,4.6,16.7,4.6,16.7L184,313.6c0,0-2.1,29.7-2.5,30.8
			C181.1,345.6,190.1,371.3,190.1,371.3"/>
		<path class="st31" d="M191.4,372.4c0,0,1.4,2.1,0,3.1c-1.4,1,0.1,3.4,0.1,3.4s-3.6,2.1-2,3.9c1.6,1.9,0.6,10.3,0.6,10.3l-4.3,7.1
			c0,0,0.3,4.5,0.3,10.7c0,9.6-0.6,23-3.8,29.1l0.4,50.2c0,0-15.2,5.4-27.9,3.8l-1.9-80.6c0,0,2.7-45.7,3.8-54.5
			c0.6-4.6,0.8-9.1,0.7-13.7c0,0-0.4-13.7-1.9-20.1c0,0-1.6-27.6-1.7-35.2c-0.1-3.7,0.1-14.3,0.3-24.5c0.2-11.1,0.5-21.5,0.5-21.5
			l-3.8-22.5c0,0,3.8,0,4.7,1.1c0.4,0.4,0.8,0.7,1.3,0.9c5,3.3,22.5,13.4,22.5,13.4s9.7,3.8,12,9.2c2.4,5.4,3.9,9.2,5.1,10.8
			c1.1,1.5,1.7,8.8,1.7,8.8s3.3,13.3,5.9,15.6c2.6,2.3,4.5,16.6,4.5,16.6l-23,17.7c0,0-2,29.4-2.5,30.6
			C182.6,346.9,191.4,372.4,191.4,372.4"/>
		<g class="st24">
			<g>
				<defs>
					<rect id="SVGID_48_" x="154.1" y="216.3" width="11.9" height="49"/>
				</defs>
				<clipPath id="SVGID_49_">
					<use xlink:href="#SVGID_48_"  style="overflow:visible;"/>
				</clipPath>
				<path class="st40" d="M163.6,246.7l1.6,6.6l-8.6,12c0.2-12.3,0.4-24,0.4-24l-3-25c0,0,3,0,3.7,1.3c0.3,0.4,0.6,0.8,1,1.1
					l7.3,29.2L163.6,246.7z"/>
			</g>
		</g>
		<path class="st31" d="M162.1,247.5l2.1,7.1l-10.9,13c0.2-13.3,0.5-25.9,0.5-25.9l-3.8-27.1c0,0,3.8,0,4.7,1.4
			c0.4,0.4,0.8,0.8,1.3,1.1l9.4,31.6L162.1,247.5z"/>
		<g class="st24">
			<g>
				<defs>
					<rect id="SVGID_50_" x="107.1" y="155.5" width="54.9" height="36.7"/>
				</defs>
				<clipPath id="SVGID_51_">
					<use xlink:href="#SVGID_50_"  style="overflow:visible;"/>
				</clipPath>
				<path class="st41" d="M162,182.5c0,2.8-0.5,5.7-1.3,8.4c-0.3,0-0.6,0-0.9-0.2c-0.2-7.1-3.8-13.8-8.1-19.4
					c-1.2-1.7-2.7-3.2-4.4-4.5c-1.7-1.3-3.9-1.9-6-1.7c-2.4,0.3-4.5,1.9-7,2.1c-3.2,0.3-6.1-1.9-9.3-2c-2.6,0-5.1,1.2-6.8,3.1
					c-1.7,1.9-2.9,4.2-3.7,6.6c-1.3,3.7-1.9,7.6-2,11.5c0,2.2-0.3,5-2.3,5.8c0.3-3.3-0.8-6.5-3-9l0-0.1v-0.6c0-14.9,12.3-27,27.5-27
					S162,167.6,162,182.5L162,182.5z"/>
			</g>
		</g>
		<path class="st26" d="M145.9,139.7c-4.2-1.9-8.9-2.3-13.3-1c-2.2,0.6-4.3,1.7-6.6,2.2c-4.8,1.1-10.4-0.1-14.6,2.7
			c-2.3,1.6-3.7,4.1-5,6.5l-3.2,6c-1.7,3.3-3.5,6.6-4.2,10.2c-0.7,3.6-0.3,7.7,2,10.6c1.7,2.1,4.2,3.4,6.1,5.4c2.2,2.5,3.3,5.7,3,9
			c2.1-0.8,2.3-3.6,2.3-5.8c0.1-3.9,0.8-7.8,2-11.5c0.7-2.4,2-4.7,3.7-6.6c1.7-2,4.2-3.1,6.8-3.1c3.2,0.1,6.1,2.3,9.3,2
			c2.4-0.2,4.5-1.8,7-2.1c2.1-0.2,4.3,0.4,6,1.7c1.7,1.3,3.2,2.8,4.4,4.5c4.4,5.7,7.9,12.3,8.1,19.4c0.9,0.6,2.2-0.2,2.7-1.2
			c0.5-1,0.5-2.2,1-3.2c0.7-1.1,1.9-1.7,2.9-2.5c2.5-2.1,3.1-5.7,3-8.9c-0.1-3.2-0.7-6.5-0.1-9.7c0.4-1.9,1.2-3.8,1.7-5.7
			c0.5-1.9,0.5-4.1-0.6-5.8c-1.6-2.4-5-2.9-7.9-3.2c-3.3-0.3-6.3,0.1-8.5-2.7c-1-1.4-2.1-2.8-3.4-4.1
			C150.2,142.5,145.9,139.9,145.9,139.7"/>
		<g class="st24">
			<g>
				<defs>
					<rect id="SVGID_52_" x="47.6" y="290.7" width="65.7" height="90"/>
				</defs>
				<clipPath id="SVGID_53_">
					<use xlink:href="#SVGID_52_"  style="overflow:visible;"/>
				</clipPath>
				<path class="st42" d="M58.7,305.9l-8.4-15.2l-2.7,23.5c0,0,1.5,10.4,1.2,12c-0.3,1.6,6.1,15.9,6.1,15.9s21,36.7,29.5,38.6
					l28.9-20.3l-7.7-9.6c0,0-2.7-1-3.3,0c0,0-14.3-24.1-15.7-25.8c-1.5-1.7-1.2-5.2-1.2-5.2s-2.2-2.3-1.5-4.5s-4.2-9.7-4.2-9.7
					l4.6-4.2L58.7,305.9z"/>
			</g>
		</g>
		<path class="st31" d="M50.7,288.9l-2.2,1.7l-2.7,23.5c0,0,1.5,10.4,1.2,12c-0.3,1.6,6.1,15.9,6.1,15.9s21,36.7,29.5,38.6
			l28.9-20.3l-7.7-9.6c0,0-2.7-1-3.3,0c0,0-14.2-24.1-15.7-25.8c-1.5-1.7-1.2-5.2-1.2-5.2s-2.2-2.3-1.5-4.5c0.7-2.2-4.3-9.7-4.3-9.7
			l4.6-4.2L50.7,288.9z"/>
		<g class="st24">
			<g>
				<defs>
					<rect id="SVGID_54_" x="171.5" y="366.9" width="18.8" height="45.1"/>
				</defs>
				<clipPath id="SVGID_55_">
					<use xlink:href="#SVGID_54_"  style="overflow:visible;"/>
				</clipPath>
				<path class="st43" d="M188.2,380.9c1.6,1.9,0.6,10.5,0.6,10.5l-4.4,7.2c0,0,0.3,4.7,0.3,10.9l-7.4,2.3c-2.3,0.7-4.8-0.6-5.5-2.9
					c-0.1-0.5-0.2-0.9-0.2-1.4l1.3-40.7l17.4,6.5c-1.5,1,0.1,3.5,0.1,3.5S186.6,379,188.2,380.9"/>
			</g>
		</g>
		<path class="st31" d="M189.1,380.1c1.6,1.9,0.6,10.5,0.6,10.5l-4.4,7.2c0,0,0.3,4.6,0.3,10.9L178,411c-2.3,0.7-4.7-0.5-5.4-2.8
			c-0.1-0.5-0.2-0.9-0.2-1.4l1.3-40.8l17.4,6.5c-1.5,1,0.1,3.5,0.1,3.5S187.5,378.2,189.1,380.1"/>
		<path class="st28" d="M194.9,360.7c0,0-1.2,7.4-4.1,7.8c-3,0.4-4.3,12-7.2,11.6c-2.9-0.4-1-10.7-0.9-12.7c0.1-2-3.2-10.3-0.7-12.2
			c2.5-1.9,10.3,0,10.3,0L194.9,360.7z"/>
		<g class="st24">
			<g>
				<defs>
					<rect id="SVGID_56_" x="177.9" y="292.7" width="36.3" height="82.9"/>
				</defs>
				<clipPath id="SVGID_57_">
					<use xlink:href="#SVGID_56_"  style="overflow:visible;"/>
				</clipPath>
				<path class="st44" d="M201.1,303.7l5.6-11c0,0,2.2,8.4,2.2,12.9s3.1,4.9,3.1,4.9s3.4,3.9,1.6,6.8c-1.8,2.9-2.5,10-2.5,10
					s0.6,13.6-2.1,15.5c-2.7,1.9-3.3,6.4-3.3,6.4s-4.9,8.6-4.7,10.6c0.2,2-6.8,15.8-6.8,15.8s3.4-17.1-16.4-24.5
					c0,0-0.2-5.8,1.3-7.4c1.5-1.6,3.8-2.4,2.3-10.4c-1.4-8-0.4-17.7-0.4-19.6c0-1.9,4.4-14,4.4-14L201.1,303.7z"/>
			</g>
		</g>
		<path class="st31" d="M203.6,291.1l4.9,1.6c0,0,2.2,8.4,2.2,12.9s3.1,4.9,3.1,4.9s3.4,3.9,1.6,6.8c-1.8,2.9-2.5,10-2.5,10
			s0.6,13.6-2.1,15.5c-2.7,1.9-3.2,6.4-3.2,6.4s-4.9,8.6-4.7,10.6c0.2,2-6.8,15.8-6.8,15.8s3.4-17.1-16.4-24.5c0,0-0.1-5.8,1.3-7.4
			c1.5-1.6,3.8-2.4,2.3-10.4c-1.4-8-0.4-17.7-0.4-19.6c0-1.9,4.4-14,4.4-14L203.6,291.1z"/>
		<g class="st24">
			<g>
				<defs>
					<rect id="SVGID_58_" x="96.1" y="574.5" width="13.8" height="3.2"/>
				</defs>
				<clipPath id="SVGID_59_">
					<use xlink:href="#SVGID_58_"  style="overflow:visible;"/>
				</clipPath>
				<path class="st45" d="M96.1,577c0,0,7.8-4.8,12.8-1.3C114,579.2,96.1,577,96.1,577"/>
			</g>
		</g>
		<g class="st24">
			<g>
				<defs>
					<rect id="SVGID_60_" x="156.4" y="562.2" width="13.7" height="7.1"/>
				</defs>
				<clipPath id="SVGID_61_">
					<use xlink:href="#SVGID_60_"  style="overflow:visible;"/>
				</clipPath>
				<path class="st46" d="M156.4,562.2c0,0,6.9-0.9,12.6,5.2C174.8,573.6,156.4,562.2,156.4,562.2"/>
			</g>
		</g>
		<g class="st47">
			<g>
				<defs>
					<rect id="SVGID_62_" x="98.7" y="155.3" width="72.6" height="36.1"/>
				</defs>
				<clipPath id="SVGID_63_">
					<use xlink:href="#SVGID_62_"  style="overflow:visible;"/>
				</clipPath>
				<path class="st48" d="M166.4,181.2c-1,0.8-2.3,1.4-2.9,2.5c-0.6,1-0.6,2.1-1,3.2c-0.4,1-1.8,1.9-2.7,1.2
					c-0.2-7.1-3.8-13.8-8.1-19.4c-1.2-1.7-2.7-3.2-4.4-4.5c-1.7-1.3-3.9-1.9-6-1.7c-2.4,0.3-4.5,1.9-7,2.1c-3.2,0.3-6.1-1.9-9.3-2
					c-2.6,0-5.1,1.2-6.8,3.1c-1.7,1.9-2.9,4.2-3.7,6.6c-1.3,3.7-1.9,7.6-2,11.5c0,2.2-0.3,4.9-2.3,5.8c0,0.6,0,1.2,0,1.8
					c2.1-0.8,2.3-3.6,2.4-5.8c0.1-3.9,0.8-7.8,2-11.5c0.7-2.4,2-4.7,3.7-6.6c1.7-2,4.2-3.1,6.8-3.1c3.2,0.1,6.1,2.3,9.3,2
					c2.4-0.2,4.5-1.8,7-2.1c2.1-0.2,4.3,0.4,6,1.7c1.7,1.3,3.2,2.8,4.4,4.5c4.4,5.7,7.9,12.3,8.1,19.4c0.9,0.6,2.2-0.2,2.7-1.2
					c0.4-1,0.5-2.2,1-3.2c0.7-1.1,1.9-1.7,2.9-2.5c2.5-2.1,3.1-5.7,3-8.9v-0.3C169.3,176.5,168.5,179.3,166.4,181.2"/>
				<path class="st48" d="M107.1,180.6c-1.8-2-4.4-3.3-6.1-5.4c-1.4-1.9-2.2-4.1-2.3-6.4c-0.3,2.9,0.6,5.8,2.3,8.2
					c1.7,2.1,4.2,3.4,6.1,5.4c1.8,1.9,2.8,4.4,3,7C110.4,186.2,109.3,183,107.1,180.6"/>
				<path class="st48" d="M171,156.8c-0.5,1.9-1.3,3.8-1.7,5.7c-0.2,1.3-0.3,2.7-0.2,4c0-0.8,0.1-1.5,0.2-2.2
					c0.4-1.9,1.2-3.8,1.7-5.7c0.3-1.1,0.4-2.2,0.3-3.3C171.2,155.8,171.1,156.3,171,156.8"/>
			</g>
		</g>
	</g>
</g>
<g>
	<defs>
		<rect id="SVGID_64_" x="409" y="106.3" width="539.7" height="161.1"/>
	</defs>
	<clipPath id="SVGID_65_">
		<use xlink:href="#SVGID_64_"  style="overflow:visible;"/>
	</clipPath>
	<path class="st49" d="M434.5,106.3h488.7c14.1,0,25.5,11.3,25.5,25.3v110.5c0,13.9-11.4,25.3-25.5,25.3H434.5
		c-14.1,0-25.5-11.3-25.5-25.3V131.6C408.9,117.5,420.4,106.3,434.5,106.3"/>
</g>
<g>
	<path class="st50" d="M449.4,144.2h3.8v7.8c-2.1,2.4-5.1,3.5-9,3.5c-3.3,0-6-1.1-8.3-3.3c-2.2-2.2-3.3-5-3.3-8.4s1.1-6.2,3.4-8.4
		c2.3-2.2,5-3.4,8.2-3.4s5.9,1,8,2.9l-2,2.9c-0.9-0.8-1.7-1.3-2.6-1.6c-0.9-0.3-1.9-0.4-3.1-0.4c-2.2,0-4.1,0.7-5.7,2.2
		c-1.5,1.5-2.3,3.4-2.3,5.8c0,2.4,0.7,4.3,2.2,5.8c1.5,1.5,3.3,2.2,5.4,2.2s3.9-0.5,5.3-1.4V144.2z"/>
	<path class="st50" d="M460.7,150.1l-2.2,5.2h-4l9.8-22.7h4l9.8,22.7h-4l-2.2-5.2H460.7z M470.4,146.5l-4-9.3l-4,9.3H470.4z"/>
	<path class="st50" d="M498.5,139.9c0,3.7-1.6,6.1-4.8,7.1l5.8,8.2h-4.8l-5.3-7.6h-4.9v7.6h-3.8v-22.7h8.3c3.4,0,5.8,0.6,7.3,1.8
		C497.7,135.5,498.5,137.3,498.5,139.9z M493.5,143.1c0.8-0.7,1.1-1.7,1.1-3.2c0-1.5-0.4-2.5-1.2-3s-2.2-0.8-4.2-0.8h-4.8v8.1h4.7
		C491.3,144.1,492.7,143.8,493.5,143.1z"/>
	<path class="st50" d="M506.5,150.1l-2.2,5.2h-4l9.8-22.7h4l9.8,22.7h-4l-2.2-5.2H506.5z M516.1,146.5l-4-9.3l-4,9.3H516.1z"/>
	<path class="st50" d="M541.9,144.2h3.8v7.8c-2.1,2.4-5.1,3.5-9,3.5c-3.3,0-6-1.1-8.3-3.3c-2.2-2.2-3.3-5-3.3-8.4s1.1-6.2,3.4-8.4
		c2.3-2.2,5-3.4,8.2-3.4s5.9,1,8,2.9l-2,2.9c-0.9-0.8-1.7-1.3-2.6-1.6c-0.9-0.3-1.9-0.4-3.1-0.4c-2.2,0-4.1,0.7-5.7,2.2
		c-1.5,1.5-2.3,3.4-2.3,5.8c0,2.4,0.7,4.3,2.2,5.8c1.5,1.5,3.3,2.2,5.4,2.2s3.9-0.5,5.3-1.4V144.2z"/>
	<path class="st50" d="M565.7,132.6v3.6h-11.9v6h10.7v3.4h-10.7v6.1h12.3v3.6h-16v-22.7H565.7z"/>
</g>
<g>
	<path class="st51" d="M444.7,175.2c1,0.9,1.5,2.2,1.5,4.1c0,1.8-0.5,3.2-1.6,4c-1.1,0.9-2.7,1.3-4.8,1.3h-2.6v4.4h-2.5v-15.1h5.1
		C442,173.9,443.6,174.3,444.7,175.2z M442.9,181.4c0.5-0.5,0.8-1.3,0.8-2.4s-0.3-1.8-1-2.2c-0.6-0.4-1.6-0.6-3-0.6h-2.5v6.1h2.9
		C441.4,182.3,442.4,182,442.9,181.4z"/>
	<path class="st51" d="M461,178.8c0,2.5-1.1,4.1-3.2,4.7l3.9,5.5h-3.2l-3.5-5.1h-3.3v5.1h-2.5v-15.1h5.5c2.3,0,3.9,0.4,4.9,1.2
		C460.5,175.8,461,177.1,461,178.8z M457.7,180.9c0.5-0.4,0.8-1.2,0.8-2.2c0-1-0.3-1.7-0.8-2s-1.5-0.6-2.8-0.6h-3.2v5.4h3.1
		C456.2,181.6,457.2,181.4,457.7,180.9z"/>
	<path class="st51" d="M477,186.9c-1.5,1.5-3.4,2.2-5.6,2.2c-2.2,0-4.1-0.7-5.6-2.2s-2.2-3.4-2.2-5.6c0-2.2,0.7-4.1,2.2-5.6
		c1.5-1.5,3.4-2.2,5.6-2.2c2.2,0,4.1,0.7,5.6,2.2c1.5,1.5,2.2,3.4,2.2,5.6C479.3,183.6,478.5,185.4,477,186.9z M475.2,177.5
		c-1-1.1-2.3-1.6-3.7-1.6c-1.5,0-2.7,0.5-3.7,1.6c-1,1.1-1.5,2.4-1.5,3.9c0,1.5,0.5,2.8,1.5,3.9c1,1.1,2.3,1.6,3.7,1.6
		c1.5,0,2.7-0.5,3.7-1.6c1-1.1,1.5-2.4,1.5-3.9C476.7,179.8,476.2,178.5,475.2,177.5z"/>
	<path class="st51" d="M484.9,189h-2.5v-15.1h3.9l4.5,9.5l4.5-9.5h3.9V189h-2.5v-11.8l-5.2,10.5h-1.4l-5.2-10.5V189z"/>
	<path class="st51" d="M515.7,186.9c-1.5,1.5-3.4,2.2-5.6,2.2c-2.2,0-4.1-0.7-5.6-2.2c-1.5-1.5-2.2-3.4-2.2-5.6
		c0-2.2,0.8-4.1,2.2-5.6c1.5-1.5,3.4-2.2,5.6-2.2c2.2,0,4.1,0.7,5.6,2.2c1.5,1.5,2.3,3.4,2.3,5.6C518,183.6,517.2,185.4,515.7,186.9
		z M513.9,177.5c-1-1.1-2.3-1.6-3.7-1.6c-1.5,0-2.7,0.5-3.7,1.6c-1,1.1-1.5,2.4-1.5,3.9c0,1.5,0.5,2.8,1.5,3.9
		c1,1.1,2.3,1.6,3.7,1.6c1.5,0,2.7-0.5,3.7-1.6c1-1.1,1.5-2.4,1.5-3.9C515.4,179.8,514.9,178.5,513.9,177.5z"/>
	<path class="st51" d="M527.5,187.5c-1.1-1.1-1.6-2.5-1.6-4.3c0-1.8,0.5-3.2,1.6-4.3c1.1-1.1,2.4-1.6,3.9-1.6s2.7,0.6,3.6,1.9V173
		h2.4v16H535v-1.7c-0.9,1.3-2.2,1.9-3.8,1.9C529.8,189.2,528.5,188.6,527.5,187.5z M528.3,183.3c0,1.1,0.3,2,1,2.7
		c0.7,0.7,1.5,1,2.4,1c0.9,0,1.7-0.3,2.4-1s1-1.6,1-2.7c0-1.1-0.3-2-1-2.7c-0.7-0.7-1.5-1.1-2.4-1.1c-0.9,0-1.8,0.4-2.4,1.1
		C528.6,181.3,528.3,182.2,528.3,183.3z"/>
	<path class="st51" d="M548.8,183.7v-6.2h2.4V189h-2.4v-2.1c-0.4,0.7-0.9,1.3-1.6,1.7c-0.7,0.4-1.4,0.6-2.2,0.6
		c-1.3,0-2.3-0.4-3.1-1.2c-0.8-0.8-1.2-1.9-1.2-3.4v-7h2.4v6.3c0,2.1,0.9,3.2,2.6,3.2c0.8,0,1.5-0.3,2.1-0.8
		S548.8,184.8,548.8,183.7z"/>
	<path class="st51" d="M561.4,187c-1-1.4-1.5-3.3-1.5-5.7c0-2.4,0.5-4.3,1.5-5.7c1-1.4,2.5-2.1,4.5-2.1c2,0,3.5,0.7,4.5,2.1
		c1,1.4,1.5,3.3,1.5,5.7c0,2.4-0.5,4.3-1.5,5.7c-1,1.4-2.5,2.1-4.5,2.1C563.9,189.2,562.4,188.5,561.4,187z M563.2,177.3
		c-0.6,1-0.9,2.4-0.9,4.1c0,1.7,0.3,3,0.9,4.1c0.6,1,1.5,1.6,2.7,1.6c1.2,0,2.2-0.5,2.7-1.5s0.9-2.4,0.9-4.1s-0.3-3.1-0.9-4.1
		c-0.6-1-1.5-1.5-2.7-1.5C564.7,175.7,563.8,176.2,563.2,177.3z"/>
	<path class="st51" d="M573.9,173.9h5.4V189h-2.4v-12.8h-3V173.9z"/>
	<path class="st51" d="M591.1,171.5h2.1l-9.2,20.1h-2.1L591.1,171.5z"/>
	<path class="st51" d="M596.6,187c-1-1.4-1.5-3.3-1.5-5.7c0-2.4,0.5-4.3,1.5-5.7c1-1.4,2.5-2.1,4.5-2.1c2,0,3.5,0.7,4.5,2.1
		c1,1.4,1.5,3.3,1.5,5.7c0,2.4-0.5,4.3-1.5,5.7c-1,1.4-2.5,2.1-4.5,2.1C599.1,189.2,597.6,188.5,596.6,187z M598.4,177.3
		c-0.6,1-0.9,2.4-0.9,4.1c0,1.7,0.3,3,0.9,4.1c0.6,1,1.5,1.6,2.7,1.6c1.2,0,2.2-0.5,2.7-1.5s0.9-2.4,0.9-4.1s-0.3-3.1-0.9-4.1
		c-0.6-1-1.5-1.5-2.7-1.5C599.9,175.7,598.9,176.2,598.4,177.3z"/>
	<path class="st51" d="M609.4,178.2v-4.3h10.4v2.3l-6.3,12.8h-2.8l6.1-12.8h-5.3v2H609.4z"/>
	<path class="st51" d="M637.1,189h-2.2v-1.5c-0.9,1.1-2.2,1.7-3.8,1.7c-1.2,0-2.1-0.3-2.9-1c-0.8-0.7-1.2-1.6-1.2-2.7s0.4-2,1.2-2.5
		c0.8-0.6,1.9-0.8,3.3-0.8h3.1v-0.4c0-1.5-0.8-2.3-2.5-2.3c-1,0-2.1,0.4-3.3,1.2l-1.1-1.5c1.4-1.1,2.9-1.7,4.7-1.7
		c1.3,0,2.4,0.3,3.3,1c0.8,0.7,1.3,1.8,1.3,3.2V189z M634.7,184.7v-1H632c-1.7,0-2.6,0.5-2.6,1.6c0,0.6,0.2,1,0.6,1.3
		c0.4,0.3,1,0.4,1.8,0.4s1.4-0.2,2-0.6C634.4,186,634.7,185.5,634.7,184.7z"/>
	<path class="st51" d="M648.3,183.7v-6.2h2.4V189h-2.4v-2.1c-0.4,0.7-0.9,1.3-1.6,1.7c-0.7,0.4-1.4,0.6-2.2,0.6
		c-1.3,0-2.3-0.4-3.1-1.2c-0.8-0.8-1.2-1.9-1.2-3.4v-7h2.4v6.3c0,2.1,0.9,3.2,2.6,3.2c0.8,0,1.5-0.3,2.1-0.8
		S648.3,184.8,648.3,183.7z"/>
	<path class="st51" d="M661,187c-1-1.4-1.5-3.3-1.5-5.7c0-2.4,0.5-4.3,1.5-5.7c1-1.4,2.5-2.1,4.5-2.1c2,0,3.5,0.7,4.5,2.1
		c1,1.4,1.5,3.3,1.5,5.7c0,2.4-0.5,4.3-1.5,5.7c-1,1.4-2.5,2.1-4.5,2.1C663.5,189.2,662,188.5,661,187z M662.8,177.3
		c-0.6,1-0.9,2.4-0.9,4.1c0,1.7,0.3,3,0.9,4.1c0.6,1,1.5,1.6,2.7,1.6c1.2,0,2.2-0.5,2.7-1.5s0.9-2.4,0.9-4.1s-0.3-3.1-0.9-4.1
		c-0.6-1-1.5-1.5-2.7-1.5C664.3,175.7,663.3,176.2,662.8,177.3z"/>
	<path class="st51" d="M673.4,173.9h5.4V189h-2.4v-12.8h-3V173.9z"/>
	<path class="st51" d="M690.7,171.5h2.1l-9.2,20.1h-2.1L690.7,171.5z"/>
	<path class="st51" d="M696.1,187c-1-1.4-1.5-3.3-1.5-5.7c0-2.4,0.5-4.3,1.5-5.7c1-1.4,2.5-2.1,4.5-2.1c2,0,3.5,0.7,4.5,2.1
		c1,1.4,1.5,3.3,1.5,5.7c0,2.4-0.5,4.3-1.5,5.7c-1,1.4-2.5,2.1-4.5,2.1C698.6,189.2,697.1,188.5,696.1,187z M697.9,177.3
		c-0.6,1-0.9,2.4-0.9,4.1c0,1.7,0.3,3,0.9,4.1c0.6,1,1.5,1.6,2.7,1.6c1.2,0,2.2-0.5,2.7-1.5s0.9-2.4,0.9-4.1s-0.3-3.1-0.9-4.1
		c-0.6-1-1.5-1.5-2.7-1.5C699.4,175.7,698.5,176.2,697.9,177.3z"/>
	<path class="st51" d="M711.1,174.7c0.9-0.8,2.1-1.1,3.6-1.1s2.6,0.4,3.6,1.1c0.9,0.8,1.4,1.7,1.4,2.9c0,1.2-0.5,2.2-1.6,3.1
		c1.4,0.9,2.1,2.2,2.1,3.9c0,1.3-0.5,2.4-1.5,3.3c-1,0.9-2.4,1.3-4,1.3s-3-0.4-4-1.3c-1-0.9-1.5-2-1.5-3.3c0-1.7,0.7-3,2.1-3.9
		c-1.1-0.9-1.6-1.9-1.6-3.1C709.7,176.5,710.2,175.5,711.1,174.7z M712.6,186.3c0.7,0.4,1.3,0.6,2.1,0.6s1.4-0.2,2.1-0.6
		c0.7-0.4,1-1,1-1.8s-0.3-1.4-0.9-1.8c-0.6-0.4-1.3-0.6-2.1-0.6c-0.8,0-1.5,0.2-2.1,0.6c-0.6,0.4-0.9,1-0.9,1.8
		S712,185.9,712.6,186.3z M712.8,179.5c0.5,0.4,1.2,0.7,1.9,0.7s1.3-0.2,1.9-0.7s0.8-1,0.8-1.6c0-0.6-0.3-1.2-0.8-1.6
		c-0.5-0.4-1.2-0.6-1.9-0.6s-1.3,0.2-1.9,0.6c-0.5,0.4-0.8,1-0.8,1.6C712,178.5,712.3,179,712.8,179.5z"/>
	<path class="st51" d="M729.2,183.4c-0.3-0.3-0.5-0.7-0.5-1.1c0-0.4,0.2-0.8,0.5-1.1c0.3-0.3,0.7-0.5,1.1-0.5s0.8,0.2,1.1,0.5
		s0.5,0.7,0.5,1.1c0,0.4-0.2,0.8-0.5,1.1s-0.7,0.5-1.1,0.5S729.5,183.7,729.2,183.4z M729.2,188.7c-0.3-0.3-0.5-0.7-0.5-1.1
		s0.2-0.8,0.5-1.1c0.3-0.3,0.7-0.5,1.1-0.5s0.8,0.2,1.1,0.5c0.3,0.3,0.5,0.7,0.5,1.1s-0.2,0.8-0.5,1.1s-0.7,0.5-1.1,0.5
		S729.5,189,729.2,188.7z"/>
	<path class="st51" d="M751.4,175.2c1,0.9,1.5,2.2,1.5,4.1c0,1.8-0.5,3.2-1.6,4c-1.1,0.9-2.7,1.3-4.8,1.3h-2.6v4.4h-2.5v-15.1h5.1
		C748.7,173.9,750.3,174.3,751.4,175.2z M749.6,181.4c0.5-0.5,0.8-1.3,0.8-2.4s-0.3-1.8-1-2.2c-0.6-0.4-1.6-0.6-3-0.6h-2.5v6.1h2.9
		C748.1,182.3,749.1,182,749.6,181.4z"/>
	<path class="st51" d="M757.9,189h-2.4v-16h2.4V189z"/>
	<path class="st51" d="M770.5,189h-2.2v-1.5c-0.9,1.1-2.2,1.7-3.8,1.7c-1.2,0-2.1-0.3-2.9-1c-0.8-0.7-1.2-1.6-1.2-2.7s0.4-2,1.2-2.5
		c0.8-0.6,1.9-0.8,3.3-0.8h3.1v-0.4c0-1.5-0.8-2.3-2.5-2.3c-1,0-2.1,0.4-3.3,1.2l-1.1-1.5c1.4-1.1,2.9-1.7,4.7-1.7
		c1.3,0,2.4,0.3,3.3,1c0.8,0.7,1.3,1.8,1.3,3.2V189z M768.1,184.7v-1h-2.7c-1.7,0-2.6,0.5-2.6,1.6c0,0.6,0.2,1,0.6,1.3
		c0.4,0.3,1,0.4,1.8,0.4s1.4-0.2,2-0.6C767.8,186,768.1,185.5,768.1,184.7z"/>
	<path class="st51" d="M778.4,189.2c-1.4,0-2.7-0.6-3.7-1.7c-1.1-1.1-1.6-2.6-1.6-4.3s0.5-3.2,1.6-4.3c1.1-1.1,2.4-1.6,3.9-1.6
		s2.7,0.7,3.7,2.2v-2h2.4v15.7h-2.4v-5.9C781.1,188.5,779.8,189.2,778.4,189.2z M775.4,183.3c0,1.1,0.3,2,1,2.7c0.7,0.7,1.5,1,2.4,1
		c0.9,0,1.7-0.3,2.4-1c0.7-0.7,1-1.6,1-2.7c0-1.1-0.3-2-1-2.7c-0.7-0.7-1.5-1.1-2.4-1.1c-0.9,0-1.8,0.4-2.4,1.1
		C775.8,181.3,775.4,182.2,775.4,183.3z"/>
	<path class="st51" d="M795.9,183.7v-6.2h2.4V189h-2.4v-2.1c-0.4,0.7-0.9,1.3-1.6,1.7c-0.7,0.4-1.4,0.6-2.2,0.6
		c-1.3,0-2.3-0.4-3.1-1.2c-0.8-0.8-1.2-1.9-1.2-3.4v-7h2.4v6.3c0,2.1,0.9,3.2,2.6,3.2c0.8,0,1.5-0.3,2.1-0.8
		S795.9,184.8,795.9,183.7z"/>
	<path class="st51" d="M812.3,184.3h-8.8c0.1,0.8,0.4,1.5,1.1,2c0.7,0.5,1.5,0.8,2.4,0.8c1.4,0,2.5-0.5,3.2-1.4l1.4,1.5
		c-1.2,1.3-2.8,1.9-4.8,1.9c-1.6,0-2.9-0.5-4-1.6s-1.7-2.5-1.7-4.3s0.6-3.2,1.7-4.3c1.1-1.1,2.5-1.6,4-1.6c1.5,0,2.8,0.5,3.9,1.4
		c1.1,0.9,1.6,2.2,1.6,3.9V184.3z M803.4,182.4h6.5c0-1-0.3-1.7-0.9-2.2c-0.6-0.5-1.3-0.8-2.2-0.8s-1.7,0.3-2.3,0.8
		C803.8,180.8,803.4,181.5,803.4,182.4z"/>
	<path class="st51" d="M817.8,179.4v5.8c0,0.5,0.1,1,0.4,1.3s0.7,0.5,1.2,0.5c0.5,0,1-0.3,1.5-0.8l1,1.7c-0.8,0.8-1.8,1.1-2.8,1.1
		s-1.9-0.4-2.6-1.1c-0.7-0.7-1.1-1.7-1.1-2.9v-5.8H814v-1.9h1.4v-3.6h2.4v3.6h3v1.9H817.8z"/>
	<path class="st51" d="M826.7,179.4v5.8c0,0.5,0.1,1,0.4,1.3s0.7,0.5,1.2,0.5c0.5,0,1-0.3,1.5-0.8l1,1.7c-0.8,0.8-1.8,1.1-2.8,1.1
		s-1.9-0.4-2.6-1.1c-0.7-0.7-1.1-1.7-1.1-2.9v-5.8h-1.4v-1.9h1.4v-3.6h2.4v3.6h3v1.9H826.7z"/>
	<path class="st51" d="M843.1,184.3h-8.8c0.1,0.8,0.4,1.5,1.1,2c0.7,0.5,1.5,0.8,2.4,0.8c1.4,0,2.5-0.5,3.2-1.4l1.4,1.5
		c-1.2,1.3-2.8,1.9-4.8,1.9c-1.6,0-2.9-0.5-4-1.6s-1.7-2.5-1.7-4.3s0.6-3.2,1.7-4.3c1.1-1.1,2.5-1.6,4-1.6c1.5,0,2.8,0.5,3.9,1.4
		c1.1,0.9,1.6,2.2,1.6,3.9V184.3z M834.3,182.4h6.5c0-1-0.3-1.7-0.9-2.2c-0.6-0.5-1.3-0.8-2.2-0.8s-1.7,0.3-2.3,0.8
		C834.6,180.8,834.3,181.5,834.3,182.4z"/>
	<path class="st51" d="M853.8,185.6c0,1.1-0.4,2-1.2,2.6c-0.8,0.7-1.8,1-3,1c-0.8,0-1.7-0.2-2.6-0.5c-0.9-0.3-1.7-0.7-2.3-1.3
		l1.1-1.9c1.3,1,2.6,1.5,3.8,1.5c0.5,0,1-0.1,1.3-0.4c0.3-0.3,0.5-0.6,0.5-1c0-0.6-0.8-1.1-2.3-1.6c-0.1,0-0.2-0.1-0.3-0.1
		c-2.3-0.6-3.5-1.7-3.5-3.2c0-1.1,0.4-1.9,1.2-2.6s1.9-1,3.2-1s2.5,0.4,3.7,1.2l-0.9,1.8c-0.9-0.6-1.9-0.9-3-0.9
		c-0.6,0-1,0.1-1.4,0.3c-0.4,0.2-0.5,0.5-0.5,0.9c0,0.4,0.2,0.6,0.6,0.8c0.3,0.1,0.6,0.3,1.1,0.4c0.5,0.1,0.9,0.2,1.2,0.3
		s0.7,0.2,1,0.4c0.3,0.1,0.7,0.3,1.1,0.6C853.4,183.7,853.8,184.5,853.8,185.6z"/>
	<path class="st51" d="M863.1,187.5c-1.1-1.1-1.6-2.5-1.6-4.3c0-1.8,0.5-3.2,1.6-4.3c1.1-1.1,2.4-1.6,3.9-1.6s2.7,0.6,3.6,1.9V173
		h2.4v16h-2.4v-1.7c-0.9,1.3-2.2,1.9-3.8,1.9C865.4,189.2,864.2,188.6,863.1,187.5z M863.9,183.3c0,1.1,0.3,2,1,2.7
		c0.7,0.7,1.5,1,2.4,1c0.9,0,1.7-0.3,2.4-1s1-1.6,1-2.7c0-1.1-0.3-2-1-2.7c-0.7-0.7-1.5-1.1-2.4-1.1c-0.9,0-1.8,0.4-2.4,1.1
		C864.3,181.3,863.9,182.2,863.9,183.3z"/>
	<path class="st51" d="M887,184.3h-8.8c0.1,0.8,0.4,1.5,1.1,2c0.7,0.5,1.5,0.8,2.4,0.8c1.4,0,2.5-0.5,3.2-1.4l1.4,1.5
		c-1.2,1.3-2.8,1.9-4.8,1.9c-1.6,0-2.9-0.5-4-1.6s-1.7-2.5-1.7-4.3s0.6-3.2,1.7-4.3c1.1-1.1,2.5-1.6,4-1.6c1.5,0,2.8,0.5,3.9,1.4
		c1.1,0.9,1.6,2.2,1.6,3.9V184.3z M878.2,182.4h6.5c0-1-0.3-1.7-0.9-2.2c-0.6-0.5-1.3-0.8-2.2-0.8s-1.7,0.3-2.3,0.8
		C878.5,180.8,878.2,181.5,878.2,182.4z"/>
	<path class="st51" d="M898.4,176.5v1h3v1.9h-3v9.6H896v-9.6h-1.4v-1.9h1.4v-0.9c0-1.2,0.4-2.2,1.1-2.9c0.7-0.7,1.6-1.1,2.6-1.1
		s1.9,0.4,2.8,1.1l-1,1.7c-0.5-0.5-1-0.8-1.5-0.8c-0.5,0-0.9,0.2-1.2,0.5S898.4,176,898.4,176.5z"/>
	<path class="st51" d="M909.6,179.8c-1.2,0-2.1,0.4-2.7,1.2c-0.6,0.8-0.9,1.8-0.9,3.1v4.9h-2.4v-11.5h2.4v2.3
		c0.4-0.7,0.9-1.3,1.6-1.8c0.7-0.5,1.4-0.7,2.1-0.7l0,2.4C909.7,179.8,909.6,179.8,909.6,179.8z"/>
	<path class="st51" d="M922.6,184.3h-8.8c0.1,0.8,0.4,1.5,1.1,2c0.7,0.5,1.5,0.8,2.4,0.8c1.4,0,2.5-0.5,3.2-1.4l1.4,1.5
		c-1.2,1.3-2.8,1.9-4.8,1.9c-1.6,0-2.9-0.5-4-1.6s-1.7-2.5-1.7-4.3s0.6-3.2,1.7-4.3c1.1-1.1,2.5-1.6,4-1.6c1.5,0,2.8,0.5,3.9,1.4
		c1.1,0.9,1.6,2.2,1.6,3.9V184.3z M913.7,182.4h6.5c0-1-0.3-1.7-0.9-2.2c-0.6-0.5-1.3-0.8-2.2-0.8s-1.7,0.3-2.3,0.8
		C914.1,180.8,913.7,181.5,913.7,182.4z"/>
	<path class="st51" d="M925.3,175.2c-0.3-0.3-0.4-0.7-0.4-1.1s0.1-0.8,0.4-1.1s0.7-0.5,1.1-0.5c0.4,0,0.8,0.2,1.1,0.5
		s0.4,0.7,0.4,1.1s-0.1,0.8-0.4,1.1c-0.3,0.3-0.7,0.5-1.1,0.5C926,175.7,925.6,175.5,925.3,175.2z M927.6,189h-2.4v-11.5h2.4V189z"
		/>
	<path class="st51" d="M933.4,182.8v6.2H931v-11.5h2.4v2.1c0.4-0.7,0.9-1.3,1.6-1.7c0.7-0.4,1.4-0.6,2.2-0.6c1.3,0,2.3,0.4,3.1,1.2
		c0.8,0.8,1.2,1.9,1.2,3.4v7H939v-6.3c0-2.1-0.9-3.2-2.6-3.2c-0.8,0-1.5,0.3-2.1,0.8S933.4,181.7,933.4,182.8z"/>
	<path class="st51" d="M443.8,213.4c-1.1,1.1-2.5,1.7-4.2,1.7c-1.7,0-3.1-0.6-4.2-1.7c-1.1-1.1-1.7-2.5-1.7-4.2s0.6-3.1,1.7-4.2
		c1.1-1.1,2.5-1.7,4.2-1.7c1.7,0,3.1,0.6,4.2,1.7c1.1,1.1,1.7,2.5,1.7,4.2S444.9,212.2,443.8,213.4z M437,211.9c0.7,0.7,1.5,1,2.6,1
		c1,0,1.9-0.3,2.6-1c0.7-0.7,1-1.6,1-2.7s-0.3-2-1-2.7c-0.7-0.7-1.5-1-2.6-1c-1,0-1.9,0.3-2.6,1c-0.7,0.7-1,1.6-1,2.7
		S436.3,211.2,437,211.9z"/>
	<path class="st51" d="M451.1,202.5v1h3v1.9h-3v9.6h-2.4v-9.6h-1.4v-1.9h1.4v-0.9c0-1.2,0.4-2.2,1.1-2.9c0.7-0.7,1.6-1.1,2.6-1.1
		c1,0,1.9,0.4,2.8,1.1l-1,1.7c-0.5-0.5-1-0.8-1.5-0.8s-0.9,0.2-1.2,0.5C451.2,201.5,451.1,201.9,451.1,202.5z"/>
	<path class="st51" d="M459.3,202.5v1h3v1.9h-3v9.6h-2.4v-9.6h-1.4v-1.9h1.4v-0.9c0-1.2,0.4-2.2,1.1-2.9c0.7-0.7,1.6-1.1,2.6-1.1
		c1,0,1.9,0.4,2.8,1.1l-1,1.7c-0.5-0.5-1-0.8-1.5-0.8s-0.9,0.2-1.2,0.5C459.4,201.5,459.3,201.9,459.3,202.5z"/>
	<path class="st51" d="M475,210.2h-8.8c0.1,0.8,0.4,1.5,1.1,2c0.7,0.5,1.5,0.8,2.4,0.8c1.4,0,2.5-0.5,3.2-1.4l1.4,1.5
		c-1.2,1.3-2.8,1.9-4.8,1.9c-1.6,0-2.9-0.5-4-1.6c-1.1-1.1-1.7-2.5-1.7-4.3s0.6-3.2,1.7-4.3c1.1-1.1,2.5-1.6,4-1.6s2.8,0.5,3.9,1.4
		c1.1,0.9,1.6,2.2,1.6,3.9V210.2z M466.2,208.3h6.5c0-1-0.3-1.7-0.9-2.2c-0.6-0.5-1.3-0.8-2.2-0.8c-0.9,0-1.7,0.3-2.3,0.8
		C466.5,206.7,466.2,207.4,466.2,208.3z"/>
	<path class="st51" d="M483.6,205.7c-1.2,0-2.1,0.4-2.7,1.2s-0.9,1.8-0.9,3.1v4.9h-2.4v-11.5h2.4v2.3c0.4-0.7,0.9-1.3,1.6-1.8
		s1.4-0.7,2.1-0.7l0,2.4C483.6,205.7,483.6,205.7,483.6,205.7z"/>
	<path class="st51" d="M489,205.4v5.8c0,0.5,0.1,1,0.4,1.3c0.3,0.3,0.7,0.5,1.2,0.5s1-0.3,1.5-0.8l1,1.7c-0.8,0.8-1.8,1.1-2.8,1.1
		c-1,0-1.9-0.4-2.6-1.1c-0.7-0.7-1.1-1.7-1.1-2.9v-5.8h-1.4v-1.9h1.4v-3.6h2.4v3.6h3v1.9H489z"/>
	<path class="st51" d="M505.4,210.2h-8.8c0.1,0.8,0.4,1.5,1.1,2c0.7,0.5,1.5,0.8,2.4,0.8c1.4,0,2.5-0.5,3.2-1.4l1.4,1.5
		c-1.2,1.3-2.8,1.9-4.8,1.9c-1.6,0-2.9-0.5-4-1.6c-1.1-1.1-1.7-2.5-1.7-4.3s0.6-3.2,1.7-4.3c1.1-1.1,2.5-1.6,4-1.6s2.8,0.5,3.9,1.4
		c1.1,0.9,1.6,2.2,1.6,3.9V210.2z M496.6,208.3h6.5c0-1-0.3-1.7-0.9-2.2c-0.6-0.5-1.3-0.8-2.2-0.8c-0.9,0-1.7,0.3-2.3,0.8
		C496.9,206.7,496.6,207.4,496.6,208.3z"/>
	<path class="st51" d="M516.1,211.5c0,1.1-0.4,2-1.2,2.6c-0.8,0.7-1.8,1-3,1c-0.8,0-1.7-0.2-2.6-0.5c-0.9-0.3-1.7-0.7-2.3-1.3
		l1.1-1.9c1.3,1,2.6,1.5,3.8,1.5c0.5,0,1-0.1,1.3-0.4s0.5-0.6,0.5-1c0-0.6-0.8-1.1-2.2-1.6c-0.1,0-0.2-0.1-0.3-0.1
		c-2.3-0.6-3.5-1.7-3.5-3.2c0-1.1,0.4-1.9,1.2-2.6c0.8-0.6,1.9-1,3.2-1s2.5,0.4,3.7,1.2l-0.9,1.8c-0.9-0.6-1.9-0.9-3-0.9
		c-0.6,0-1,0.1-1.4,0.3c-0.4,0.2-0.5,0.5-0.5,0.9c0,0.4,0.2,0.6,0.6,0.8c0.3,0.1,0.6,0.3,1.1,0.4c0.5,0.1,0.9,0.2,1.2,0.3
		c0.4,0.1,0.7,0.2,1,0.4s0.7,0.3,1.1,0.6C515.7,209.6,516.1,210.4,516.1,211.5z"/>
	<path class="st51" d="M535.1,210.2h-8.8c0.1,0.8,0.4,1.5,1.1,2c0.7,0.5,1.5,0.8,2.4,0.8c1.4,0,2.5-0.5,3.2-1.4l1.4,1.5
		c-1.2,1.3-2.8,1.9-4.8,1.9c-1.6,0-2.9-0.5-4-1.6s-1.7-2.5-1.7-4.3s0.6-3.2,1.7-4.3c1.1-1.1,2.5-1.6,4-1.6c1.5,0,2.8,0.5,3.9,1.4
		c1.1,0.9,1.6,2.2,1.6,3.9V210.2z M526.3,208.3h6.5c0-1-0.3-1.7-0.9-2.2c-0.6-0.5-1.3-0.8-2.2-0.8s-1.7,0.3-2.3,0.8
		C526.6,206.7,526.3,207.4,526.3,208.3z"/>
	<path class="st51" d="M540.1,208.7v6.2h-2.4v-11.5h2.4v2.1c0.4-0.7,0.9-1.3,1.6-1.7c0.7-0.4,1.4-0.6,2.2-0.6c1.3,0,2.3,0.4,3.1,1.2
		c0.8,0.8,1.2,1.9,1.2,3.4v7h-2.4v-6.3c0-2.1-0.9-3.2-2.6-3.2c-0.8,0-1.5,0.3-2.1,0.8S540.1,207.6,540.1,208.7z"/>
	<path class="st51" d="M562.2,215.1c-1.6,0-2.9-0.5-4.1-1.6c-1.1-1.1-1.7-2.5-1.7-4.3c0-1.8,0.6-3.2,1.8-4.3
		c1.2-1.1,2.6-1.7,4.3-1.7s3.1,0.6,4.3,1.8l-1.4,1.8c-1-0.9-2-1.3-3-1.3s-1.8,0.3-2.6,1c-0.7,0.7-1.1,1.5-1.1,2.6
		c0,1.1,0.4,2,1.1,2.7c0.7,0.7,1.6,1.1,2.7,1.1s2-0.5,3-1.5l1.4,1.6C565.6,214.4,564,215.1,562.2,215.1z"/>
	<path class="st51" d="M578.6,214.9h-2.2v-1.5c-0.9,1.1-2.2,1.7-3.8,1.7c-1.2,0-2.1-0.3-2.9-1c-0.8-0.7-1.2-1.6-1.2-2.7
		s0.4-2,1.2-2.5c0.8-0.6,1.9-0.8,3.3-0.8h3.1v-0.4c0-1.5-0.8-2.3-2.5-2.3c-1,0-2.1,0.4-3.3,1.2l-1.1-1.5c1.4-1.1,2.9-1.7,4.7-1.7
		c1.3,0,2.4,0.3,3.3,1c0.8,0.7,1.3,1.8,1.3,3.2V214.9z M576.2,210.7v-1h-2.7c-1.7,0-2.6,0.5-2.6,1.6c0,0.6,0.2,1,0.6,1.3
		c0.4,0.3,1,0.4,1.8,0.4s1.4-0.2,2-0.6C575.9,212,576.2,211.4,576.2,210.7z"/>
	<path class="st51" d="M590,211.5c0,1.1-0.4,2-1.2,2.6c-0.8,0.7-1.8,1-3,1c-0.8,0-1.7-0.2-2.6-0.5c-0.9-0.3-1.7-0.7-2.3-1.3l1.1-1.9
		c1.3,1,2.6,1.5,3.8,1.5c0.5,0,1-0.1,1.3-0.4c0.3-0.3,0.5-0.6,0.5-1c0-0.6-0.8-1.1-2.3-1.6c-0.1,0-0.2-0.1-0.3-0.1
		c-2.3-0.6-3.5-1.7-3.5-3.2c0-1.1,0.4-1.9,1.2-2.6s1.9-1,3.2-1s2.5,0.4,3.7,1.2l-0.9,1.8c-0.9-0.6-1.9-0.9-3-0.9
		c-0.6,0-1,0.1-1.4,0.3c-0.4,0.2-0.5,0.5-0.5,0.9c0,0.4,0.2,0.6,0.6,0.8c0.3,0.1,0.6,0.3,1.1,0.4c0.5,0.1,0.9,0.2,1.2,0.3
		s0.7,0.2,1,0.4c0.3,0.1,0.7,0.3,1.1,0.6C589.6,209.6,590,210.4,590,211.5z"/>
	<path class="st51" d="M599.3,213.5c-1.1-1.1-1.6-2.5-1.6-4.3c0-1.8,0.5-3.2,1.6-4.3c1.1-1.1,2.4-1.6,3.9-1.6s2.7,0.6,3.6,1.9v-6.3
		h2.4v16h-2.4v-1.7c-0.9,1.3-2.2,1.9-3.8,1.9C601.6,215.1,600.4,214.6,599.3,213.5z M600.1,209.2c0,1.1,0.3,2,1,2.7
		c0.7,0.7,1.5,1,2.4,1c0.9,0,1.7-0.3,2.4-1s1-1.6,1-2.7c0-1.1-0.3-2-1-2.7c-0.7-0.7-1.5-1.1-2.4-1.1c-0.9,0-1.8,0.4-2.4,1.1
		C600.5,207.2,600.1,208.1,600.1,209.2z"/>
	<path class="st51" d="M623.2,210.2h-8.8c0.1,0.8,0.4,1.5,1.1,2c0.7,0.5,1.5,0.8,2.4,0.8c1.4,0,2.5-0.5,3.2-1.4l1.4,1.5
		c-1.2,1.3-2.8,1.9-4.8,1.9c-1.6,0-2.9-0.5-4-1.6s-1.7-2.5-1.7-4.3s0.6-3.2,1.7-4.3c1.1-1.1,2.5-1.6,4-1.6c1.5,0,2.8,0.5,3.9,1.4
		c1.1,0.9,1.6,2.2,1.6,3.9V210.2z M614.4,208.3h6.5c0-1-0.3-1.7-0.9-2.2c-0.6-0.5-1.3-0.8-2.2-0.8s-1.7,0.3-2.3,0.8
		C614.7,206.7,614.4,207.4,614.4,208.3z"/>
	<path class="st51" d="M637.6,205.7c-1.2,0-2.1,0.4-2.7,1.2c-0.6,0.8-0.9,1.8-0.9,3.1v4.9h-2.4v-11.5h2.4v2.3
		c0.4-0.7,0.9-1.3,1.6-1.8c0.7-0.5,1.4-0.7,2.1-0.7l0,2.4C637.7,205.7,637.6,205.7,637.6,205.7z"/>
	<path class="st51" d="M650.6,210.2h-8.8c0.1,0.8,0.4,1.5,1.1,2c0.7,0.5,1.5,0.8,2.4,0.8c1.4,0,2.5-0.5,3.2-1.4l1.4,1.5
		c-1.2,1.3-2.8,1.9-4.8,1.9c-1.6,0-2.9-0.5-4-1.6s-1.7-2.5-1.7-4.3s0.6-3.2,1.7-4.3c1.1-1.1,2.5-1.6,4-1.6c1.5,0,2.8,0.5,3.9,1.4
		c1.1,0.9,1.6,2.2,1.6,3.9V210.2z M641.7,208.3h6.5c0-1-0.3-1.7-0.9-2.2c-0.6-0.5-1.3-0.8-2.2-0.8s-1.7,0.3-2.3,0.8
		C642.1,206.7,641.7,207.4,641.7,208.3z M646.3,201.9h-2.2l2.2-3.1l2.5,1.1L646.3,201.9z"/>
	<path class="st51" d="M659.2,203.3c1.5,0,2.8,0.5,3.9,1.6c1.1,1.1,1.6,2.5,1.6,4.3s-0.5,3.2-1.6,4.3s-2.3,1.7-3.7,1.7
		s-2.7-0.6-3.8-1.9v5.9h-2.4v-15.7h2.4v2C656.5,204,657.7,203.3,659.2,203.3z M655.5,209.2c0,1.1,0.3,2,1,2.7c0.7,0.7,1.4,1,2.4,1
		c0.9,0,1.7-0.3,2.4-1c0.7-0.7,1-1.6,1-2.7s-0.3-2-1-2.7c-0.7-0.7-1.5-1.1-2.4-1.1c-0.9,0-1.7,0.4-2.4,1.1
		C655.9,207.2,655.5,208.1,655.5,209.2z"/>
	<path class="st51" d="M676.6,214.9h-2.2v-1.5c-0.9,1.1-2.2,1.7-3.8,1.7c-1.2,0-2.1-0.3-2.9-1c-0.8-0.7-1.2-1.6-1.2-2.7
		s0.4-2,1.2-2.5c0.8-0.6,1.9-0.8,3.3-0.8h3.1v-0.4c0-1.5-0.8-2.3-2.5-2.3c-1,0-2.1,0.4-3.3,1.2l-1.1-1.5c1.4-1.1,2.9-1.7,4.7-1.7
		c1.3,0,2.4,0.3,3.3,1c0.8,0.7,1.3,1.8,1.3,3.2V214.9z M674.2,210.7v-1h-2.7c-1.7,0-2.6,0.5-2.6,1.6c0,0.6,0.2,1,0.6,1.3
		c0.4,0.3,1,0.4,1.8,0.4s1.4-0.2,2-0.6C673.9,212,674.2,211.4,674.2,210.7z"/>
	<path class="st51" d="M685.8,205.7c-1.2,0-2.1,0.4-2.7,1.2c-0.6,0.8-0.9,1.8-0.9,3.1v4.9h-2.4v-11.5h2.4v2.3
		c0.4-0.7,0.9-1.3,1.6-1.8c0.7-0.5,1.4-0.7,2.1-0.7l0,2.4C685.9,205.7,685.9,205.7,685.8,205.7z"/>
	<path class="st51" d="M697.5,214.9h-2.2v-1.5c-0.9,1.1-2.2,1.7-3.8,1.7c-1.2,0-2.1-0.3-2.9-1c-0.8-0.7-1.2-1.6-1.2-2.7
		s0.4-2,1.2-2.5c0.8-0.6,1.9-0.8,3.3-0.8h3.1v-0.4c0-1.5-0.8-2.3-2.5-2.3c-1,0-2.1,0.4-3.3,1.2l-1.1-1.5c1.4-1.1,2.9-1.7,4.7-1.7
		c1.3,0,2.4,0.3,3.3,1c0.8,0.7,1.3,1.8,1.3,3.2V214.9z M695.1,210.7v-1h-2.7c-1.7,0-2.6,0.5-2.6,1.6c0,0.6,0.2,1,0.6,1.3
		c0.4,0.3,1,0.4,1.8,0.4s1.4-0.2,2-0.6C694.8,212,695.1,211.4,695.1,210.7z"/>
	<path class="st51" d="M703.7,205.4v5.8c0,0.5,0.1,1,0.4,1.3s0.7,0.5,1.2,0.5c0.5,0,1-0.3,1.5-0.8l1,1.7c-0.8,0.8-1.8,1.1-2.8,1.1
		s-1.9-0.4-2.6-1.1c-0.7-0.7-1.1-1.7-1.1-2.9v-5.8h-1.4v-1.9h1.4v-3.6h2.4v3.6h3v1.9H703.7z"/>
	<path class="st51" d="M709.8,201.1c-0.3-0.3-0.4-0.7-0.4-1.1s0.1-0.8,0.4-1.1s0.7-0.5,1.1-0.5c0.4,0,0.8,0.2,1.1,0.5
		s0.4,0.7,0.4,1.1s-0.1,0.8-0.4,1.1c-0.3,0.3-0.7,0.5-1.1,0.5C710.5,201.6,710.1,201.5,709.8,201.1z M712,214.9h-2.4v-11.5h2.4
		V214.9z"/>
	<path class="st51" d="M724.9,213.4c-1.1,1.1-2.5,1.7-4.2,1.7c-1.7,0-3.1-0.6-4.2-1.7c-1.1-1.1-1.7-2.5-1.7-4.2s0.6-3.1,1.7-4.2
		c1.1-1.1,2.5-1.7,4.2-1.7c1.7,0,3.1,0.6,4.2,1.7c1.1,1.1,1.7,2.5,1.7,4.2S726,212.2,724.9,213.4z M718.1,211.9c0.7,0.7,1.5,1,2.6,1
		c1,0,1.9-0.3,2.6-1c0.7-0.7,1-1.6,1-2.7s-0.3-2-1-2.7c-0.7-0.7-1.5-1-2.6-1c-1,0-1.9,0.3-2.6,1c-0.7,0.7-1,1.6-1,2.7
		S717.4,211.2,718.1,211.9z"/>
	<path class="st51" d="M731.7,208.7v6.2h-2.4v-11.5h2.4v2.1c0.4-0.7,0.9-1.3,1.6-1.7c0.7-0.4,1.4-0.6,2.2-0.6c1.3,0,2.3,0.4,3.1,1.2
		c0.8,0.8,1.2,1.9,1.2,3.4v7h-2.4v-6.3c0-2.1-0.9-3.2-2.6-3.2c-0.8,0-1.5,0.3-2.1,0.8S731.7,207.6,731.7,208.7z"/>
	<path class="st51" d="M756.9,211.5c0,1.1-0.4,2-1.2,2.6c-0.8,0.7-1.8,1-3,1c-0.8,0-1.7-0.2-2.6-0.5c-0.9-0.3-1.7-0.7-2.3-1.3
		l1.1-1.9c1.3,1,2.6,1.5,3.8,1.5c0.5,0,1-0.1,1.3-0.4c0.3-0.3,0.5-0.6,0.5-1c0-0.6-0.8-1.1-2.3-1.6c-0.1,0-0.2-0.1-0.3-0.1
		c-2.3-0.6-3.5-1.7-3.5-3.2c0-1.1,0.4-1.9,1.2-2.6s1.9-1,3.2-1s2.5,0.4,3.7,1.2l-0.9,1.8c-0.9-0.6-1.9-0.9-3-0.9
		c-0.6,0-1,0.1-1.4,0.3c-0.4,0.2-0.5,0.5-0.5,0.9c0,0.4,0.2,0.6,0.6,0.8c0.3,0.1,0.6,0.3,1.1,0.4c0.5,0.1,0.9,0.2,1.2,0.3
		s0.7,0.2,1,0.4c0.3,0.1,0.7,0.3,1.1,0.6C756.5,209.6,756.9,210.4,756.9,211.5z"/>
	<path class="st51" d="M767.5,209.7v-6.2h2.4v11.5h-2.4v-2.1c-0.4,0.7-0.9,1.3-1.6,1.7c-0.7,0.4-1.4,0.6-2.2,0.6
		c-1.3,0-2.3-0.4-3.1-1.2c-0.8-0.8-1.2-1.9-1.2-3.4v-7h2.4v6.3c0,2.1,0.9,3.2,2.6,3.2c0.8,0,1.5-0.3,2.1-0.8
		S767.5,210.7,767.5,209.7z"/>
	<path class="st51" d="M779.2,205.7c-1.2,0-2.1,0.4-2.7,1.2c-0.6,0.8-0.9,1.8-0.9,3.1v4.9h-2.4v-11.5h2.4v2.3
		c0.4-0.7,0.9-1.3,1.6-1.8c0.7-0.5,1.4-0.7,2.1-0.7l0,2.4C779.3,205.7,779.2,205.7,779.2,205.7z"/>
	<path class="st51" d="M790.5,214.9l-4.5-11.5h2.5l3.4,8.7l3.4-8.7h2.5l-4.5,11.5H790.5z"/>
	<path class="st51" d="M809.1,213.4c-1.1,1.1-2.5,1.7-4.2,1.7c-1.7,0-3.1-0.6-4.2-1.7c-1.1-1.1-1.7-2.5-1.7-4.2s0.6-3.1,1.7-4.2
		c1.1-1.1,2.5-1.7,4.2-1.7c1.7,0,3.1,0.6,4.2,1.7c1.1,1.1,1.7,2.5,1.7,4.2S810.2,212.2,809.1,213.4z M802.3,211.9
		c0.7,0.7,1.5,1,2.6,1c1,0,1.9-0.3,2.6-1c0.7-0.7,1-1.6,1-2.7s-0.3-2-1-2.7c-0.7-0.7-1.5-1-2.6-1c-1,0-1.9,0.3-2.6,1
		c-0.7,0.7-1,1.6-1,2.7S801.6,211.2,802.3,211.9z"/>
	<path class="st51" d="M816.4,205.4v5.8c0,0.5,0.1,1,0.4,1.3s0.7,0.5,1.2,0.5c0.5,0,1-0.3,1.5-0.8l1,1.7c-0.8,0.8-1.8,1.1-2.8,1.1
		s-1.9-0.4-2.6-1.1c-0.7-0.7-1.1-1.7-1.1-2.9v-5.8h-1.4v-1.9h1.4v-3.6h2.4v3.6h3v1.9H816.4z"/>
	<path class="st51" d="M828.3,205.7c-1.2,0-2.1,0.4-2.7,1.2c-0.6,0.8-0.9,1.8-0.9,3.1v4.9h-2.4v-11.5h2.4v2.3
		c0.4-0.7,0.9-1.3,1.6-1.8c0.7-0.5,1.4-0.7,2.1-0.7l0,2.4C828.4,205.7,828.3,205.7,828.3,205.7z"/>
	<path class="st51" d="M841.3,210.2h-8.8c0.1,0.8,0.4,1.5,1.1,2c0.7,0.5,1.5,0.8,2.4,0.8c1.4,0,2.5-0.5,3.2-1.4l1.4,1.5
		c-1.2,1.3-2.8,1.9-4.8,1.9c-1.6,0-2.9-0.5-4-1.6s-1.7-2.5-1.7-4.3s0.6-3.2,1.7-4.3c1.1-1.1,2.5-1.6,4-1.6c1.5,0,2.8,0.5,3.9,1.4
		c1.1,0.9,1.6,2.2,1.6,3.9V210.2z M832.4,208.3h6.5c0-1-0.3-1.7-0.9-2.2c-0.6-0.5-1.3-0.8-2.2-0.8s-1.7,0.3-2.3,0.8
		C832.8,206.7,832.4,207.4,832.4,208.3z"/>
	<path class="st51" d="M858.9,214.9h-2.2v-1.5c-0.9,1.1-2.2,1.7-3.8,1.7c-1.2,0-2.1-0.3-2.9-1c-0.8-0.7-1.2-1.6-1.2-2.7
		s0.4-2,1.2-2.5c0.8-0.6,1.9-0.8,3.3-0.8h3.1v-0.4c0-1.5-0.8-2.3-2.5-2.3c-1,0-2.1,0.4-3.3,1.2l-1.1-1.5c1.4-1.1,2.9-1.7,4.7-1.7
		c1.3,0,2.4,0.3,3.3,1c0.8,0.7,1.3,1.8,1.3,3.2V214.9z M856.5,210.7v-1h-2.7c-1.7,0-2.6,0.5-2.6,1.6c0,0.6,0.2,1,0.6,1.3
		c0.4,0.3,1,0.4,1.8,0.4s1.4-0.2,2-0.6C856.2,212,856.5,211.4,856.5,210.7z"/>
	<path class="st51" d="M870.1,209.7v-6.2h2.4v11.5h-2.4v-2.1c-0.4,0.7-0.9,1.3-1.6,1.7c-0.7,0.4-1.4,0.6-2.2,0.6
		c-1.3,0-2.3-0.4-3.1-1.2c-0.8-0.8-1.2-1.9-1.2-3.4v-7h2.4v6.3c0,2.1,0.9,3.2,2.6,3.2c0.8,0,1.5-0.3,2.1-0.8
		S870.1,210.7,870.1,209.7z"/>
	<path class="st51" d="M878.8,205.4v5.8c0,0.5,0.1,1,0.4,1.3s0.7,0.5,1.2,0.5c0.5,0,1-0.3,1.5-0.8l1,1.7c-0.8,0.8-1.8,1.1-2.8,1.1
		s-1.9-0.4-2.6-1.1c-0.7-0.7-1.1-1.7-1.1-2.9v-5.8H875v-1.9h1.4v-3.6h2.4v3.6h3v1.9H878.8z"/>
	<path class="st51" d="M894.2,213.4c-1.1,1.1-2.5,1.7-4.2,1.7c-1.7,0-3.1-0.6-4.2-1.7c-1.1-1.1-1.7-2.5-1.7-4.2s0.6-3.1,1.7-4.2
		c1.1-1.1,2.5-1.7,4.2-1.7c1.7,0,3.1,0.6,4.2,1.7c1.1,1.1,1.7,2.5,1.7,4.2S895.3,212.2,894.2,213.4z M887.4,211.9
		c0.7,0.7,1.5,1,2.6,1c1,0,1.9-0.3,2.6-1c0.7-0.7,1-1.6,1-2.7s-0.3-2-1-2.7c-0.7-0.7-1.5-1-2.6-1c-1,0-1.9,0.3-2.6,1
		c-0.7,0.7-1,1.6-1,2.7S886.7,211.2,887.4,211.9z"/>
	<path class="st51" d="M435.2,239.4c-1.1-1.1-1.6-2.5-1.6-4.3c0-1.8,0.5-3.2,1.6-4.3c1.1-1.1,2.4-1.6,3.9-1.6c1.5,0,2.7,0.6,3.6,1.9
		v-6.3h2.4v16h-2.4v-1.7c-0.9,1.3-2.2,1.9-3.8,1.9C437.5,241.1,436.2,240.5,435.2,239.4z M436,235.2c0,1.1,0.3,2,1,2.7
		c0.7,0.7,1.5,1,2.4,1s1.7-0.3,2.4-1c0.7-0.7,1-1.6,1-2.7c0-1.1-0.3-2-1-2.7c-0.7-0.7-1.5-1.1-2.4-1.1c-0.9,0-1.8,0.4-2.4,1.1
		C436.3,233.2,436,234.1,436,235.2z"/>
	<path class="st51" d="M457.7,240.9h-2.2v-1.5c-0.9,1.1-2.2,1.7-3.8,1.7c-1.2,0-2.1-0.3-2.9-1c-0.8-0.7-1.2-1.6-1.2-2.7
		s0.4-2,1.2-2.5c0.8-0.6,1.9-0.8,3.3-0.8h3.1v-0.4c0-1.5-0.8-2.3-2.5-2.3c-1,0-2.1,0.4-3.3,1.2l-1.1-1.5c1.4-1.1,2.9-1.7,4.7-1.7
		c1.3,0,2.4,0.3,3.3,1c0.8,0.7,1.3,1.8,1.3,3.2V240.9z M455.3,236.6v-1h-2.7c-1.7,0-2.6,0.5-2.6,1.6c0,0.6,0.2,1,0.6,1.3
		c0.4,0.3,1,0.4,1.8,0.4c0.8,0,1.4-0.2,2-0.6C455.1,237.9,455.3,237.3,455.3,236.6z"/>
	<path class="st51" d="M463.4,234.7v6.2H461v-11.5h2.4v2.1c0.4-0.7,0.9-1.3,1.6-1.7c0.7-0.4,1.4-0.6,2.2-0.6c1.3,0,2.3,0.4,3.1,1.2
		s1.2,1.9,1.2,3.4v7H469v-6.3c0-2.1-0.9-3.2-2.6-3.2c-0.8,0-1.5,0.3-2.1,0.8S463.4,233.6,463.4,234.7z"/>
	<path class="st51" d="M482.8,237.4c0,1.1-0.4,2-1.2,2.6c-0.8,0.7-1.8,1-3,1c-0.8,0-1.7-0.2-2.6-0.5c-0.9-0.3-1.7-0.7-2.3-1.3
		l1.1-1.9c1.3,1,2.6,1.5,3.8,1.5c0.5,0,1-0.1,1.3-0.4c0.3-0.3,0.5-0.6,0.5-1c0-0.6-0.8-1.1-2.2-1.6c-0.1,0-0.2-0.1-0.3-0.1
		c-2.3-0.6-3.5-1.7-3.5-3.2c0-1.1,0.4-1.9,1.2-2.6c0.8-0.6,1.9-1,3.2-1c1.3,0,2.5,0.4,3.7,1.2l-0.9,1.8c-0.9-0.6-1.9-0.9-3-0.9
		c-0.6,0-1,0.1-1.4,0.3c-0.4,0.2-0.5,0.5-0.5,0.9c0,0.4,0.2,0.6,0.6,0.8c0.3,0.1,0.6,0.3,1.1,0.4c0.5,0.1,0.9,0.2,1.2,0.3
		c0.4,0.1,0.7,0.2,1,0.4c0.3,0.1,0.7,0.3,1.1,0.6C482.4,235.5,482.8,236.4,482.8,237.4z"/>
	<path class="st51" d="M493.7,234.7v6.2h-2.4v-11.5h2.4v2.1c0.4-0.7,0.9-1.3,1.6-1.7c0.7-0.4,1.4-0.6,2.2-0.6c1.3,0,2.3,0.4,3.1,1.2
		s1.2,1.9,1.2,3.4v7h-2.4v-6.3c0-2.1-0.9-3.2-2.6-3.2c-0.8,0-1.5,0.3-2.1,0.8C494,232.8,493.7,233.6,493.7,234.7z"/>
	<path class="st51" d="M514.4,239.3c-1.1,1.1-2.5,1.7-4.2,1.7c-1.7,0-3.1-0.6-4.2-1.7c-1.1-1.1-1.7-2.5-1.7-4.2s0.6-3.1,1.7-4.2
		c1.1-1.1,2.5-1.7,4.2-1.7c1.7,0,3.1,0.6,4.2,1.7c1.1,1.1,1.7,2.5,1.7,4.2S515.6,238.2,514.4,239.3z M507.6,237.8
		c0.7,0.7,1.5,1,2.6,1c1,0,1.9-0.3,2.6-1c0.7-0.7,1-1.6,1-2.7s-0.3-2-1-2.7c-0.7-0.7-1.5-1-2.6-1c-1,0-1.9,0.3-2.6,1
		c-0.7,0.7-1,1.6-1,2.7S507,237.1,507.6,237.8z"/>
	<path class="st51" d="M521.8,231.3v5.8c0,0.5,0.1,1,0.4,1.3s0.7,0.5,1.2,0.5c0.5,0,1-0.3,1.5-0.8l1,1.7c-0.8,0.8-1.8,1.1-2.8,1.1
		s-1.9-0.4-2.6-1.1c-0.7-0.7-1.1-1.7-1.1-2.9v-5.8H518v-1.9h1.4v-3.6h2.4v3.6h3v1.9H521.8z"/>
	<path class="st51" d="M533.6,231.7c-1.2,0-2.1,0.4-2.7,1.2c-0.6,0.8-0.9,1.8-0.9,3.1v4.9h-2.4v-11.5h2.4v2.3
		c0.4-0.7,0.9-1.3,1.6-1.8c0.7-0.5,1.4-0.7,2.1-0.7l0,2.4C533.7,231.7,533.7,231.7,533.6,231.7z"/>
	<path class="st51" d="M546.6,236.2h-8.8c0.1,0.8,0.4,1.5,1.1,2c0.7,0.5,1.5,0.8,2.4,0.8c1.4,0,2.5-0.5,3.2-1.4l1.4,1.5
		c-1.2,1.3-2.8,1.9-4.8,1.9c-1.6,0-2.9-0.5-4-1.6s-1.7-2.5-1.7-4.3s0.6-3.2,1.7-4.3c1.1-1.1,2.5-1.6,4-1.6c1.5,0,2.8,0.5,3.9,1.4
		c1.1,0.9,1.6,2.2,1.6,3.9V236.2z M537.8,234.3h6.5c0-1-0.3-1.7-0.9-2.2c-0.6-0.5-1.3-0.8-2.2-0.8s-1.7,0.3-2.3,0.8
		C538.1,232.6,537.8,233.4,537.8,234.3z"/>
	<path class="st51" d="M565.5,229.4v10c0,2-0.5,3.6-1.6,4.6c-1.1,1-2.5,1.5-4.2,1.5c-1.7,0-3.2-0.5-4.6-1.6l1.1-1.8
		c1.1,0.9,2.2,1.3,3.3,1.3c1.1,0,2-0.3,2.7-0.9c0.7-0.6,1-1.5,1-2.8v-1.5c-0.4,0.7-0.9,1.2-1.5,1.6c-0.7,0.4-1.4,0.6-2.2,0.6
		c-1.5,0-2.7-0.5-3.7-1.6c-1-1.1-1.4-2.4-1.4-4c0-1.6,0.5-2.9,1.4-4c1-1.1,2.2-1.6,3.7-1.6c1.5,0,2.7,0.6,3.6,1.9v-1.7H565.5z
		 M556.7,234.7c0,0.9,0.3,1.8,0.9,2.4c0.6,0.7,1.3,1,2.3,1c1,0,1.8-0.3,2.4-1c0.6-0.7,0.9-1.5,0.9-2.5c0-1-0.3-1.8-0.9-2.5
		c-0.6-0.7-1.4-1-2.4-1s-1.7,0.4-2.3,1.1C557,232.9,556.7,233.7,556.7,234.7z"/>
	<path class="st51" d="M578.1,240.9h-2.2v-1.5c-0.9,1.1-2.2,1.7-3.8,1.7c-1.2,0-2.1-0.3-2.9-1c-0.8-0.7-1.2-1.6-1.2-2.7
		s0.4-2,1.2-2.5c0.8-0.6,1.9-0.8,3.3-0.8h3.1v-0.4c0-1.5-0.8-2.3-2.5-2.3c-1,0-2.1,0.4-3.3,1.2l-1.1-1.5c1.4-1.1,2.9-1.7,4.7-1.7
		c1.3,0,2.4,0.3,3.3,1c0.8,0.7,1.3,1.8,1.3,3.2V240.9z M575.7,236.6v-1H573c-1.7,0-2.6,0.5-2.6,1.6c0,0.6,0.2,1,0.6,1.3
		c0.4,0.3,1,0.4,1.8,0.4s1.4-0.2,2-0.6C575.4,237.9,575.7,237.3,575.7,236.6z"/>
	<path class="st51" d="M587.3,231.7c-1.2,0-2.1,0.4-2.7,1.2c-0.6,0.8-0.9,1.8-0.9,3.1v4.9h-2.4v-11.5h2.4v2.3
		c0.4-0.7,0.9-1.3,1.6-1.8c0.7-0.5,1.4-0.7,2.1-0.7l0,2.4C587.4,231.7,587.3,231.7,587.3,231.7z"/>
	<path class="st51" d="M599,240.9h-2.2v-1.5c-0.9,1.1-2.2,1.7-3.8,1.7c-1.2,0-2.1-0.3-2.9-1c-0.8-0.7-1.2-1.6-1.2-2.7s0.4-2,1.2-2.5
		c0.8-0.6,1.9-0.8,3.3-0.8h3.1v-0.4c0-1.5-0.8-2.3-2.5-2.3c-1,0-2.1,0.4-3.3,1.2l-1.1-1.5c1.4-1.1,2.9-1.7,4.7-1.7
		c1.3,0,2.4,0.3,3.3,1c0.8,0.7,1.3,1.8,1.3,3.2V240.9z M596.6,236.6v-1h-2.7c-1.7,0-2.6,0.5-2.6,1.6c0,0.6,0.2,1,0.6,1.3
		c0.4,0.3,1,0.4,1.8,0.4s1.4-0.2,2-0.6C596.3,237.9,596.6,237.3,596.6,236.6z"/>
	<path class="st51" d="M612.7,229.4v10c0,2-0.5,3.6-1.6,4.6c-1.1,1-2.5,1.5-4.2,1.5c-1.7,0-3.2-0.5-4.6-1.6l1.1-1.8
		c1.1,0.9,2.2,1.3,3.3,1.3c1.1,0,2-0.3,2.7-0.9c0.7-0.6,1-1.5,1-2.8v-1.5c-0.4,0.7-0.9,1.2-1.5,1.6c-0.7,0.4-1.4,0.6-2.2,0.6
		c-1.5,0-2.7-0.5-3.7-1.6c-1-1.1-1.4-2.4-1.4-4c0-1.6,0.5-2.9,1.4-4c1-1.1,2.2-1.6,3.7-1.6c1.5,0,2.7,0.6,3.6,1.9v-1.7H612.7z
		 M603.9,234.7c0,0.9,0.3,1.8,0.9,2.4c0.6,0.7,1.3,1,2.3,1c1,0,1.8-0.3,2.4-1c0.6-0.7,0.9-1.5,0.9-2.5c0-1-0.3-1.8-0.9-2.5
		c-0.6-0.7-1.4-1-2.4-1s-1.7,0.4-2.3,1.1C604.2,232.9,603.9,233.7,603.9,234.7z"/>
	<path class="st51" d="M626.6,236.2h-8.8c0.1,0.8,0.4,1.5,1.1,2c0.7,0.5,1.5,0.8,2.4,0.8c1.4,0,2.5-0.5,3.2-1.4l1.4,1.5
		c-1.2,1.3-2.8,1.9-4.8,1.9c-1.6,0-2.9-0.5-4-1.6s-1.7-2.5-1.7-4.3s0.6-3.2,1.7-4.3c1.1-1.1,2.5-1.6,4-1.6c1.5,0,2.8,0.5,3.9,1.4
		c1.1,0.9,1.6,2.2,1.6,3.9V236.2z M617.8,234.3h6.5c0-1-0.3-1.7-0.9-2.2c-0.6-0.5-1.3-0.8-2.2-0.8s-1.7,0.3-2.3,0.8
		C618.1,232.6,617.8,233.4,617.8,234.3z"/>
	<path class="st51" d="M635.3,235.3c-0.3-0.3-0.5-0.7-0.5-1.1c0-0.4,0.2-0.8,0.5-1.1c0.3-0.3,0.7-0.5,1.1-0.5s0.8,0.2,1.1,0.5
		s0.5,0.7,0.5,1.1c0,0.4-0.2,0.8-0.5,1.1s-0.7,0.5-1.1,0.5S635.6,235.6,635.3,235.3z M635.3,240.6c-0.3-0.3-0.5-0.7-0.5-1.1
		s0.2-0.8,0.5-1.1c0.3-0.3,0.7-0.5,1.1-0.5s0.8,0.2,1.1,0.5c0.3,0.3,0.5,0.7,0.5,1.1s-0.2,0.8-0.5,1.1s-0.7,0.5-1.1,0.5
		S635.6,240.9,635.3,240.6z"/>
	<path class="st10" d="M649.5,234.7v6.2h-2.4v-16h2.4v6.6c0.3-0.7,0.9-1.3,1.5-1.7c0.7-0.4,1.4-0.6,2.2-0.6c1.3,0,2.3,0.4,3.1,1.2
		c0.8,0.8,1.2,1.9,1.2,3.4v7h-2.4v-6.3c0-2.1-0.9-3.2-2.6-3.2c-0.8,0-1.5,0.3-2.1,0.8S649.5,233.6,649.5,234.7z"/>
	<path class="st10" d="M663.7,231.3v5.8c0,0.5,0.1,1,0.4,1.3s0.7,0.5,1.2,0.5c0.5,0,1-0.3,1.5-0.8l1,1.7c-0.8,0.8-1.8,1.1-2.8,1.1
		s-1.9-0.4-2.6-1.1c-0.7-0.7-1.1-1.7-1.1-2.9v-5.8h-1.4v-1.9h1.4v-3.6h2.4v3.6h3v1.9H663.7z"/>
	<path class="st10" d="M672.6,231.3v5.8c0,0.5,0.1,1,0.4,1.3s0.7,0.5,1.2,0.5c0.5,0,1-0.3,1.5-0.8l1,1.7c-0.8,0.8-1.8,1.1-2.8,1.1
		s-1.9-0.4-2.6-1.1c-0.7-0.7-1.1-1.7-1.1-2.9v-5.8h-1.4v-1.9h1.4v-3.6h2.4v3.6h3v1.9H672.6z"/>
	<path class="st10" d="M684.6,229.2c1.5,0,2.8,0.5,3.9,1.6c1.1,1.1,1.6,2.5,1.6,4.3s-0.5,3.2-1.6,4.3s-2.3,1.7-3.7,1.7
		s-2.7-0.6-3.8-1.9v5.9h-2.4v-15.7h2.4v2C681.9,229.9,683.1,229.2,684.6,229.2z M680.9,235.2c0,1.1,0.3,2,1,2.7c0.7,0.7,1.4,1,2.4,1
		c0.9,0,1.7-0.3,2.4-1c0.7-0.7,1-1.6,1-2.7s-0.3-2-1-2.7c-0.7-0.7-1.5-1.1-2.4-1.1c-0.9,0-1.7,0.4-2.4,1.1
		C681.2,233.1,680.9,234.1,680.9,235.2z"/>
	<path class="st10" d="M693.1,235.3c-0.3-0.3-0.5-0.7-0.5-1.1c0-0.4,0.2-0.8,0.5-1.1c0.3-0.3,0.7-0.5,1.1-0.5s0.8,0.2,1.1,0.5
		s0.5,0.7,0.5,1.1c0,0.4-0.2,0.8-0.5,1.1s-0.7,0.5-1.1,0.5S693.4,235.6,693.1,235.3z M693.1,240.6c-0.3-0.3-0.5-0.7-0.5-1.1
		s0.2-0.8,0.5-1.1c0.3-0.3,0.7-0.5,1.1-0.5s0.8,0.2,1.1,0.5c0.3,0.3,0.5,0.7,0.5,1.1s-0.2,0.8-0.5,1.1s-0.7,0.5-1.1,0.5
		S693.4,240.9,693.1,240.6z"/>
	<path class="st10" d="M707.1,223.4h2.1l-9.2,20.1h-2.1L707.1,223.4z"/>
	<path class="st10" d="M719.5,223.4h2.1l-9.2,20.1h-2.1L719.5,223.4z"/>
	<path class="st10" d="M732,237.4c0,1.1-0.4,2-1.2,2.6c-0.8,0.7-1.8,1-3,1c-0.8,0-1.7-0.2-2.6-0.5c-0.9-0.3-1.7-0.7-2.3-1.3l1.1-1.9
		c1.3,1,2.6,1.5,3.8,1.5c0.5,0,1-0.1,1.3-0.4c0.3-0.3,0.5-0.6,0.5-1c0-0.6-0.8-1.1-2.3-1.6c-0.1,0-0.2-0.1-0.3-0.1
		c-2.3-0.6-3.5-1.7-3.5-3.2c0-1.1,0.4-1.9,1.2-2.6s1.9-1,3.2-1s2.5,0.4,3.7,1.2l-0.9,1.8c-0.9-0.6-1.9-0.9-3-0.9
		c-0.6,0-1,0.1-1.4,0.3c-0.4,0.2-0.5,0.5-0.5,0.9c0,0.4,0.2,0.6,0.6,0.8c0.3,0.1,0.6,0.3,1.1,0.4c0.5,0.1,0.9,0.2,1.2,0.3
		s0.7,0.2,1,0.4c0.3,0.1,0.7,0.3,1.1,0.6C731.6,235.5,732,236.4,732,237.4z"/>
	<path class="st10" d="M737.1,234.7v6.2h-2.4v-11.5h2.4v2.1c0.3-0.7,0.9-1.3,1.5-1.7c0.7-0.4,1.4-0.6,2.2-0.6c1.8,0,3,0.8,3.6,2.2
		c1.1-1.5,2.5-2.2,4.2-2.2c1.3,0,2.3,0.4,3.1,1.2s1.2,1.9,1.2,3.4v7h-2.4v-6.3c0-2.1-0.9-3.2-2.6-3.2c-0.8,0-1.5,0.3-2.1,0.8
		c-0.6,0.5-0.9,1.3-0.9,2.3v6.4h-2.4v-6.3c0-1.1-0.2-1.9-0.6-2.4c-0.4-0.5-1-0.8-1.8-0.8c-0.8,0-1.5,0.3-2.1,0.8
		S737.1,233.6,737.1,234.7z"/>
	<path class="st10" d="M756.3,240.6c-0.3-0.3-0.5-0.7-0.5-1.1s0.2-0.8,0.5-1.1c0.3-0.3,0.7-0.5,1.1-0.5s0.8,0.2,1.1,0.5
		c0.3,0.3,0.5,0.7,0.5,1.1s-0.2,0.8-0.5,1.1c-0.3,0.3-0.7,0.5-1.1,0.5S756.6,240.9,756.3,240.6z"/>
	<path class="st10" d="M770.2,237.4c0,1.1-0.4,2-1.2,2.6c-0.8,0.7-1.8,1-3,1c-0.8,0-1.7-0.2-2.6-0.5c-0.9-0.3-1.7-0.7-2.3-1.3
		l1.1-1.9c1.3,1,2.6,1.5,3.8,1.5c0.5,0,1-0.1,1.3-0.4c0.3-0.3,0.5-0.6,0.5-1c0-0.6-0.8-1.1-2.3-1.6c-0.1,0-0.2-0.1-0.3-0.1
		c-2.3-0.6-3.5-1.7-3.5-3.2c0-1.1,0.4-1.9,1.2-2.6s1.9-1,3.2-1s2.5,0.4,3.7,1.2l-0.9,1.8c-0.9-0.6-1.9-0.9-3-0.9
		c-0.6,0-1,0.1-1.4,0.3c-0.4,0.2-0.5,0.5-0.5,0.9c0,0.4,0.2,0.6,0.6,0.8c0.3,0.1,0.6,0.3,1.1,0.4c0.5,0.1,0.9,0.2,1.2,0.3
		s0.7,0.2,1,0.4c0.3,0.1,0.7,0.3,1.1,0.6C769.8,235.5,770.2,236.4,770.2,237.4z"/>
	<path class="st10" d="M783.3,229.4v10c0,2-0.5,3.6-1.6,4.6c-1.1,1-2.5,1.5-4.2,1.5c-1.7,0-3.2-0.5-4.6-1.6l1.1-1.8
		c1.1,0.9,2.2,1.3,3.3,1.3c1.1,0,2-0.3,2.7-0.9c0.7-0.6,1-1.5,1-2.8v-1.5c-0.4,0.7-0.9,1.2-1.5,1.6c-0.7,0.4-1.4,0.6-2.2,0.6
		c-1.5,0-2.7-0.5-3.7-1.6c-1-1.1-1.4-2.4-1.4-4c0-1.6,0.5-2.9,1.4-4c1-1.1,2.2-1.6,3.7-1.6c1.5,0,2.7,0.6,3.6,1.9v-1.7H783.3z
		 M774.5,234.7c0,0.9,0.3,1.8,0.9,2.4c0.6,0.7,1.3,1,2.3,1c1,0,1.8-0.3,2.4-1c0.6-0.7,0.9-1.5,0.9-2.5c0-1-0.3-1.8-0.9-2.5
		c-0.6-0.7-1.4-1-2.4-1s-1.7,0.4-2.3,1.1C774.8,232.9,774.5,233.7,774.5,234.7z"/>
	<path class="st10" d="M794.8,223.4h2.1l-9.2,20.1h-2.1L794.8,223.4z"/>
	<path class="st10" d="M808.4,240.9h-2.2v-1.5c-0.9,1.1-2.2,1.7-3.8,1.7c-1.2,0-2.1-0.3-2.9-1c-0.8-0.7-1.2-1.6-1.2-2.7
		s0.4-2,1.2-2.5c0.8-0.6,1.9-0.8,3.3-0.8h3.1v-0.4c0-1.5-0.8-2.3-2.5-2.3c-1,0-2.1,0.4-3.3,1.2l-1.1-1.5c1.4-1.1,2.9-1.7,4.7-1.7
		c1.3,0,2.4,0.3,3.3,1c0.8,0.7,1.3,1.8,1.3,3.2V240.9z M806,236.6v-1h-2.7c-1.7,0-2.6,0.5-2.6,1.6c0,0.6,0.2,1,0.6,1.3
		c0.4,0.3,1,0.4,1.8,0.4s1.4-0.2,2-0.6C805.7,237.9,806,237.3,806,236.6z"/>
	<path class="st10" d="M819.6,228.1h-8.4v-2.3h11.8v2l-8.6,10.7v0.1h8.7v2.4h-12.2v-2L819.6,228.1L819.6,228.1z"/>
	<path class="st10" d="M831.4,234.8V232h2.4v2.8h1.8v2.3h-1.8v3.8h-2.4v-3.8h-6.4v-2.2l5.5-9.1h2.7l-5.4,9H831.4z"/>
	<path class="st10" d="M842.7,241.1c-1.4,0-2.7-0.6-3.7-1.7c-1.1-1.1-1.6-2.6-1.6-4.3s0.5-3.2,1.6-4.3c1.1-1.1,2.4-1.6,3.9-1.6
		s2.7,0.7,3.7,2.2v-2h2.4v15.7h-2.4v-5.9C845.4,240.4,844.2,241.1,842.7,241.1z M839.8,235.2c0,1.1,0.3,2,1,2.7c0.7,0.7,1.5,1,2.4,1
		c0.9,0,1.7-0.3,2.4-1c0.7-0.7,1-1.6,1-2.7c0-1.1-0.3-2-1-2.7c-0.7-0.7-1.5-1.1-2.4-1.1c-0.9,0-1.8,0.4-2.4,1.1
		C840.1,233.1,839.8,234.1,839.8,235.2z"/>
</g>
</svg>
