<?xml version="1.0" encoding="utf-8"?>
<!-- Generator: Adobe Illustrator 24.0.1, SVG Export Plug-In . SVG Version: 6.00 Build 0)  -->
<svg version="1.1" id="Calque_1" xmlns="http://www.w3.org/2000/svg" xmlns:xlink="http://www.w3.org/1999/xlink" x="0px" y="0px"
	 viewBox="0 0 200 200" style="enable-background:new 0 0 200 200;" xml:space="preserve">
<style type="text/css">
	.st0{fill:#D6DBE6;}
	.st1{fill:url(#SVGID_1_);}
	.st2{fill:#F7C0CB;}
	.st3{opacity:0.1;fill:#020203;enable-background:new    ;}
	.st4{fill:#493546;}
	.st5{fill:#3195FF;}
</style>
<path class="st0" d="M0,100c0,21.6,7,42.7,20,60c1.3,1.8,2.7,3.4,4.1,5.1c0.8,0.9,1.6,1.8,2.4,2.6c0.4,0.5,0.8,0.9,1.2,1.3
	c3.3,3.5,6.9,6.7,10.7,9.7l0.3,0.2c5.9,4.6,12.2,8.5,19,11.6l0,0c3.5,1.6,7,3.1,10.6,4.3l1.3,0.4c0.8,0.3,1.7,0.5,2.5,0.8l0.3,0.1
	c0.4,0.1,0.9,0.3,1.3,0.4c8.5,2.3,17.4,3.5,26.2,3.5c1.5,0,3,0,4.5-0.1c7.9-0.3,15.6-1.6,23.2-3.8h0.1c1.4-0.4,2.8-0.8,4.1-1.3h0.1
	l1.2-0.4c4.8-1.7,9.4-3.7,13.8-6.1l0.3-0.1c0.5-0.3,1-0.5,1.5-0.8c6.5-3.7,12.6-8,18.1-13.1l0.5-0.5c3-2.8,5.9-5.7,8.5-8.8l0.3-0.4
	c0.3-0.3,0.5-0.6,0.7-0.9c0.6-0.8,1.3-1.6,1.9-2.4C212.6,117.7,204.6,54.8,161,21S54.9-4.9,21,38.7C7.4,56.2,0,77.8,0,100z"/>
<linearGradient id="SVGID_1_" gradientUnits="userSpaceOnUse" x1="-2892.1399" y1="321.7658" x2="-2892.1399" y2="144.2398" gradientTransform="matrix(-1 0 0 1 -2793.9399 -121.86)">
	<stop  offset="0" style="stop-color:#808181;stop-opacity:0.25"/>
	<stop  offset="0.54" style="stop-color:#808181;stop-opacity:0.12"/>
	<stop  offset="1" style="stop-color:#808181;stop-opacity:0.1"/>
</linearGradient>
<path class="st1" d="M34.6,132.2c0,0,21.7-1.8,31.6-15.6c9.7-13.4,16.3-13.6,16.6-13.6l0,0c0.3-1.8,0.4-3.5,0.5-5.1c0,0,0-0.1,0-0.2
	c-0.4,0.3-0.9,0.5-1.4,0.6c-1.9,0.3-3.6-1.5-4.6-3.5c-0.7-2-1.7-4-2.9-5.8c-2.4-2.8-6.3-2.8-9.2-4.9c-2.5-2.1-4.1-5.1-4.4-8.4
	c-0.2-1.2-0.2-2.4-0.2-3.7c0-2.6,0.2-5.3,0.6-7.8c0.8-4.9,1.9-9.9,4.6-13.7c2.7-3.8,8-4.7,10.7-8.3c12.4-17,21.2-11.6,31.9-17.3
	c2.1-1.3,4.4-2.2,6.8-2.5c4.3-0.3,8.1,2.8,11.5,5.7c2.2,1.7,4.2,3.7,5.9,5.9c3.1,4.3,4.8,11.5,4.6,17.9c0.1,2.3-0.1,4.7-0.7,7
	c-0.9,3.4-3.2,3.2-5.7,2.4c6.5,13.6,2.1,29.9-10.4,38.4c0,0.5,0,1,0,1.5c0,0.1,0,0.2,0,0.3c0,2.3,0,4.7,0.2,7
	c0.3,0.1,24,13.6,26.7,20s12.7,11,12.7,11s11,5.9,16.2,24.4l-0.3,0.4c-2.6,3.2-5.5,6.2-8.5,9l-0.5,0.5c-5.5,5.1-11.6,9.5-18.1,13.2
	c-0.5,0.3-1,0.6-1.5,0.8l-0.3,0.1c-4.4,2.4-9.1,4.5-13.8,6.2l-1.2,0.5h0c-1.4,0.5-2.7,0.9-4.1,1.3h-0.1c-7.5,2.2-15.3,3.5-23.2,3.9
	c-1.5,0.1-2.9,0.1-4.5,0.1c-8.8,0.1-17.6-1.1-26.1-3.4c-0.4-0.1-0.9-0.2-1.3-0.4l-0.3-0.1c-0.8-0.2-1.7-0.5-2.5-0.8l-1.3-0.4
	c-3.6-1.2-7.2-2.7-10.7-4.4l0,0c-6.8-3.2-13.1-7.2-19-11.8l-0.3-0.2c-3.8-3-7.4-6.3-10.7-9.9c-0.4-0.4-0.8-0.9-1.2-1.4
	c-0.8-0.9-1.6-1.8-2.4-2.7c-1.5-1.7-2.8-3.4-4.1-5.2C27.9,129.1,34.6,132.2,34.6,132.2z"/>
<path class="st2" d="M109.6,156.8l31.6-24.4c0,0-21.2,4.5-20.6-29.3c0-0.1,0-0.2,0-0.3c0-3.1,0.3-6.4,0.7-10.1
	c5.4-45.2-38-5.4-38-5.4c0.4,4,0.4,8,0,12c0,0.1,0,0.2,0,0.3c-0.9,11.1-3.9,22-9,31.9C62.6,154.1,109.6,156.8,109.6,156.8z"/>
<path class="st3" d="M87.5,92.9c5.4,5.2,8.6,14.7,16.7,14.7c5.8,0,11.6-1.7,16.4-4.9c0-3.1,0.3-6.4,0.7-10.1c5.4-45.2-38-5.4-38-5.4
	S88,85.6,87.5,92.9z"/>
<ellipse class="st2" cx="104.2" cy="76.3" rx="29.8" ry="29.8"/>
<path class="st3" d="M132.8,38.1c-1.7-2.2-3.7-4.1-5.9-5.8c-3.4-2.9-7.3-5.9-11.5-5.6c-2.4,0.3-4.7,1.2-6.8,2.4
	c-10.7,5.6-19.5,0.3-31.9,17c-2.6,3.6-8,4.4-10.7,8.2c-2.7,3.8-3.8,8.7-4.6,13.5c-0.6,3.2-0.8,6.6-0.5,9.9c0.3,3.2,1.9,6.2,4.4,8.3
	c2.9,2.1,6.8,2.1,9.2,4.8c1.2,1.8,2.2,3.7,2.9,5.7c1,1.9,2.7,3.7,4.6,3.4c1.9-0.3,3.1-2.4,3.4-4.4c0.1-2.1,0-4.2-0.4-6.3
	c-0.4-3.7,0.1-7.8,2.3-10.6c1.5-1.9,3.7-3.1,5.1-5c3.5-4.7,1.9-12.6,5.7-17c2.3-2.3,5.7-3.3,8.8-2.5c3.1,0.9,6.1,2.2,8.8,3.8
	c3.9,1.9,7.9,3.5,12.1,4.7c3.5,1,7.6,3.3,8.7-1.5C138.6,54.2,136.8,43.7,132.8,38.1z"/>
<path class="st4" d="M132.8,36.9c-1.7-2.2-3.7-4.2-5.9-5.9c-3.4-3-7.3-6-11.5-5.7c-2.4,0.3-4.7,1.2-6.8,2.4
	c-10.7,5.7-19.6,0.3-32,17.3c-2.6,3.7-8,4.5-10.7,8.4c-2.7,3.9-3.8,8.9-4.6,13.8c-0.6,3.3-0.8,6.7-0.5,10.1c0.3,3.3,1.9,6.3,4.4,8.5
	c2.9,2.1,6.8,2.1,9.2,4.9c1.2,1.8,2.2,3.8,2.9,5.8c1,1.9,2.7,3.8,4.6,3.5c1.9-0.3,3.1-2.4,3.4-4.5c0.1-2.1,0-4.3-0.4-6.4
	c-0.4-3.8,0.1-7.9,2.3-10.8c1.5-1.9,3.7-3.2,5.1-5.1c3.5-4.8,1.9-12.8,5.7-17.3c2.3-2.3,5.7-3.4,8.8-2.5c3.1,0.9,6.1,2.2,8.8,3.9
	c3.9,1.9,7.9,3.6,12.1,4.8c3.5,1,7.6,3.4,8.7-1.5C138.6,53.2,136.8,42.5,132.8,36.9z"/>
<path class="st3" d="M74.4,172.5L73.8,195c8.5,2.3,17.4,3.5,26.2,3.5c1.5,0,3,0,4.5-0.1c7.9-0.3,15.6-1.6,23.2-3.8h0.1
	c1.4-0.4,2.8-0.8,4.1-1.3h0.1l1.2-0.4c4.8-1.7,9.4-3.7,13.8-6.1l0.3-0.1c0.5-0.3,1-0.5,1.5-0.8l-2.3-30.4l3.6-20.9L130.4,121
	c-1.1,1.6-2.4,3.1-3.7,4.5c-2,2.1-4.3,3.8-6.8,5c-14.3,7-30.5-4.1-38.6-11.1l-1.8-1.6c-2.1-1.9-3.3-3.2-3.3-3.2L66.3,130L74.4,172.5
	z"/>
<path class="st4" d="M74.4,173.9l-0.6,22.6c8.5,2.3,17.4,3.5,26.2,3.5c1.5,0,3,0,4.5-0.1c7.9-0.3,15.6-1.6,23.2-3.8h0.1
	c1.4-0.4,2.8-0.8,4.1-1.3h0.1l1.2-0.4c4.8-1.7,9.4-3.7,13.8-6.1l0.3-0.1c0.5-0.3,1-0.5,1.5-0.8l-2.3-30.4l3.6-20.9l-19.9-13.5
	c-1.1,1.6-2.4,3.1-3.7,4.5c-2,2.1-4.3,3.8-6.8,5c-14.3,7-30.5-4.1-38.6-11.1l-1.8-1.6c-2.1-1.9-3.3-3.2-3.3-3.2l-9.9,15.4
	L74.4,173.9z"/>
<path class="st5" d="M20,160c1.3,1.8,2.7,3.4,4.1,5.1c0.8,0.9,1.6,1.8,2.4,2.6c0.4,0.5,0.8,0.9,1.2,1.3c3.3,3.5,6.9,6.7,10.7,9.7
	l0.3,0.2c5.9,4.6,12.2,8.5,19,11.6l0,0c3.5,1.6,7,3.1,10.6,4.3l1.3,0.4c0.8,0.3,1.7,0.5,2.5,0.8l0.3,0.1c0.4,0.1,0.9,0.3,1.3,0.4
	c8.5,2.3,17.4,3.5,26.2,3.5c1.5,0,3,0,4.5-0.1c1.1-18.8,1.5-33.8-0.3-37.7c-1.1-2.2-2.3-4.4-3.6-6.5c-7.3-11.7-20.6-29.2-19.9-31.5
	c0.3-1.1,0.5-2.2,0.6-3.3c0.8-5.8,1.6-16.4,1.6-16.4l0,0c-0.3,0-6.9,0.2-16.6,13.4c-9.9,13.6-31.6,15.4-31.6,15.4S27.9,130.3,20,160
	z"/>
<path class="st5" d="M129.5,175.7c0,0,1.1,8.7,2.5,19h0.1l1.2-0.4c4.8-1.7,9.4-3.7,13.8-6.1l0.3-0.1c0.5-0.3,1-0.5,1.5-0.8
	c6.5-3.7,12.6-8,18.1-13.1l0.5-0.5c3-2.8,5.9-5.7,8.5-8.8l0.3-0.4c-5.2-18.2-16.2-24-16.2-24s-9.9-4.5-12.7-10.9
	c-2.7-6.3-26.7-19.7-26.7-19.7v0.1c0,1.1-0.4,11.5-1,21.9c-0.4,6.8-0.8,13.6-1.4,17.9c-0.1,1.4-0.4,2.8-0.8,4.1
	C115.9,158.6,129.5,175.7,129.5,175.7z"/>
</svg>
