<?xml version="1.0" encoding="utf-8"?>
<!-- Generator: Adobe Illustrator 24.0.1, SVG Export Plug-In . SVG Version: 6.00 Build 0)  -->
<svg version="1.1" id="e13f2ed2-f963-4a2e-9492-8c50f36be835"
	 xmlns="http://www.w3.org/2000/svg" xmlns:xlink="http://www.w3.org/1999/xlink" x="0px" y="0px" viewBox="0 0 918.6 432.1"
	 style="enable-background:new 0 0 918.6 432.1;" xml:space="preserve">
<style type="text/css">
	.st0{fill:#3F3D56;}
	.st1{fill:#CCCCCC;}
	.st2{fill:#FFFFFF;}
	.st3{fill:#78EBAD;}
	.st4{fill:#E6E6E6;}
	.st5{fill:#FFB8B8;}
	.st6{fill:#2F2E41;}
	.st7{fill:#3195FF;}
	.st8{opacity:0.1;enable-background:new    ;}
</style>
<path class="st0" d="M721.2,306.4c-5.6,0-10.2,4.6-10.2,10.2v23.9c0,5.6,4.6,10.2,10.2,10.2h12.9c5.6,0,10.2-4.6,10.2-10.2v-23.9
	c0-5.6-4.6-10.2-10.2-10.2H721.2z"/>
<path class="st0" d="M483.8,340.5v-23.9c0-6.1,4.9-11,11-11h12.9c6.1,0,11,4.9,11,11v23.9c0,6.1-4.9,11-11,11h-12.9
	C488.7,351.5,483.8,346.6,483.8,340.5z"/>
<path class="st1" d="M485,319v-42.9l8.9-11.7h239.8l11.1,11.7V319c0,7.4-8.3,13.3-18.4,13.3h-223C493.3,332.4,485,326.4,485,319z"/>
<path class="st1" d="M492.5,248.1l12.1-24.9h219.8l8.9,22l1.5,3.8l-2.4,37H495L492.5,248.1z"/>
<polygon class="st2" points="494.4,245.1 547,255.4 547,276 494.7,276 492.9,248.2 "/>
<polygon class="st2" points="733,245.3 734.5,249 732.7,276 681.2,276 681.2,255.4 "/>
<path class="st1" d="M526.1,151.5c1.8-6.9,8.1-11.7,15.2-11.7l143.8,1.4c6.8,0,12.8,4.5,14.8,11.1l23.2,77.2H505.9L526.1,151.5z"/>
<path class="st2" d="M522.2,222.2c-0.8-0.3-1.2-1.1-1-1.9l18.3-57.1c0.2-0.6,0.8-1,1.4-1h147.8c0.6,0,1.2,0.4,1.4,1l17.6,55
	c0,0.1,0.1,0.3,0.1,0.4c0,0.8-0.6,1.5-1.5,1.5l-183.8,2.2C522.5,222.2,522.3,222.2,522.2,222.2z"/>
<path class="st3" d="M588.8,148.2c-0.2-0.7-0.2-1.4,0.1-2.1l4.1-10.3c0.2-0.5,0.5-0.8,0.9-0.8h41.4c0.4,0,0.7,0.3,0.9,0.8l4.1,10.3
	c0.2,0.7,0.3,1.4,0.1,2.1c-0.2,0.7-0.6,1.1-1,1.1h-49.5C589.3,149.3,589,148.9,588.8,148.2z"/>
<path class="st1" d="M722.9,212.1h23.8c4.8,0,8.7,3.9,8.7,8.7v7.2h-32.6V212.1z"/>
<path class="st1" d="M473.5,220.8c0-4.8,3.9-8.7,8.7-8.7h23.8V228h-32.6V220.8z"/>
<rect x="837.6" y="284.5" transform="matrix(0.3381 -0.9411 0.9411 0.3381 207.7229 1033.5634)" class="st0" width="2" height="169.2"/>
<rect x="306.8" y="368.1" transform="matrix(0.9411 -0.338 0.338 0.9411 -101.7232 154.0086)" class="st0" width="169.2" height="2"/>
<path class="st4" d="M605.7,368.7h9.5v12.3h-9.5V368.7z M605.7,344.1h9.5v12.3h-9.5V344.1z"/>
<path class="st4" d="M605.7,419.7h9.5v12.3h-9.5V419.7z M605.7,395.1h9.5v12.3h-9.5V395.1z"/>
<polygon class="st5" points="186.8,349 202.3,349 197.3,389.5 186.8,389.5 "/>
<path class="st6" d="M184.1,386.1h20.7c7.3,0,13.2,5.9,13.2,13.2v0.4h-33.9L184.1,386.1z"/>
<polygon class="st5" points="72.3,334.9 85.6,342.9 60.4,375 51.4,369.6 "/>
<path class="st6" d="M43.9,377l7-11.7L68.6,376c6.2,3.8,8.2,11.8,4.5,18.1l-0.2,0.4L43.9,377z"/>
<path class="st6" d="M184,381c-2.1-2.2-7.4-37.6-15.2-91.4c-2.7-18.7-5.3-36.4-7.4-50c-18.1,39.7-47.3,82.7-82.4,121.1l-0.2,0.2
	l-0.3-0.1c-11.2-4.6-13.3-5.7-18.4-8.3c-1.5-0.8-3.3-1.7-5.6-2.9l-0.1-0.1c-1.1-1.2,8.8-17.7,43.4-73.5c15.1-24.3,30.6-49.5,41-66.9
	l0.1-0.2l0.2,0c24.9-5.2,49,0.9,67.7,17.2l0.2,0.1l0,0.2c-0.5,20.5-0.1,52.6,0.3,81c0.7,55.4,0.7,71.6-1,72.1l-0.1,0
	c-2.5,0.2-4.6,0.4-6.6,0.6c-5.1,0.6-10.2,0.9-15.3,0.9l-0.2,0L184,381z"/>
<path class="st6" d="M182.7,54.7c1.4-10.3,1.7-21-1.4-31c-3.1-9.9-10.2-19.1-20-22.4s-26.9-0.2-31.5,9.1
	c-6.7,13.4-3.7,29.9-0.1,44.5C146.6,54,164.6,54.3,182.7,54.7z"/>
<circle class="st5" cx="160" cy="33.9" r="21"/>
<path class="st6" d="M187.1,30.2c0-0.6,0-1.1,0-1.7C186.9,14,174.8,2.3,160.2,2.6S134,14.9,134.3,29.5
	C151.1,30.3,169.1,30.3,187.1,30.2z"/>
<path class="st7" d="M217,235.3c-3.9-13.2-5.8-22.5-8-33.2c-3.1-14.7-6.5-31.3-16.1-63.6l0-0.1l0-0.1c2.7-28.1-9.1-57.8-30.8-77.7
	c-3-2.6-7.5-2.3-10.2,0.5c-12.2,13.7-19.9,26.5-23.4,39.2l-0.1,0.3c5.1,16.4,10.8,32.8,16.3,48.8l0.1,0.2l-0.2,0.2
	c-20.6,24.8-32.1,58.1-31.4,91.2c19.8-6.9,40.5-10.4,61.5-10.3C188.9,230.8,203.1,232.3,217,235.3z"/>
<polygon class="st8" points="192.6,178.2 174.9,196.1 143.8,128.5 "/>
<path class="st0" d="M213.8,166l0.1,0.1l3.2-6.1c0.7-1.3,2.2-1.8,3.5-1.1l13.7,7c1.3,0.7,1.8,2.2,1.1,3.5l-1.3,2.6l0.1,0
	c0.1,0,0.1,0.1,0,0.1l-0.7,1.3l0,0c0,0.1-0.1,0.1-0.1,0l-0.1,0l-0.6,1.2l0.1,0c0.1,0,0.1,0.1,0.1,0.2l-1.2,2.4
	c0,0.1-0.1,0.1-0.2,0.1l-0.1,0l-0.5,0.9l0.1,0l0,0l0,0c0.1,0,0.1,0.1,0.1,0.2l-1.2,2.4c0,0.1-0.1,0.1-0.2,0l-0.1,0l-10.9,21.2l0,0
	l0,0c-0.6,1.3-2.2,1.8-3.5,1.1l-13.7-7c-1.3-0.7-1.8-2.2-1.1-3.5l11.3-21.9l-0.1-0.1c-0.1,0-0.1-0.1-0.1-0.2l2.2-4.2
	C213.6,166,213.7,165.9,213.8,166z"/>
<path class="st3" d="M217.9,160.9c0.4-0.8,1.4-1.1,2.2-0.7l2.1,1.1l-0.1,0.3c-0.3,0.7-0.1,1.5,0.6,1.8l6.7,3.4c0,0,0,0,0,0
	c0.7,0.3,1.5,0.1,1.8-0.6l0.1-0.3l2,1l0,0c0.8,0.4,1.1,1.4,0.7,2.2l-16.6,32.3l0,0c-0.4,0.8-1.4,1.1-2.2,0.7l-13.1-6.7
	c-0.8-0.4-1.1-1.4-0.7-2.2L217.9,160.9L217.9,160.9z"/>
<path class="st5" d="M222,194.4c1.5-4.6-1-9.4-5.6-10.9l-22.1-16.9l-14.6,6.3l25.6,16.8c-0.1,0.5-0.2,1-0.2,1.5
	c-0.3,4.7,3.2,8.9,8,9.2C217.1,200.7,220.8,198.2,222,194.4z"/>
<path class="st7" d="M188.2,188c-15.3-17.6-31.1-35.8-45.5-54.1l-0.1-0.1l0-0.1c0.1-14.9,0.1-30.4,1.9-47.7c-2.8-3-4.2-7.1-3.6-11.2
	c0.4-4.6,2.8-8.8,6.7-11.3c7.2-4.6,18-2.1,23.1,5.3c4.9,7.1,4.2,17.3,0.4,22.4l-4.2,32.7l-0.4,0l0.1,0l0,0l0.1,0.1l0.1,0.1
	c0,0,0,0,0,0.1c13.5,16.5,27.5,33.6,41.4,49.9l0.3,0.4l-0.4,0.3c-6.5,4.5-13.3,9.1-19.4,13.6l-0.3,0.2L188.2,188z"/>
<circle class="st3" cx="614.8" cy="51.8" r="47.3"/>
<polygon class="st2" points="602.5,71.8 588.3,53.6 596.5,47.2 603.2,55.8 625.9,31.9 633.4,39.1 "/>
<path class="st0" d="M0,400c0-0.6,0.4-1,1-1h239c0.6,0,1,0.4,1,1s-0.4,1-1,1H1C0.4,401,0,400.6,0,400z"/>
</svg>
